SplineFontDB: 3.0
FontName: TamilNumFracs
FullName: TamilNumFracs
FamilyName: TamilNumFracs
Weight: Regular
Copyright: Copyright (c) 2018, Coopon,,,
UComments: "2018-10-9: Created with FontForge (http://fontforge.org)"
Version: 001.000
ItalicAngle: 0
UnderlinePosition: -102.4
UnderlineWidth: 51.2
Ascent: 819
Descent: 205
InvalidEm: 0
LayerCount: 2
Layer: 0 0 "Back" 1
Layer: 1 0 "Fore" 0
XUID: [1021 816 -1302706879 14798262]
StyleMap: 0x0000
FSType: 0
OS2Version: 0
OS2_WeightWidthSlopeOnly: 0
OS2_UseTypoMetrics: 1
CreationTime: 1539025073
ModificationTime: 1553739477
PfmFamily: 17
TTFWeight: 400
TTFWidth: 5
LineGap: 92
VLineGap: 92
OS2TypoAscent: 0
OS2TypoAOffset: 1
OS2TypoDescent: 0
OS2TypoDOffset: 1
OS2TypoLinegap: 92
OS2WinAscent: 0
OS2WinAOffset: 1
OS2WinDescent: 0
OS2WinDOffset: 1
HheadAscent: 0
HheadAOffset: 1
HheadDescent: 0
HheadDOffset: 1
OS2Vendor: 'PfEd'
Lookup: 4 0 0 "'abvs' Above Base Substitutions in Devanagari lookup 0" { } ['abvs' ('deva' <'dflt' > ) 'abvs' ('deva' <'dflt' > ) 'blws' ('deva' <'dflt' > ) 'blws' ('deva' <'dflt' > ) 'haln' ('deva' <'dflt' > ) ]
Lookup: 258 0 0 "'dist' Distance in Devanagari lookup 0" { } []
MarkAttachClasses: 1
DEI: 91125

StartChar: uni0905
Encoding: 2309 2309 0
Width: 1913
VWidth: 0
Flags: W
HStem: -149.983 65.541<1428.49 1642.09> -4.32715 65.2178<311.111 441.251 1257.22 1402.86> 12.8379 61.0439<682.578 939.615> 302.475 65.1602<311.452 447.731 1194.07 1232.43 1298.96 1449.42 1536.6 1678.3> 531.552 68.667<1032.57 1160.67> 550.181 62.9473<302.705 515.147> 572.141 65.5146<1299.14 1460.43 1536.6 1767.01>
VStem: 75.415 71.4297<173.036 394.622> 204.389 61.6465<107.881 254.411> 490.215 65.377<106.776 260.635> 754.578 69.9219<-362.746 -255.504> 939.615 72.3389<73.8818 510.577> 1091.27 76.8848<145.86 276.994> 1232.36 66.7812<367.989 464.442 519.675 571.856> 1449.42 86.2148<112.706 302.476> 1460.43 76.1758<367.989 572.141> 1764.9 72.6816<26.3806 212.018>
LayerCount: 2
Fore
SplineSet
1299.14257812 571.856445312 m 1x93fd80
 1298.95605469 367.989257812 l 1
 1460.42773438 367.989257812 l 1
 1460.42773438 572.140625 l 1
 1299.14257812 571.856445312 l 1x93fd80
376.048828125 60.890625 m 1xd1fc80
 411.336914062 60.890625 436.24609375 71.1279296875 461.154296875 97.7421875 c 0
 481.913085938 120.262695312 490.21484375 146.876953125 490.21484375 181.682617188 c 0
 490.21484375 214.440429688 481.913085938 245.1484375 461.154296875 269.716796875 c 0
 436.24609375 292.237304688 411.3359375 302.474609375 376.048828125 302.474609375 c 0
 346.989257812 302.474609375 322.080078125 292.237304688 299.248046875 269.716796875 c 0
 278.489257812 245.1484375 266.03515625 214.440429688 266.03515625 181.682617188 c 0
 266.03515625 146.876953125 278.489257812 118.215820312 299.248046875 93.6474609375 c 0
 322.080078125 69.080078125 346.989257812 60.890625 376.048828125 60.890625 c 1xd1fc80
1341.89941406 60.890625 m 1
 1423.20214844 60.890625 1449.42480469 145.6640625 1449.42480469 187.826171875 c 2
 1449.42480469 302.475585938 l 1xd1fe80
 1242.26367188 302.475585938 l 2
 1219.4296875 302.475585938 1209.671875 292.23828125 1193.06640625 279.954101562 c 0
 1176.45898438 265.623046875 1168.15527344 245.149414062 1168.15527344 222.629882812 c 0
 1168.15527344 179.635742188 1186.84082031 140.73828125 1222.12597656 107.98046875 c 0
 1257.41210938 77.26953125 1292.07910156 60.8916015625 1341.89941406 60.8916015625 c 1
 1341.89941406 60.890625 l 1
1232.36132812 519.674804688 m 1
 1232.36132812 637.655273438 l 1
 1767.00878906 637.655273438 l 1
 1767.00878906 572.140625 l 1
 1536.60351562 572.140625 l 1
 1536.60351562 367.989257812 l 1x93fd80
 1600.95214844 367.989257812 l 2
 1750.44140625 367.989257812 1837.58496094 260.846679688 1837.58496094 120.540039062 c 0
 1837.58496094 6.9091796875 1772.85058594 -149.983398438 1517.921875 -149.983398438 c 1
 925.266601562 -193.983398438 l 1
 876.934570312 -204.983398438 824.5 -247.423828125 824.5 -362.74609375 c 1
 754.578125 -373.74609375 l 1
 754.578125 -196.618164062 845.893554688 -128.442382812 969.69140625 -128.442382812 c 1
 1517.78320312 -84.4423828125 l 1
 1727.95117188 -84.4423828125 1764.90332031 48.6181640625 1764.90332031 119.978515625 c 0
 1764.90332031 213.04296875 1702.28027344 302.778320312 1601.1171875 302.778320312 c 2
 1535.63964844 302.778320312 l 1
 1535.63964844 188.331054688 l 2
 1535.63964844 100.051757812 1472.79101562 -4.3251953125 1341.5390625 -4.3251953125 c 0
 1270.10546875 -4.3251953125 1217.61328125 16.6552734375 1164.03808594 62.4375 c 0
 1110.46679688 108.21484375 1091.27050781 159.716796875 1091.27050781 222.6640625 c 0
 1091.27050781 260.81640625 1102.52832031 295.150390625 1134.27832031 323.763671875 c 0
 1168.00878906 352.374023438 1188.77734375 367.634765625 1232.42871094 367.634765625 c 1
 1232.42871094 433.952148438 l 1
 1227.65136719 443.3046875 1168.07910156 530.120117188 1102.32226562 531.551757812 c 0
 1039.38378906 532.921875 1011.95410156 500.334960938 1011.95410156 454.807617188 c 2
 1011.95410156 12.837890625 l 1
 587.334960938 12.837890625 l 1xb9fe80
 587.334960938 60.5283203125 l 1
 613.133789062 89.140625 634.959960938 121.567382812 646.862304688 159.716796875 c 0
 660.75390625 195.9609375 668.690429688 234.109375 668.690429688 274.166992188 c 0
 668.690429688 367.634765625 644.87890625 410.932617188 597.260742188 466.250976562 c 0
 551.622070312 519.659179688 488.126953125 550.180664062 412.729492188 550.180664062 c 0
 329.391601562 550.180664062 267.884765625 519.659179688 218.276367188 466.250976562 c 0
 168.672851562 410.932617188 146.844726562 367.634765625 146.844726562 274.166992188 c 0
 146.844726562 236.018554688 154.784179688 205.498046875 168.672851562 173.072265625 c 0
 186.53125 140.64453125 208.359375 112.03125 236.13671875 89.140625 c 1
 224.229492188 106.306640625 214.310546875 121.567382812 212.327148438 138.734375 c 0
 206.374023438 155.900390625 204.388671875 167.34765625 204.388671875 180.701171875 c 0
 204.388671875 232.203125 220.263671875 274.166992188 255.977539062 312.319335938 c 0
 287.72265625 348.559570312 327.408203125 367.634765625 377.013671875 367.634765625 c 0
 428.599609375 367.634765625 470.270507812 350.465820312 504.000976562 316.131835938 c 0
 537.734375 276.07421875 555.591796875 232.203125 555.591796875 180.701171875 c 0
 555.591796875 129.198242188 531.780273438 89.140625 490.112304688 52.8984375 c 0
 452.413085938 16.654296875 404.79296875 -4.3271484375 347.250976562 -4.3271484375 c 0
 269.87109375 -4.3271484375 208.358398438 24.2841796875 154.782226562 79.6005859375 c 0
 101.2109375 131.103515625 75.4150390625 195.959960938 75.4150390625 274.166992188 c 0
 75.4150390625 384.80078125 101.2109375 441.454101562 166.689453125 510.122070312 c 0
 228.19921875 580.701171875 311.538085938 613.127929688 412.729492188 613.127929688 c 0xd5fe80
 513.921875 613.127929688 595.272460938 580.701171875 656.786132812 510.122070312 c 0
 728.803710938 427.038085938 763.626953125 310.467773438 732.181640625 176.884765625 c 0
 724.412109375 143.876953125 704.40234375 108.21484375 682.578125 73.8818359375 c 1
 939.615234375 73.8818359375 l 1
 939.615234375 454.807617188 l 2
 939.615234375 541.061523438 1009.54785156 600.21875 1090.0234375 600.21875 c 0xb9fe80
 1153.34667969 600.21875 1210.04980469 554.404296875 1232.36132812 519.674804688 c 1
EndSplineSet
Validated: 37
Comment: "Glyph representing Tamil Muntiri"
EndChar

StartChar: uni0906
Encoding: 2310 2310 1
Width: 1378
VWidth: 0
Flags: W
HStem: -89 60<327.188 499.111> 316 59<142.084 224.815> 336 56<967 1307> 414 60<740.98 806.87> 538 62<143.496 277.628> 632 60<629.254 720.439 825.553 923.109>
VStem: 71 53<394.163 519.413> 225 51<24.5356 142.348> 251 50<402.27 517.728> 399 50<315.476 455.902> 549 50<344.263 601.194> 588 53<60.1259 353.22> 678 53<489.606 576.257> 815 52<483.09 570.716> 958 50<446.539 599.324>
LayerCount: 2
Fore
SplineSet
678 558 m 4xbe6e
 684 582 701 602 721 622 c 5
 710 628 698 632 688 632 c 6
 678 632 l 6
 643 632 612 601 606 567 c 4
 602 549 599 524 599 495 c 6
 599 483 l 6xbe6e
 599 464 611 397 633 278 c 4
 639 243 641 213 641 182 c 4
 641 136 635 95 622 55 c 4
 606 9 577 -26 534 -51 c 4
 494 -76 452 -89 399 -89 c 4
 349 -89 306 -68 271 -32 c 4
 240 4 225 46 225 94 c 6
 225 104 l 5xbf5e
 229 129 240 158 264 184 c 4
 270 194 290 215 324 250 c 4
 374 300 399 344 399 385 c 4
 399 419 383 452 357 486 c 4
 337 511 311 530 282 538 c 5
 295 513 301 484 301 458 c 6xbece
 301 423 291 390 267 360 c 4
 243 330 216 316 186 316 c 4
 155 316 128 327 108 351 c 4
 83 376 71 412 71 458 c 4
 71 507 84 541 113 567 c 4
 138 587 175 600 225 600 c 4
 301 600 349 584 399 525 c 4
 435 484 449 438 449 390 c 4
 449 325 414 256 355 206 c 4
 320 176 306 153 300 145 c 4
 286 129 276 114 276 98 c 5
 276 94 l 6
 276 60 289 32 309 10 c 4
 331 -16 361 -29 399 -29 c 4
 442 -29 478 -18 509 -2 c 4
 538 17 562 44 573 78 c 4
 583 109 588 146 588 182 c 4xdf5e
 588 208 586 238 581 267 c 4
 559 389 549 459 549 481 c 6
 549 499 l 6
 549 533 551 558 555 580 c 4
 565 620 582 649 611 668 c 5
 635 684 654 692 678 692 c 6
 685 692 l 6
 689 692 687 692 691 692 c 4
 715 692 742 681 771 662 c 5
 800 680 825 687 851 687 c 6
 858 687 l 6
 889 687 918 682 942 668 c 4
 982 646 1002 612 1008 564 c 4
 1008 556 1008 548 1008 538 c 4
 1008 497 993 450 967 392 c 5
 1307 392 l 5
 1307 336 l 5
 874 336 l 5
 894 362 913 399 933 440 c 4
 949 475 958 508 958 538 c 4
 958 544 958 549 958 555 c 4
 958 581 939 600 919 613 c 4
 901 623 882 632 858 632 c 6
 851 632 l 6
 843 632 836 626 825 622 c 5
 831 617 835 609 839 604 c 4
 858 580 867 555 867 525 c 4
 867 495 860 472 844 450 c 4
 826 425 804 414 774 414 c 4
 745 414 720 427 701 453 c 4
 685 473 678 499 678 525 c 4
 678 538 677 548 678 558 c 4xbe6e
771 594 m 5
 745 572 731 549 731 525 c 4
 731 511 736 502 742 489 c 4
 750 478 761 474 774 474 c 4
 787 474 797 477 805 488 c 4
 811 498 815 509 815 525 c 4
 815 538 811 551 801 567 c 4
 795 573 784 584 771 594 c 5
191 538 m 5
 169 534 155 526 145 520 c 4
 131 507 124 487 124 458 c 4
 124 429 129 410 142 396 c 4
 153 383 168 375 186 375 c 4
 202 375 216 386 229 402 c 4
 243 418 251 438 251 458 c 6xdece
 251 478 244 497 233 513 c 4
 222 527 209 538 191 538 c 5
EndSplineSet
Validated: 33
EndChar

StartChar: uni0907
Encoding: 2311 2311 2
Width: 1220
VWidth: 0
Flags: W
HStem: -89.1641 82.0645<613.782 805.433> 360.854 72.9258<248.513 471.732 543.176 735.936> 784.436 65.7285<440.405 669.549>
VStem: 179.713 68.7998<-89.1641 360.854> 966.688 73.5996<203.529 508.748>
LayerCount: 2
Fore
SplineSet
555.487304688 850.1640625 m 0
 799.290039062 850.1640625 1040.28710938 640.771484375 1040.28710938 393.84375 c 0
 1040.28710938 170.919921875 961.282226562 -89.1640625 695.072265625 -89.1640625 c 0
 633.875 -89.1640625 580.549804688 -71.4306640625 535.760742188 -31.849609375 c 0
 442.885742188 49.1181640625 407.416015625 218.801757812 471.732421875 360.853515625 c 1
 248.512695312 360.853515625 l 1
 248.512695312 -85.1640625 l 1
 248.512695312 -89.1640625 l 1
 244.512695312 -89.1640625 l 1
 183.712890625 -89.1640625 l 1
 179.712890625 -89.1640625 l 1
 179.712890625 -85.1640625 l 1
 179.712890625 429.779296875 l 1
 179.712890625 433.779296875 l 1
 183.712890625 433.779296875 l 1
 731.935546875 433.779296875 l 1
 735.935546875 433.779296875 l 1
 735.935546875 429.779296875 l 1
 735.935546875 364.853515625 l 1
 735.935546875 360.853515625 l 1
 731.935546875 360.853515625 l 1
 555.319335938 360.853515625 l 1
 461.22265625 226.133789062 533.599609375 -7.099609375 693.471679688 -7.099609375 c 0
 924.046875 -7.099609375 966.6875 194.6015625 966.6875 391.796875 c 3
 966.6875 616.0625 741.095703125 784.435546875 553.759765625 784.435546875 c 0
 399.1171875 784.435546875 288.701171875 671.771484375 271.58984375 615.87890625 c 1
 271.58984375 615.87890625 221.630859375 631.88671875 201.469726562 636.182617188 c 1
 259.3203125 755.594726562 393.573242188 850.1640625 555.487304688 850.1640625 c 0
EndSplineSet
Validated: 33
Comment: "Glyph representing Tamil Araikkani"
EndChar

StartChar: uni0908
Encoding: 2312 2312 3
Width: 828
VWidth: 0
Flags: W
HStem: -205.291 63.415<304.679 503.342> 388.325 78.334<240.639 344.342>
VStem: 113.41 69.2168<-32.8663 104.16> 139.521 75.0928<494.776 629.965> 605.257 63.4912<439.506 578.575> 636.619 69.9707<-22.6225 154.814>
LayerCount: 2
Fore
SplineSet
668.748046875 490.9765625 m 4xd8
 668.748046875 376.879882812 512.171875 304.6875 384.896484375 230.52734375 c 4
 285.858398438 172.8203125 182.626953125 127.356445312 182.626953125 37.6298828125 c 4
 182.626953125 -52.1953125 295.951171875 -141.875976562 385.896484375 -141.875976562 c 4
 520.704101562 -141.875976562 636.619140625 -64.14453125 636.619140625 68.2578125 c 4
 636.619140625 159.8359375 592.478515625 181.486328125 517.135742188 272.118164062 c 5
 578.8828125 308.197265625 l 5
 658.883789062 206.081054688 706.58984375 185.626953125 706.58984375 67.3984375 c 4
 706.58984375 -113.15234375 565.60546875 -205.291015625 382.208984375 -205.291015625 c 4
 244.248046875 -205.291015625 113.41015625 -96.96875 113.41015625 40.0126953125 c 4xe4
 113.41015625 166.208007812 234.393554688 223.88671875 349.953125 282.6484375 c 4
 455.969726562 336.499023438 605.256835938 413.720703125 605.256835938 494.662109375 c 4
 605.256835938 625.211914062 505.189453125 645.283203125 415.23046875 665.783203125 c 5
 481.881835938 552.297851562 419.854492188 388.325195312 300.4609375 388.325195312 c 4
 210.907226562 388.325195312 136.990234375 474.127929688 139.520507812 564 c 20
 144.00390625 668.877929688 201.31640625 727.306640625 290 729.745117188 c 4
 372 732 668.748046875 751.357421875 668.748046875 490.9765625 c 4xd8
214.61328125 570.799804688 m 4xd0
 214.61328125 508.790039062 239.973632812 466.659179688 300.4609375 466.659179688 c 4
 347.4609375 466.659179688 375.384765625 522.58203125 375.384765625 570.799804688 c 4
 375.384765625 690.372070312 214.61328125 683.783203125 214.61328125 570.799804688 c 4xd0
EndSplineSet
Validated: 33
Comment: "Glyph representing Tamil Kani"
EndChar

StartChar: uni0909
Encoding: 2313 2313 4
Width: 1390
VWidth: 0
Flags: W
HStem: -35.8604 70.9795<353.778 531.382> 304.298 62.2441<1011.65 1104.73> 312.931 76.2585<446.148 633.594 701.197 923.253> 321.823 67.3662<446.148 631.232> 651.932 65.374<440.072 633.594 701.197 863.727>
VStem: 204.826 74.9355<106.823 255.637> 371.391 68.6816<389.189 651.932> 633.594 67.6035<127.744 312.931 389.189 651.932> 925.086 67.6061<398.623 628.037> 1118.65 66.5273<-35.1309 329.064 380.308 628.037>
LayerCount: 2
Fore
SplineSet
440.072265625 389.189453125 m 5x9fc0
 633.59375 389.189453125 l 5
 633.59375 651.931640625 l 5
 440.072265625 651.931640625 l 5
 440.072265625 389.189453125 l 5x9fc0
438.072265625 35.119140625 m 4
 510.792483997 35.119140625 633.59375 79.1316091251 633.59375 210.661132812 c 6
 633.59375 313.040776616 l 5
 583.112211747 318.92545636 539.361252966 321.816703998 500.727151484 321.823277017 c 4
 343.697331642 321.84999331 279.76171875 273.708865334 279.76171875 177.936523438 c 4
 279.76171875 89.9568192269 361.041927045 35.119140625 438.072265625 35.119140625 c 4
749.703125 312.930664062 m 6xafc0
 701.197265625 312.930664062 l 5
 701.197265625 210.661132812 l 6
 701.197265625 71.4060019117 560.584104901 -35.8603515625 438.072265625 -35.8603515625 c 4
 311.386864914 -35.8603515625 204.826171875 42.2460238054 204.826171875 177.936523438 c 4
 204.826171875 285.962509812 271.948584624 374.600809444 371.390625 389.056704701 c 5
 371.390625 716.305664062 l 5
 371.390625 717.305664062 l 5
 372.390625 717.305664062 l 5
 862.7265625 717.305664062 l 5
 863.7265625 717.305664062 l 5
 863.7265625 716.305664062 l 5
 863.7265625 652.931640625 l 5
 863.7265625 651.931640625 l 5
 862.7265625 651.931640625 l 5
 701.197265625 651.931640625 l 5
 701.197265625 389.189193123 l 5xafc0
 791.360449002 389.141022207 924.323274863 383.873669533 925.0859375 415.104981522 c 6
 925.0859375 627.037109375 l 5
 925.0859375 628.037109375 l 5
 926.0859375 628.037109375 l 5
 991.69140625 628.037109375 l 5
 992.69140625 628.037109375 l 5
 992.69140625 627.037109375 l 5
 992.69204337 418.541197024 l 6
 994.030622589 415.132681912 1013.90190299 366.541992188 1054.69335938 366.541992188 c 4
 1109.36018596 366.541992188 1118.55860058 416.848546858 1118.64648438 417.333565371 c 6
 1118.64648438 627.037109375 l 5
 1118.64648438 628.037109375 l 5
 1119.64648438 628.037109375 l 5
 1184.17382812 628.037109375 l 5
 1185.17382812 628.037109375 l 5
 1185.17382812 627.037109375 l 5
 1185.17382812 -34.130859375 l 5
 1185.17382812 -35.130859375 l 5
 1184.17382812 -35.130859375 l 5
 1119.64648438 -35.130859375 l 5
 1118.64648438 -35.130859375 l 5
 1118.64648438 -34.130859375 l 5
 1118.64648438 329.064278509 l 5
 1111.66968034 323.639421066 1084.81996874 304.297851562 1054.69335938 304.297851562 c 4xcfc0
 1011.0359744 304.297851562 964.889276487 343.303580401 958.94108509 348.473817143 c 5
 914.733213307 306.6057516 841.84873656 312.930664062 749.703125 312.930664062 c 6xafc0
EndSplineSet
Validated: 33
Comment: "Glyph representing tamil Araima"
EndChar

StartChar: uni090A
Encoding: 2314 2314 5
Width: 1579
VWidth: 0
Flags: W
HStem: -2 65<243.585 416.468> 78 62<866.765 1022.03> 302 66<179.252 236.5 319.5 481.5 560.5 703.86 1322.88 1407.8> 597 65<319.5 481.5 560.5 689.5 1280.97 1388.69>
VStem: 75.5 82<143.584 282.709> 236.5 83<368 597> 481.5 79<126.387 302 368 597> 1076.5 59<191.471 389.196> 1439.5 64<401.219 546.379>
LayerCount: 2
Fore
SplineSet
319.5 368 m 1
 481.5 368 l 1
 481.5 597 l 1
 319.5 597 l 1
 319.5 368 l 1
334.5 63 m 0
 375.5 63 407.5 74 436.5 100 c 0
 465.5 126 481.5 158 481.5 193 c 2
 481.5 302 l 1
 236.5 302 l 2
 213.5 302 194.5 299 178.5 283 c 0
 162.5 267 157.5 247 157.5 224 c 0
 157.5 181 172.5 140 208.5 110 c 0
 243.5 79 285.5 63 334.5 63 c 0
755.5 348 m 1
 757.5 319 765.5 289 779.5 261 c 0
 795.5 225 815.5 200 844.5 178 c 0
 873.5 155 901.5 140 935.5 140 c 0
 971.5 140 1002.5 147 1028.5 166 c 0
 1057.5 188 1074.5 213 1076.5 247 c 0
 1076.5 249 1076.5 253 1076.5 258 c 0
 1076.5 265 1076.5 276 1076.5 289 c 0
 1076.5 312 1076.5 327 1076.5 340 c 0
 1076.5 363 1075.5 385 1085.5 402 c 0
 1097.5 426 1114.5 442 1137.5 450 c 0
 1149.5 455 1162.5 457 1175.5 457 c 0
 1185.5 457 1197.5 454 1207.5 452 c 0
 1227.5 445 1251.5 429 1277.5 406 c 0
 1297.5 386 1312.5 375 1322.5 370 c 0
 1330.5 368 1338.5 367 1348.5 367 c 0
 1354.5 367 1360.5 366 1367.5 368 c 0
 1383.5 370 1397.5 379 1409.5 392 c 0
 1433.5 415 1439.5 447 1439.5 483 c 0
 1439.5 519 1422.5 547 1394.5 570 c 0
 1370.5 590 1340.5 600 1310.5 600 c 0
 1300.5 600 1290.5 599 1280.5 597 c 1
 1270.5 663 l 1
 1278.5 665 1286.5 664 1294.5 664 c 0
 1300.5 664 1306.5 664 1313.5 664 c 0
 1359.5 664 1401.5 648 1436.5 619 c 0
 1478.5 584 1503.5 541 1503.5 489 c 0
 1503.5 434 1492.5 386 1454.5 349 c 0
 1434.5 327 1411.5 316 1385.5 309 c 0
 1372.5 307 1361.5 304 1348.5 304 c 0
 1332.5 304 1315.5 306 1299.5 312 c 0
 1282.5 318 1261.5 335 1233.5 358 c 0
 1214.5 375 1198.5 386 1186.5 391 c 0
 1176.5 393 1168.5 393 1161.5 391 c 0
 1155.5 389 1149.5 382 1144.5 374 c 0
 1138.5 364 1137.5 353 1135.5 340 c 0
 1135.5 333 1139.5 318 1139.5 295 c 0
 1139.5 281 1141.5 267 1141.5 255 c 0
 1141.5 249 1140.5 244 1139.5 238 c 0
 1132.5 188 1109.5 146 1067.5 115 c 0
 1026.5 86 981.5 78 932.5 78 c 0
 884.5 78 844.5 99 803.5 128 c 0
 767.5 156 741.5 193 722.5 236 c 0
 712.5 259 702.5 278 697.5 302 c 1
 560.5 302 l 1
 560.5 193 l 2
 560.5 138 539.5 93 495.5 56 c 0
 449.5 18 396.5 -2 334.5 -2 c 0
 263.5 -2 201.5 19 151.5 63 c 0
 102.5 107 75.5 162 75.5 224 c 0
 75.5 265 91.5 298 121.5 327 c 0
 152.5 355 194.5 368 236.5 368 c 1
 236.5 662 l 1
 689.5 662 l 1
 689.5 597 l 1
 560.5 597 l 1
 560.5 368 l 1
 755.5 368 l 1
 755.5 348 l 1
EndSplineSet
Validated: 33
EndChar

StartChar: uni090B
Encoding: 2315 2315 6
Width: 1246
VWidth: 0
Flags: HW
HStem: -287.438 52.7998<456.532 812.165> 0.546875 51.3428<263.951 379.362 379.613 1030.45> 104.012 61.1758<224.447 428.778> 348.379 55.1016<871.057 1011.17> 368.963 65.1094<288.736 472.962> 378.562 50.71<530.086 611.558> 581.362 66.4492<288.736 472.962 530.086 713.121>
VStem: 114.44 53.9229<212.15 335.258> 230.318 58.418<434.072 581.362> 472.962 57.124<213.779 371.494 434.072 581.362> 1008.16 55.2002<-95.319 -37.8379>
LayerCount: 2
Fore
SplineSet
293.736328125 440.072265625 m 1
 467.961914062 440.072265625 l 1
 467.961914062 577.362304688 l 1
 293.736328125 577.362304688 l 1
 293.736328125 440.072265625 l 1
346.3359375 171.1875 m 0
 442.246104683 171.1875 467.961914062 219.891682066 467.961914062 328.837890625 c 2
 467.961914062 367.403961257 l 1
 331.451670953 364.963689322 l 1
 331.105073614 364.95749351 l 1
 330.760937324 364.999186636 l 2
 318.518037212 366.482450057 306.775792613 367.218095587 295.621013179 367.229156091 c 0
 220.313735147 367.303826902 173.36328125 335.164680737 173.36328125 277.568359375 c 0
 173.36328125 211.814929411 218.713858729 171.1875 346.3359375 171.1875 c 0
1068.21966423 -37.8038294045 m 1
 1061.57583475 -195.517801632 834.926566495 -291.4375 658.360351562 -291.4375 c 0
 585.252547351 -291.4375 259.353966413 -291.754228494 161.355025102 -108.952268583 c 0
 152.861865873 -93.1097535949 148.65668311 -76.8915198687 148.702186931 -61.0021838529 c 0
 148.907490889 10.6872594892 233.527868773 70.1485556494 377.010691039 68.7448792625 c 0
 977.195120357 62.8895394638 l 0
 1030.6127679 62.5368579759 1064.08613147 127.161947042 1063.42526772 198.137024325 c 0
 1062.71952881 273.93157896 1023.26309211 350.232750813 934.009765464 349.379135231 c 0
 806.811535668 348.161756765 771.735307216 161.205385187 771.563017573 160.262947383 c 0
 770.813332115 156.162109375 l 1
 707.54072087 156.162109375 l 1
 707.365603534 160.980512059 l 0
 707.302714076 162.710933173 698.638631925 369.94637632 535.0859375 374.500432472 c 1
 535.0859375 328.837890625 l 0
 535.0859375 209.265059188 509.213667236 100.01171875 346.3359375 100.01171875 c 0
 193.406583404 100.01171875 109.440429688 147.150090365 109.440429688 277.568359375 c 0
 109.440429688 364.163641623 188.904900746 419.278507942 225.318359375 437.997703657 c 1
 225.318359375 653.811523438 l 1
 718.12109375 653.811523438 l 1
 718.12109375 577.362304688 l 1
 535.0859375 577.362304688 l 1
 535.0859375 435.165969758 l 1
 690.089858733 430.619774282 732.594985837 313.590179927 743.887597861 260.393430648 c 1
 758.376727805 311.562114773 804.808388726 416.137031994 942.149635672 416.480453191 c 0
 1075.57885622 416.813325527 1135.7427916 301.300452225 1136.55204307 192.914812843 c 0
 1137.28610368 94.5997255059 1089.22577045 -2.86621764823 998.593898589 -3.45302018386 c 0
 724.238309087 -5.22951818651 379.392646255 -0.501860403999 379.392646255 -0.501860403999 c 1
 311.260285573 -2.26162964521 267.388955494 -15.6753682189 245.455671628 -33.5240122396 c 0
 222.120122537 -52.5137773528 221.758907875 -76.6549720776 242.822901231 -102.25472733 c 0
 355.76981148 -239.522109476 619.649530929 -223.637695312 693.76171875 -223.637695312 c 0
 836.974617923 -223.637695312 998.162109375 -127.72636598 998.162109375 -36.837890625 c 0
 998.162109375 -31.837890625 l 1
 1003.16210938 -31.837890625 l 2
 1068.21966423 -37.8038294045 l 1
EndSplineSet
Validated: 33
Comment: "Glyph representing Tamil Mukkani"
EndChar

StartChar: uni090C
Encoding: 2316 2316 7
Width: 1202
VWidth: 0
Flags: W
HStem: -76 54<667.458 763.82> -23 56<894.051 1025.53> 2 56<207.158 364.205> 84 56<680.844 785.974> 267 55<156.612 205 277 416 486 691.684> 518 56<277 416 486 596>
VStem: 67 70<124.455 249.17> 205 72<322 518> 416 70<106.22 267 322 518> 602 57<-12.1244 74.3643> 1082 53<94.509 296.138>
LayerCount: 2
Fore
SplineSet
719 84 m 4x9fe0
 711 84 700 82 692 80 c 4
 678 75 668 64 663 50 c 4
 659 43 659 36 659 30 c 4
 659 24 659 16 663 9 c 4
 667 -1 673 -9 685 -14 c 4
 693 -19 703 -22 714 -22 c 4
 716 -22 719 -21 721 -21 c 4
 734 -20 746 -13 757 -5 c 4
 767 2 776 12 783 24 c 4
 788 32 793 44 795 56 c 5
 777 68 761 75 749 80 c 4
 739 82 729 84 719 84 c 4x9fe0
289 58 m 4x3fe0
 324 58 354 69 379 91 c 4
 404 113 416 139 416 169 c 6
 416 267 l 5
 205 267 l 6
 186 267 169 260 156 248 c 4
 144 235 137 218 137 198 c 4
 137 160 151 126 181 100 c 4
 211 72 247 58 289 58 c 4x3fe0
277 322 m 5
 416 322 l 5
 416 518 l 5
 277 518 l 5
 277 322 l 5
595 322 m 5
 639 322 680 313 720 291 c 4
 764 267 798 232 822 190 c 4
 840 161 852 129 852 98 c 5
 852 82 l 5
 874 68 888 59 896 54 c 4
 918 41 938 33 955 33 c 4
 984 33 1009 40 1032 60 c 4
 1054 78 1069 105 1076 136 c 4
 1080 150 1082 166 1082 183 c 4
 1082 199 1079 213 1077 230 c 4
 1072 258 1063 289 1049 326 c 4
 1007 435 943 533 861 619 c 5
 901 656 l 5
 986 565 1052 462 1099 346 c 4
 1115 306 1124 272 1130 240 c 4
 1134 221 1135 201 1135 183 c 4
 1135 163 1134 142 1129 123 c 4
 1119 81 1098 45 1068 19 c 4
 1034 -12 994 -23 951 -23 c 4x5fe0
 926 -23 898 -12 869 6 c 4
 864 10 854 15 843 22 c 5
 838 14 837 4 833 -3 c 4
 821 -23 807 -38 789 -50 c 4
 771 -64 750 -73 728 -75 c 4
 724 -75 720 -76 716 -76 c 4x9fe0
 697 -76 678 -71 662 -63 c 4
 639 -51 622 -34 612 -12 c 4
 605 2 602 16 602 30 c 4
 602 44 605 59 612 73 c 4
 624 101 643 118 672 130 c 4
 686 136 701 140 717 140 c 4
 733 140 748 137 764 132 c 4
 772 130 781 126 793 121 c 5
 788 137 782 150 775 164 c 4
 757 198 730 225 695 243 c 4
 664 259 631 267 596 267 c 6
 486 267 l 5
 486 169 l 6
 486 122 465 83 427 51 c 4
 389 19 343 2 289 2 c 4
 228 2 176 22 132 60 c 4
 88 98 67 144 67 198 c 4
 67 233 80 261 108 285 c 4
 134 309 167 322 205 322 c 5
 205 574 l 5
 596 574 l 5
 596 518 l 5
 486 518 l 5
 486 322 l 5
 595 322 l 5
EndSplineSet
Validated: 1
EndChar

StartChar: uni090D
Encoding: 2317 2317 8
Width: 835
VWidth: 0
Flags: W
HStem: 2 76<124.5 711.5>
VStem: 44.5 80<78 437> 711.5 79<78 437>
LayerCount: 2
Fore
SplineSet
790.5 437 m 1
 790.5 2 l 2
 44.5 2 l 2
 44.5 437 l 1
 124.5 437 l 1
 124.5 78 l 2
 711.5 78 l 2
 711.5 437 l 1
 790.5 437 l 1
EndSplineSet
Validated: 1
Comment: "Glyph representing Tamil Oruma"
EndChar

StartChar: uni090E
Encoding: 2318 2318 9
Width: 1383
VWidth: 0
Flags: W
HStem: -85 69<346.449 553.514> 265 68<1012.83 1122.83> 410 60<760.271 864.024> 738 69<965.5 1111.12>
VStem: 72.5 71<216.556 445.797> 667.5 68<83.4682 383.874> 1239.5 71<429.25 547.997>
LayerCount: 2
Fore
SplineSet
785.5 405 m 0
 769.5 398 756.5 388 749.5 369 c 2
 741.5 353 735.5 333 735.5 309 c 0
 735.5 297 739.5 271 739.5 234 c 2
 741.5 186 l 0
 741.5 173 741.5 164 740.5 152 c 0
 732.5 78 693.5 16 631.5 -30 c 0
 573.5 -73 506.5 -85 433.5 -85 c 2
 427.5 -85 l 2
 360.5 -85 301.5 -55 243.5 -13 c 0
 185.5 31 147.5 84 116.5 150 c 0
 87.5 214 72.5 280 72.5 347 c 0
 72.5 382 77.5 414 84.5 450 c 2
 85.5 459 l 1
 93.5 457 l 1
 146.5 445 l 1
 153.5 441 l 1
 152.5 434 l 2
 145.5 403 143.5 372 143.5 342 c 0
 143.5 286 156.5 232 180.5 179 c 0
 208.5 124 242.5 79 285.5 44 c 0
 333.5 7 381.5 -16 434.5 -16 c 0
 494.5 -16 547.5 -4 591.5 27 c 0
 639.5 62 665.5 104 672.5 159 c 0
 673.5 167 672.5 181 672.5 197 c 2
 672.5 231 l 2
 672.5 267 667.5 293 667.5 309 c 0
 667.5 344 672.5 374 685.5 398 c 0
 702.5 432 727.5 457 757.5 470 c 2
 758.5 470 l 2
 772.5 476 789.5 477 805.5 477 c 0
 821.5 477 840.5 475 854.5 470 c 0
 855.5 470 854.5 470 855.5 470 c 2
 859.5 470 l 1
 861.5 470 l 2
 889.5 458 921.5 435 957.5 399 c 0
 992.5 368 1018.5 349 1037.5 342 c 0
 1051.5 336 1067.5 333 1081.5 333 c 0
 1093.5 333 1103.5 336 1115.5 338 c 0
 1141.5 346 1165.5 360 1185.5 383 c 0
 1227.5 426 1239.5 475 1239.5 539 c 0
 1239.5 595 1209.5 646 1161.5 684 c 2
 1160.5 684 l 1
 1136.5 707 1108.5 719 1073.5 729 c 0
 1050.5 735 1027.5 738 1005.5 738 c 0
 991.5 738 981.5 739 973.5 738 c 2
 965.5 737 l 1
 962.5 745 l 1
 951.5 794 l 1
 950.5 805 l 1
 960.5 806 l 2
 974.5 807 989.5 807 1005.5 807 c 2
 1023.5 807 l 2
 1045.5 807 1066.5 806 1089.5 799 c 0
 1131.5 786 1173.5 767 1207.5 738 c 0
 1269.5 688 1302.5 622 1309.5 548 c 1
 1309.5 548 1310.5 544 1310.5 543 c 2
 1310.5 542 l 1
 1310.5 462 1292.5 391 1236.5 333 c 0
 1206.5 303 1172.5 283 1135.5 273 c 0
 1116.5 267 1096.5 265 1077.5 265 c 0
 1054.5 265 1031.5 269 1009.5 277 c 0
 981.5 289 950.5 312 909.5 348 c 2
 878.5 379 853.5 398 834.5 404 c 0
 822.5 409 813.5 410 806.5 410 c 0
 799.5 410 792.5 407 785.5 405 c 0
1136.5 275 m 1
 1133.5 272 l 1
 1106.5 253 l 1
 1121.5 282 l 1
 1122.5 284 l 1
 1124.5 290 l 1
 1129.5 290 l 1
 1131.5 290 l 1
 1160.5 290 l 1
 1136.5 275 l 1
EndSplineSet
Validated: 37
Comment: "Glyph representing Makani"
EndChar

StartChar: uni090F
Encoding: 2319 2319 10
Width: 1348
VWidth: 0
Flags: W
HStem: -327 77<938.739 1122.91> 10 74<266.201 503.482> 170 74<1100.84 1131.36> 638 73<744.136 927.524>
VStem: 67 74<213.254 613.906> 594 74<158.087 566.428> 778 73<-156.181 28.6687> 1036 72<388.814 547.847> 1207 74<-147.267 68.8496>
LayerCount: 2
Fore
SplineSet
837 711 m 0
 893 711 944 694 992 663 c 0
 1050 630 1085 589 1100 539 c 0
 1106 518 1108 498 1108 476 c 0
 1108 442 1101 404 1084 365 c 0
 1067 328 1038 280 991 217 c 0
 895 92 851 0 851 -56 c 0
 851 -132 881 -190 931 -223 c 0
 956 -240 992 -250 1030 -250 c 0
 1068 -250 1098 -243 1121 -229 c 0
 1153 -209 1174 -178 1191 -133 c 0
 1203 -101 1207 -72 1207 -41 c 0
 1207 -29 1205 -19 1204 -7 c 0
 1199 34 1186 76 1164 110 c 0
 1141 144 1117 165 1090 170 c 1
 1102 244 l 1
 1152 235 1193 203 1226 149 c 0
 1254 104 1272 56 1278 4 c 0
 1279 -11 1281 -29 1281 -44 c 0
 1281 -84 1276 -122 1263 -159 c 0
 1243 -217 1209 -259 1164 -290 c 0
 1126 -317 1077 -327 1025 -327 c 0
 975 -327 930 -310 890 -285 c 0
 818 -238 778 -164 778 -60 c 0
 778 14 827 119 931 259 c 0
 974 317 1003 364 1018 397 c 0
 1031 424 1036 450 1036 473 c 0
 1036 488 1034 503 1030 517 c 0
 1019 549 993 578 955 601 c 0
 917 624 877 638 834 638 c 0
 775 638 723 615 685 561 c 0
 667 534 663 483 663 404 c 0
 663 384 663 363 663 340 c 0
 663 296 668 259 668 232 c 0
 668 221 668 212 667 205 c 0
 661 153 639 115 605 84 c 0
 547 34 474 10 384 10 c 0
 294 10 224 34 166 84 c 0
 102 138 67 223 67 340 c 0
 67 377 71 425 71 484 c 0
 71 555 79 597 80 615 c 1
 154 615 l 1
 154 592 148 548 148 478 c 0
 148 420 141 375 141 342 c 0
 141 246 169 179 216 139 c 0
 257 102 313 84 384 84 c 0
 455 84 513 102 556 139 c 0
 576 156 587 183 592 215 c 0
 593 222 594 231 594 240 c 0
 594 263 591 295 591 333 c 0
 591 346 591 359 591 372 c 0
 591 484 592 559 624 602 c 0
 682 678 751 711 837 711 c 0
EndSplineSet
Validated: 1
Comment: "Glyph representing Maknai"
EndChar

StartChar: uni0910
Encoding: 2320 2320 11
Width: 792
VWidth: 0
Flags: W
HStem: -158 70<155.637 284.979 538.764 656.141> 364 72<246.138 348.501> 665 67<270.137 360.21 426 524.972>
VStem: 41 73<-39.2468 125.21> 137 71<475.61 612.562> 377 70<464.156 657.208> 612 71<428.43 589.039>
LayerCount: 2
Fore
SplineSet
377 732 m 0
 555 732 683 658 683 505 c 0
 683 349 541 289 368 247 c 1
 214 202 114 164 114 48 c 0
 114 -9 145 -88 204 -88 c 0
 317 -88 346 8 378 74 c 1
 391 74 423 75 434 75 c 1
 446 46 523 -87 589 -88 c 0
 766 -92 694 191 582 213 c 1
 637 260 l 1
 788 188 825 -161 588 -158 c 0
 494 -157 435 -65 403 -20 c 1
 403 -20 334 -158 204 -158 c 0
 105 -158 41 -42 41 48 c 0
 41 201 165 262 350 313 c 1
 351 313 l 1
 496 347 612 387 612 505 c 0
 612 597 552 665 426 665 c 1
 440 620 447 579 447 528 c 0
 447 436 382 364 292 364 c 0
 211 364 137 452 137 539 c 0
 137 626 180 680 245 709 c 0
 279 723 324 732 377 732 c 0
272 644 m 0
 232 626 208 596 208 543 c 0
 208 492 247 436 295 436 c 0
 347 436 377 480 377 534 c 0
 377 582 372 617 353 662 c 1
 320 662 292 653 272 644 c 0
EndSplineSet
Validated: 33
Comment: "Glyph representing Ponnilakkam Iruma"
EndChar

StartChar: uni0911
Encoding: 2321 2321 12
Width: 1774
VWidth: 0
Flags: W
HStem: -213.4 65.2002<949.633 1173.03> 0.200195 64<867.671 1316.59 1424.2 1639.2> 122.6 60.4004<260.274 375.54> 133.4 62.7998<616.957 896.4> 387.8 64<260.17 377.573> 627.8 61.6006<253.182 455.78 1000.21 1095.72 1236.42 1332.58>
VStem: 57.5996 62.8008<291.666 493.738> 162 64<243.538 350.427> 416.4 65.1992<223.22 349.421> 589.2 78.3994<258.798 493.825> 790.8 76<-81.4398 0.0908525> 896.4 74.7998<196.2 598.333> 1120.8 90.4004<133.4 601.062> 1362 74.7998<65.4012 598.337> 1639.2 77.2002<64.2002 678.6>
LayerCount: 2
Fore
SplineSet
312.200195312 183 m 0xeffe
 340.844726562 183 367.08984375 194.412109375 386.565429688 215.033203125 c 2
 386.663085938 215.13671875 l 1
 386.766601562 215.234375 l 2
 407.463867188 234.782226562 416.400390625 255.971679688 416.400390625 284.799804688 c 0
 416.400390625 311.245117188 407.249023438 337.48046875 386.665039062 358.064453125 c 0
 367.256835938 377.47265625 340.99609375 387.799804688 312.200195312 387.799804688 c 0
 287.370117188 387.799804688 269.735351562 377.942382812 253.704101562 358.474609375 c 0
 237.518554688 337.666015625 226 310.932617188 226 284.799804688 c 0
 226 255.763671875 233.969726562 232.04296875 253.434570312 211.432617188 c 2
 253.541015625 211.3203125 l 1
 253.640625 211.201171875 l 2
 270.772460938 190.643554688 289.516601562 183 312.200195312 183 c 0xeffe
1049 -148.200195312 m 0
 1110.76171875 -148.200195312 1162.49023438 -136.38671875 1210.796875 -106.931640625 c 0
 1256.91113281 -78.8125 1292.37402344 -42.712890625 1316.59082031 0.2001953125 c 1
 889.400390625 0.2001953125 l 2
 882.182617188 0.2001953125 879.186523438 -1.28515625 873.735351562 -6.7353515625 c 0
 869.482421875 -10.9892578125 866.799804688 -15.7666015625 866.799804688 -21.2001953125 c 0
 866.799804688 -57.7724609375 882.176757812 -82.3916015625 919.875976562 -108.309570312 c 0
 957.53125 -135.374023438 998.260742188 -148.200195312 1049 -148.200195312 c 0
523.200195312 138.400390625 m 1
 523.200195312 178 l 1
 523.200195312 179.78515625 l 1
 524.330078125 181.166015625 l 2
 545.600585938 207.1640625 561.98046875 235.244140625 572.586914062 272.953125 c 2
 572.625976562 273.090820312 l 1
 572.671875 273.224609375 l 2
 585.622070312 310.901367188 589.200195312 348.654296875 589.200195312 392.799804688 c 0
 589.200195312 458.831054688 566.998046875 513.708984375 521.063476562 558.463867188 c 0
 476.271484375 604.435546875 421.403320312 627.799804688 353 627.799804688 c 0
 287.083984375 627.799804688 234.534179688 604.462890625 188.53515625 558.46484375 c 0
 143.813476562 513.7421875 120.400390625 458.75 120.400390625 392.799804688 c 0
 120.400390625 363.624023438 127.432617188 334.124023438 138.115234375 303.264648438 c 0
 145.935546875 281.541992188 156.515625 260.557617188 168.6796875 243.045898438 c 1
 167.611328125 247.530273438 167.219726562 249.541015625 166.830078125 253.046875 c 2
 166.830078125 253.046875 162 283.131835938 162 284.799804688 c 0
 162 330.400390625 178.1796875 370.216796875 208.95703125 402.225585938 c 0
 237.129882812 432.846679688 270.953125 451.799804688 312.200195312 451.799804688 c 0
 357.745117188 451.799804688 400.04296875 435.666015625 430.936523438 403.536132812 c 0
 462.942382812 372.760742188 481.599609375 330.544921875 481.599609375 284.799804688 c 0
 481.599609375 238.938476562 462.830078125 201.559570312 430.935546875 169.665039062 c 0
 399.920898438 138.649414062 357.76953125 122.599609375 312.200195312 122.599609375 c 0xeffe
 241.37109375 122.599609375 182.200195312 147.270507812 132.161132812 200.970703125 c 0
 82.08203125 253.4921875 57.599609375 319.676757812 57.599609375 392.799804688 c 0
 57.599609375 474.397460938 85.755859375 545.426757812 144.264648438 603.935546875 c 0
 202.760742188 662.431640625 271.438476562 689.400390625 353 689.400390625 c 0
 439.271484375 689.400390625 512.711914062 662.520507812 573.663085938 604.006835938 c 0
 634.487304688 545.615234375 667.599609375 474.625 667.599609375 392.799804688 c 0
 667.599609375 358.647460938 661.515625 319.848632812 653.064453125 286.04296875 c 0
 645.221679688 251.310546875 631.857421875 224.142578125 616.95703125 196.200195312 c 1
 896.400390625 196.200195312 l 1
 896.400390625 538 l 2
 896.400390625 578.680664062 908.931640625 613.801757812 939.865234375 644.735351562 c 0
 970.771484375 675.642578125 1007.02148438 689.400390625 1047.79980469 689.400390625 c 0
 1069.38964844 689.400390625 1089.49414062 681.749023438 1110.08789062 670.846679688 c 0
 1130.50878906 660.635742188 1149.66992188 646.3046875 1165.40039062 627.56640625 c 1
 1182.23144531 647.6171875 1200.2109375 660.595703125 1220.76367188 670.872070312 c 0
 1242.51171875 681.74609375 1261.41503906 689.400390625 1284.20019531 689.400390625 c 0
 1324.94921875 689.400390625 1362.38867188 675.682617188 1393.33496094 644.735351562 c 0
 1424.26269531 613.80859375 1436.79980469 578.68359375 1436.79980469 538 c 2
 1436.79980469 138.400390625 l 2
 1436.79980469 112.315429688 1431.31738281 87.6689453125 1424.1953125 64.2001953125 c 1
 1639.20019531 64.2001953125 l 1
 1639.20019531 673.599609375 l 1
 1639.20019531 678.599609375 l 1
 1644.20019531 678.599609375 l 1
 1711.40039062 678.599609375 l 1
 1716.40039062 678.599609375 l 1
 1716.40039062 673.599609375 l 1
 1716.40039062 5.2001953125 l 1
 1716.40039062 0.2001953125 l 1
 1711.40039062 0.2001953125 l 1
 1394.15722656 0.2001953125 l 1
 1363.0625 -64.091796875 1319.10253906 -114.330078125 1256.85839844 -152.635742188 c 0
 1196.19140625 -191.461914062 1126.73730469 -213.400390625 1049 -213.400390625 c 0
 978.5390625 -213.400390625 917.321289062 -195.120117188 867.124023438 -155.94140625 c 0
 817.236328125 -117.004882812 790.799804688 -74.6787109375 790.799804688 -21.2001953125 c 0
 790.799804688 4.2802734375 801.250976562 23.7705078125 818.797851562 40.064453125 c 0
 836.747070312 56.7314453125 860.961914062 64.2001953125 889.400390625 64.2001953125 c 2
 1348.93164062 64.2001953125 l 1
 1356.89257812 89.8671875 1362 112.565429688 1362 138.400390625 c 2
 1362 538 l 2
 1362 562.03125 1354.03710938 582.4296875 1339.28222656 599.456054688 c 0
 1323.02734375 616.87109375 1306.28808594 627.799804688 1284.20019531 627.799804688 c 0
 1264.38574219 627.799804688 1247.77441406 618.0703125 1232.60058594 601.73046875 c 0
 1216.99804688 586.126953125 1211.20019531 563.775390625 1211.20019531 538 c 2
 1211.20019531 138.400390625 l 1
 1211.20019531 133.400390625 l 1
 1206.20019531 133.400390625 l 1
 1125.79980469 133.400390625 l 1
 1120.79980469 133.400390625 l 1
 1120.79980469 138.400390625 l 1
 1120.79980469 538 l 2
 1120.79980469 563.541992188 1113.8125 586.208007812 1099.3359375 601.797851562 c 0
 1084.35449219 617.931640625 1066.36816406 627.799804688 1047.79980469 627.799804688 c 0
 1025.72949219 627.799804688 1010.28613281 616.993164062 993.91796875 599.455078125 c 0
 979.180664062 582.451171875 971.200195312 562.009765625 971.200195312 538 c 2
 971.200195312 138.400390625 l 1
 971.200195312 133.400390625 l 1
 966.200195312 133.400390625 l 1
 528.200195312 133.400390625 l 1
 523.200195312 133.400390625 l 1xdffe
 523.200195312 138.400390625 l 1
EndSplineSet
Validated: 1
Comment: "Glyph representing Ponnilakkam Araikkal"
EndChar

StartChar: uni0912
Encoding: 2322 2322 13
Width: 1108
VWidth: 0
Flags: HW
HStem: -53 72<744.081 863.71> 261 72<444.421 578.723> 463 57<178 334 406 622> 795 60<406 575.135>
VStem: 106 72<-53 463> 334 72<-53 224.552 277 463> 942 60<129.047 456.154>
LayerCount: 2
Fore
SplineSet
518.799804688 346 m 4
 485.799804688 346 455 337.200195312 430.799804688 319.599609375 c 4
 406.599609375 300.900390625 391.200195312 278.900390625 391.200195312 253.599609375 c 5
 391.200195312 0.599609375 l 5
 312 0.599609375 l 5
 312 568.200195312 l 5
 140.400390625 568.200195312 l 5
 140.400390625 0.599609375 l 5
 61.2001953125 0.599609375 l 5
 61.2001953125 630.900390625 l 5
 628.799804688 630.900390625 l 5
 628.799804688 568.200195312 l 5
 391.200195312 568.200195312 l 5
 391.200195312 363.599609375 l 5
 402.200195312 383.400390625 418.700195312 396.599609375 439.599609375 408.700195312 c 4
 460.5 419.700195312 486.900390625 425.200195312 518.799804688 425.200195312 c 4
 562.799804688 425.200195312 601.299804688 407.599609375 633.200195312 370.200195312 c 4
 659.599609375 341.599609375 673.900390625 306.400390625 684.900390625 260.200195312 c 4
 697 206.299804688 714.599609375 162.299804688 738.799804688 129.299804688 c 4
 764.099609375 97.400390625 791.599609375 79.7998046875 823.5 79.7998046875 c 4
 875.200195312 79.7998046875 912.599609375 109.5 939 161.200195312 c 4
 966.5 214 980.799804688 280 980.799804688 363.599609375 c 4
 980.799804688 535.200195312 934.599609375 673.799804688 844.400390625 778.299804688 c 5
 844.400390625 781.599609375 l 5
 754.200195312 885 518.799804688 933.400390625 391.200195312 933.400390625 c 5
 391.200195312 999.400390625 l 5
 535.299804688 999.400390625 790.5 954.299804688 890.599609375 835.5 c 4
 995.099609375 714.5 1046.79980469 557.200195312 1046.79980469 363.599609375 c 4
 1046.79980469 265.700195312 1030.29980469 186.5 997.299804688 122.700195312 c 4
 958.799804688 43.5 897.200195312 0.599609375 824.599609375 0.599609375 c 5
 772.900390625 0.599609375 728.900390625 24.7998046875 688.200195312 78.7001953125 c 4
 656.299804688 119.400390625 634.299804688 175.5 621.099609375 241.5 c 4
 613.400390625 273.400390625 602.400390625 298.700195312 587 316.299804688 c 4
 569.400390625 336.099609375 544.099609375 346 518.799804688 346 c 4
EndSplineSet
Validated: 1
Comment: "Glyph representing Ponnilakkam Mumma"
EndChar

StartChar: uni0913
Encoding: 2323 2323 14
Width: 1512
VWidth: 0
Flags: HW
HStem: -203 49<575.731 710.713 1031.84 1162.01> 313 53<1040.51 1094.91> 456 64<443.544 513 521 571.215>
VStem: 345 63<378 423.554> 478 50<-101.985 47.3555> 621 51<223.877 399.548> 823 65<17.0728 81> 1239 50<-62.4662 148.915>
LayerCount: 2
Fore
SplineSet
515 425.599609375 m 6
 456.200195312 425.599609375 409.400390625 399.200195312 389 363.200195312 c 5
 389 567.200195312 l 5
 624.200195312 567.200195312 l 5
 624.200195312 629.599609375 l 5
 63.7998046875 629.599609375 l 5
 63.7998046875 5.599609375 l 5
 140.599609375 5.599609375 l 5
 140.599609375 567.200195312 l 5
 313.400390625 567.200195312 l 5
 313.400390625 5.599609375 l 5
 389 5.599609375 l 5
 389 255.200195312 l 6
 389 308 457.400390625 348.799804688 515 348.799804688 c 6
 524.599609375 348.799804688 l 6
 577.400390625 348.799804688 620.599609375 291.200195312 635 240.799804688 c 4
 641 220.400390625 644.599609375 200 644.599609375 179.599609375 c 4
 644.599609375 134 632.599609375 95.599609375 608.599609375 51.2001953125 c 5
 608.599609375 5.599609375 473 -95.2001953125 473 -233.200195312 c 4
 473 -338.799804688 531.799804688 -442 671 -442 c 4
 867.799804688 -442 927.799804688 -194.799804688 927.799804688 -194.799804688 c 5
 927.799804688 -194.799804688 1058.59960938 -445.599609375 1203.79980469 -445.599609375 c 4
 1388.59960938 -445.599609375 1446.20019531 -312.400390625 1446.20019531 -124 c 4
 1446.20019531 47.599609375 1281.79980469 231.200195312 1149.79980469 240.799804688 c 5
 1136.59960938 177.200195312 l 5
 1238.59960938 176 1386.20019531 9.2001953125 1386.20019531 -121.599609375 c 4
 1386.20019531 -311.200195312 1302.20019531 -382 1201.40039062 -382 c 5
 1129.40039062 -382 992.599609375 -238 965 -101.200195312 c 5
 887 -101.200195312 l 5
 863 -238 788.599609375 -383.200195312 671 -383.200195312 c 4
 572.599609375 -383.200195312 533 -293.200195312 533 -233.200195312 c 4
 533 -139.599609375 643.400390625 -16 660.200195312 8 c 4
 691.400390625 63.2001953125 705.799804688 111.200195312 705.799804688 177.200195312 c 4
 705.799804688 208.400390625 701 238.400390625 692.599609375 267.200195312 c 4
 672.200195312 339.200195312 608.599609375 425.599609375 529.400390625 425.599609375 c 6
 515 425.599609375 l 6
EndSplineSet
Validated: 9
Comment: "Glyph representing Ponnilakkam Mummakani"
EndChar

StartChar: uni0914
Encoding: 2324 2324 15
Width: 1238
VWidth: 0
Flags: W
HStem: -76 55<845.798 972.905> -47 63<219.835 362.699> 251 65<161.931 201 269 429 497 647.224> 536 63<269 429 497 622> 737 57<546 679.172>
VStem: 72 70<99.6814 231.702> 201 68<316 536> 429 68<76.7598 251 316 536> 1080 56<122.595 410.761>
LayerCount: 2
Fore
SplineSet
269 316 m 1x3f80
 429 316 l 1
 429 536 l 1
 269 536 l 1
 269 316 l 1x3f80
285 16 m 0x7f80
 357.375 16 429 71.4423828125 429 142 c 2
 429 251 l 1
 191 251 l 2
 171.125976562 251 142 207.455078125 142 174 c 0
 142 101.708007812 209.532226562 16 285 16 c 0x7f80
546 794 m 1
 758 784 1136 641 1136 287 c 0
 1136 194.7265625 1113.94140625 -76 902 -76 c 2
 900 -76 l 2xbf80
 786.905273438 -76 720.486328125 40.8076171875 696 144 c 0
 685.8046875 194.975585938 648.458007812 251 592 251 c 2
 497 251 l 1
 497 142 l 2
 497 25.6728515625 402.798828125 -47 285 -47 c 0x7f80
 166.331054688 -47 72 58.5126953125 72 174 c 0
 72 236.485351562 135.712890625 316 201 316 c 1
 201 599 l 1
 622 599 l 1
 622 536 l 1
 497 536 l 1
 497 316 l 1
 592 316 l 2
 684.403320312 316 738.712890625 239.276367188 760 158 c 0
 777.307617188 87.3291015625 825.8125 -21 900 -21 c 0xbf80
 1074.62988281 -21 1080 237.879882812 1080 287 c 0
 1080 572 778 735 546 737 c 1
 546 794 l 1
EndSplineSet
Validated: 1
Comment: "Glyph representing Ponnilakkam Naluma"
EndChar

StartChar: uni0915
Encoding: 2325 2325 16
Width: 1094
VWidth: 0
Flags: W
HStem: 1 76<432.962 966> 319 76<142.396 212.033> 509 75<169.222 208.027> 695 74<262.507 457.771>
VStem: 54 78<405.272 504.118> 219 76<399.945 500.367> 338 76<94.5029 216.378> 966 74<77 468>
LayerCount: 2
Fore
SplineSet
338 147 m 0
 338 212 368 258 410 302 c 0
 424 316 491 373 499 381 c 0
 548 429 567 452 567 531 c 0
 567 628 456 695 355 695 c 0
 318 695 283 685 248 665 c 0
 216 647 188 618 168 584 c 1
 183 584 l 2
 244 584 295 519 295 455 c 0
 295 378 255 319 177 319 c 0
 99 319 54 390 54 468 c 0
 54 499 60 520 67 545 c 0
 93 629 142 689 210 729 c 0
 254 755 305 769 359 769 c 0
 508 769 626 675 643 541 c 0
 655 440 610 381 551 327 c 0
 539 317 478 265 465 249 c 2
 464 249 l 2
 430 215 414 189 414 147 c 0
 414 109 435 87 467 80 c 0
 477 78 491 77 511 77 c 2
 966 77 l 1
 966 468 l 1
 1040 468 l 1
 1040 1 l 1
 511 1 l 2
 486 1 465 3 451 7 c 0
 385 19 338 71 338 147 c 0
180 395 m 0
 210 395 219 422 219 452 c 0
 219 480 201 509 175 509 c 1
 143 509 130 484 132 447 c 1
 133 423 151 395 180 395 c 0
EndSplineSet
Validated: 37
Comment: "Glyph representing Ponnilakkam Kal"
EndChar

StartChar: uni0916
Encoding: 2326 2326 17
Width: 1024
VWidth: 0
Flags: W
HStem: 291 67<367.718 499.152> 589 67<369.456 491.213>
VStem: 62 67<-251 -94.7162> 257 67<406.242 528.26> 533 69<393.789 546.993> 895 67<359.037 578.339>
LayerCount: 2
Fore
SplineSet
62 -251 m 5
 62 -63.7548828125 109.434570312 28.4453125 228 101 c 4
 345.555664062 172.373046875 674.603515625 162.474609375 776 239 c 4
 827.819335938 280.455078125 895 348.625976562 895 468 c 6
 895 473 l 6
 895 633.780273438 764.376953125 754 598 754 c 4
 491.541992188 754 395.6875 707.375 357 630 c 5
 380 650 408 656 430 656 c 4
 520.4921875 656 602 574.067382812 602 481 c 6
 602 479 l 6
 602 366.670898438 538.89453125 291 431 291 c 4
 313.803710938 291 257 381.412109375 257 508 c 4
 257 947.904296875 962 895.255859375 962 473 c 6
 962 468 l 6
 962 322.775390625 886.744140625 236.936523438 816 187 c 4
 702.875976562 104.553710938 393.09375 128.059570312 260 44 c 5
 165.916992188 -3.041015625 129 -114.8203125 129 -251 c 5
 62 -251 l 5
432 589 m 6
 431 589 l 6
 377.668945312 589 324 536.78125 324 485 c 4
 324 412.46875 365.604492188 358 431 358 c 4
 503.693359375 358 533 404.751953125 533 481 c 4
 533 539.028320312 488.446289062 589 432 589 c 6
EndSplineSet
Validated: 33
Comment: "Glyph representing Ponnilakkam Arai"
EndChar

StartChar: uni0917
Encoding: 2327 2327 18
Width: 1070
VWidth: 0
Flags: W
HStem: -199 74<461.859 743.324> 330 73<745.481 863.825> 505 74<472.12 602.251> 808 73<418.343 657.373>
VStem: 54 73<192.355 478.542> 331 71<299.139 351.437> 942 74<57.1261 247.297>
LayerCount: 2
Fore
SplineSet
747 399 m 1
 761 403 776 403 789 403 c 0
 808 403 828 401 848 394 c 0
 886 383 919 364 947 334 c 0
 973 306 990 274 1003 237 c 2
 1004 235 l 2
 1011 207 1016 180 1016 150 c 0
 1016 121 1011 92 1004 63 c 2
 1003 63 l 1
 985 7 954 -42 911 -84 c 0
 863 -131 802 -165 731 -183 c 0
 694 -193 653 -199 611 -199 c 0
 583 -199 556 -196 528 -192 c 0
 438 -180 355 -149 282 -99 c 0
 204 -46 145 21 107 101 c 0
 72 174 54 250 54 328 c 0
 54 394 66 462 92 532 c 0
 123 623 173 697 237 757 c 0
 309 822 390 863 480 876 c 0
 493 878 505 881 519 881 c 0
 611 881 699 858 776 802 c 2
 788 793 l 1
 780 783 l 1
 756 747 l 1
 747 735 l 1
 735 743 l 2
 676 785 612 808 542 808 c 0
 525 808 509 806 491 804 c 0
 415 794 346 761 285 703 c 0
 231 653 188 588 159 509 c 0
 137 447 127 387 127 329 c 0
 127 262 142 197 173 133 c 0
 207 63 256 8 323 -38 c 0
 385 -81 457 -108 539 -120 c 0
 563 -124 585 -125 609 -125 c 0
 645 -125 679 -121 711 -113 c 0
 770 -97 821 -70 861 -32 c 0
 896 0 919 41 933 83 c 0
 939 108 942 128 942 150 c 0
 942 172 939 193 933 215 c 0
 925 241 912 264 894 283 c 0
 875 303 852 317 828 324 c 0
 816 328 805 330 793 330 c 0
 774 330 752 324 735 316 c 1
 730 303 728 296 722 286 c 0
 704 256 678 229 647 211 c 0
 633 203 618 208 608 214 c 2
 607 214 l 1
 606 215 l 2
 594 225 590 239 594 253 c 0
 608 300 637 338 674 364 c 1
 674 371 673 377 673 387 c 0
 673 411 668 431 655 449 c 0
 642 469 627 483 605 493 c 2
 603 493 l 1
 587 501 572 505 554 505 c 0
 544 505 535 504 523 502 c 0
 493 496 469 485 446 462 c 0
 412 430 398 394 398 352 c 0
 398 340 400 328 402 315 c 2
 404 300 l 1
 390 298 l 1
 348 289 l 1
 333 286 l 1
 331 300 l 2
 327 318 325 336 325 353 c 0
 325 413 348 467 395 514 c 0
 427 544 464 564 507 574 c 0
 521 576 535 579 549 579 c 0
 579 579 608 571 636 559 c 2
 667 543 695 520 714 490 c 0
 731 464 745 433 747 399 c 1
EndSplineSet
Validated: 37
EndChar

StartChar: uni0918
Encoding: 2328 2328 19
Width: 1303
VWidth: 0
Flags: W
HStem: -104 59<177.206 361.929> -64 59<836.071 1055.45> 66 72<268.525 372.342> 66 56<700.02 854.383> 338 58<767.5 910.5 982.5 1114.54> 352 58<265.078 375.803> 596 56<767.5 910.5 982.5 1183.5> 633 58<277.696 482.705>
VStem: 63.5 56<249.111 468.237> 71.5 74<-270.785 -136.799> 177.5 58<177.414 322.095> 406.5 57<174.145 320.331> 553.5 72<192.499 318.173> 694.5 73<489 596> 910.5 72<173.63 338 396 596> 1168.5 71<118.46 287.225>
LayerCount: 2
Fore
SplineSet
767.5 596 m 1x0a3f
 767.5 396 l 1
 910.5 396 l 1
 910.5 596 l 1
 767.5 596 l 1x0a3f
320.5 138 m 0x243f
 345.5 138 365.5 148 381.5 170 c 0
 397.5 192 406.5 221 406.5 253 c 0
 406.5 281 397.5 305 381.5 324 c 0
 365.5 343 345.5 352 320.5 352 c 0
 295.5 352 276.5 344 259.5 324 c 0
 243.5 305 235.5 281 235.5 253 c 0
 235.5 221 243.5 192 259.5 170 c 0
 276.5 148 295.5 138 320.5 138 c 0x243f
782.5 122 m 0x183f
 817.5 122 847.5 136 873.5 158 c 0
 899.5 180 910.5 207 910.5 238 c 2
 910.5 338 l 1
 694.5 338 l 2
 674.5 338 658.5 330 645.5 318 c 0
 633.5 305 625.5 286 625.5 267 c 0
 625.5 227 640.5 194 670.5 166 c 0
 701.5 138 739.5 122 782.5 122 c 0x183f
694.5 489 m 1
 694.5 652 l 1
 1183.5 652 l 1
 1183.5 596 l 1
 982.5 596 l 1
 982.5 396 l 1
 1039.5 396 l 2
 1095.5 396 1142.5 378 1180.5 344 c 0
 1220.5 310 1239.5 271 1239.5 223 c 0
 1239.5 144 1213.5 75 1161.5 20 c 0
 1109.5 -35 1044.5 -64 968.5 -64 c 2x4abf
 229.5 -104 l 2
 204.5 -104 186.5 -114 170.5 -133 c 0
 153.5 -152 145.5 -174 145.5 -202 c 0
 145.5 -221 148.5 -241 159.5 -259 c 0
 170.5 -276 182.5 -290 201.5 -303 c 1
 159.5 -355 l 1
 133.5 -338 111.5 -316 94.5 -290 c 0
 78.5 -264 71.5 -234 71.5 -202 c 0
 71.5 -159 85.5 -122 116.5 -92 c 0
 146.5 -62 186.5 -45 229.5 -45 c 2x807f
 968.5 -5 l 2
 1023.5 -5 1069.5 17 1109.5 61 c 0
 1149.5 107 1168.5 159 1168.5 223 c 0
 1168.5 254 1155.5 282 1130.5 304 c 0
 1106.5 326 1075.5 338 1039.5 338 c 2
 982.5 338 l 1x487f
 982.5 238 l 2
 982.5 189 963.5 151 923.5 116 c 0
 883.5 82 837.5 66 782.5 66 c 0
 720.5 66 665.5 86 619.5 126 c 0
 575.5 166 553.5 211 553.5 267 c 0
 553.5 302 567.5 330 596.5 356 c 0
 614.5 373 633.5 385 655.5 391 c 1
 655.5 447 627.5 498 585.5 541 c 0
 538.5 588 467.5 633 375.5 633 c 0
 287.5 633 225.5 585 182.5 535 c 0
 140.5 486 119.5 424 119.5 352 c 0
 119.5 316 127.5 281 141.5 249 c 0
 155.5 217 178.5 188 206.5 166 c 1
 196.5 182 188.5 199 184.5 213 c 0
 180.5 227 177.5 241 177.5 253 c 0
 177.5 296 190.5 334 218.5 364 c 0
 246.5 395 280.5 410 320.5 410 c 0
 360.5 410 393.5 395 421.5 364 c 0
 449.5 334 463.5 296 463.5 253 c 0
 463.5 203 447.5 158 413.5 122 c 0x15bf
 379.5 86 339.5 66 291.5 66 c 0
 229.5 66 174.5 95 130.5 151 c 0
 86.5 206 63.5 274 63.5 352 c 0
 63.5 440 89.5 516 141.5 576 c 0
 193.5 637 272.5 691 375.5 691 c 0x25bf
 487.5 691 572.5 638 631.5 582 c 0
 659.5 554 680.5 523 694.5 489 c 1
EndSplineSet
Validated: 1
Comment: "Glyph representing Ponnilakkam - Mukkal"
EndChar

StartChar: uni0919
Encoding: 2329 2329 20
Width: 1244
VWidth: 0
Flags: W
HStem: -152 59<193.437 352.677 520.467 620.469> 121 57<140.751 191 262 407 477 619.187> 379 59<262 392 477.989 693> 513 59<851 1197> 550 58<499.754 598.753> 781 69<444.285 594.333> 794 56<647 801.309>
VStem: 47 73<-22.8475 100.678> 191 71<178 379> 262 72<569.885 724.761> 407 70<-41.5262 121 178 379 632.144 755.401> 622 71<631.747 752.622> 651 71<-59.8697 88.4185> 838 71<635.068 759.702>
LayerCount: 2
Fore
SplineSet
262 178 m 5xe1a4
 407 178 l 5
 407 379 l 5
 262 379 l 5
 262 178 l 5xe1a4
550 608 m 4xed34
 570 608 588 616 600 632 c 4
 613 649 622 668 622 693 c 4
 622 718 613 738 599 754 c 4
 585 770 569 781 550 781 c 4
 531 781 512 770 498 754 c 4
 484 738 477 718 477 693 c 4
 477 668 484 649 498 632 c 4
 512 616 531 608 550 608 c 4xed34
278 -93 m 4
 313 -93 342 -82 368 -60 c 4
 394 -38 407 -10 407 20 c 6
 407 121 l 5
 191 121 l 6xe1a4
 171 121 154 113 141 100 c 4
 128 88 120 70 120 50 c 4
 120 12 135 -23 166 -51 c 4
 196 -79 235 -93 278 -93 c 4
647 794 m 5xe334
 677 766 693 731 693 693 c 4xe334
 693 653 679 622 651 594 c 4xe32c
 623 566 590 550 550 550 c 4
 510 550 478 566 450 594 c 4
 422 622 407 653 407 693 c 4
 407 713 411 734 422 752 c 4
 433 770 447 783 465 794 c 5
 427 787 396 772 371 744 c 4
 346 716 334 685 334 651 c 4
 334 613 349 576 377 536 c 4
 405 496 444 466 494 438 c 5
 693 438 l 5
 693 379 l 5xeb74
 477 379 l 5
 477 178 l 5
 564 178 l 6
 607 178 645 164 676 133 c 4
 706 103 722 63 722 20 c 4
 722 -28 708 -66 680 -100 c 4
 652 -134 618 -152 578 -152 c 4
 567 -152 556 -150 544 -146 c 4
 532 -144 519 -141 506 -137 c 5
 520 -80 l 5
 530 -84 538 -86 549 -90 c 4
 560 -94 567 -93 578 -93 c 4
 597 -93 615 -82 629 -60 c 4
 643 -38 651 -10 651 20 c 4
 651 48 642 73 626 92 c 4
 610 111 589 121 564 121 c 6
 477 121 l 5
 477 20 l 6
 477 -28 459 -66 419 -100 c 4
 379 -134 334 -152 278 -152 c 4
 216 -152 162 -132 116 -92 c 4
 72 -54 47 -5 47 50 c 4
 47 85 62 115 90 140 c 4
 118 165 151 178 191 178 c 5
 191 438 l 5xebac
 392 438 l 5
 350 461 319 492 297 529 c 4
 275 566 262 608 262 651 c 4
 262 706 283 756 326 794 c 4xeb64
 368 834 418 850 477 850 c 4xe564
 501 850 524 850 544 846 c 5
 573 851 612 853 656 853 c 4
 668 853 681 852 693 850 c 6
 699 850 l 6
 742 850 782 844 816 831 c 4
 866 809 898 776 905 733 c 4
 909 721 909 710 909 699 c 4
 909 667 899 636 880 608 c 4xeb74
 873 597 864 586 851 572 c 5
 1197 572 l 5
 1197 513 l 5
 722 513 l 5
 783 580 814 624 816 636 c 5
 830 655 838 675 838 699 c 4
 838 707 837 714 833 724 c 4
 829 748 814 769 785 781 c 4xf52c
 760 791 731 794 699 794 c 6
 693 794 l 6
 689 794 686 794 682 794 c 4
 674 794 665 795 657 795 c 4
 653 795 651 794 647 794 c 5xe334
EndSplineSet
Validated: 1
Comment: "Glyph representing Tamil Kil"
EndChar

StartChar: uni091A
Encoding: 2330 2330 21
Width: 1504
VWidth: 0
Flags: W
HStem: 5 73<170.812 273.796 919 1436> 466 73<274.729 432.365 730.127 887.725>
VStem: 68 74<105.262 237.92> 297 73<101.507 231.498> 542 86<243 348.846> 974 73<211.925 384.086>
LayerCount: 2
Fore
SplineSet
345 539 m 0
 496 539 561 451 584 401 c 1
 610 450 677 537 805 537 c 0
 938 537 1047 439 1047 300 c 0
 1047 194 990 126 919 78 c 1
 1422 78 l 1
 1436 78 l 1
 1436 64 l 1
 1436 20 l 1
 1436 5 l 1
 1422 5 l 1
 752 5 l 1
 738 5 l 1
 738 20 l 1
 738 63 l 1
 738 72 l 1
 747 76 l 2
 777 86 817 100 843 116 c 0
 919 159 974 209 974 298 c 0
 974 396 902 464 806 464 c 0
 712 464 628 377 628 256 c 2
 628 242 l 1
 613 242 l 1
 556 243 l 1
 542 243 l 1
 542 257 l 2
 543 366 454 466 350 466 c 0
 260 466 213 385 177 329 c 1
 239 346 299 320 334 273 c 0
 358 243 370 206 370 168 c 0
 370 88 314 3 223 3 c 0
 131 3 68 86 68 180 c 0
 68 210 70 240 76 270 c 0
 81 294 90 319 102 343 c 0
 139 421 235 539 345 539 c 0
218 261 m 0
 172 261 142 226 142 172 c 0
 142 124 171 83 211 77 c 2
 213 77 217 76 219 76 c 0
 268 76 297 118 297 168 c 0
 297 217 261 261 218 261 c 0
EndSplineSet
Validated: 33
EndChar

StartChar: uni091B
Encoding: 2331 2331 22
Width: 1945
VWidth: 0
Flags: W
HStem: -202.652 59.9258<460.753 699.246> -177.682 58.6768<1258.99 1365.53 1563.03 1816.47> 32.0625 57.4287<374.769 873.867 976.244 1149.78 1224.69 1327.49> 164.4 71.1631<339.944 441.5> 176.885 58.6787<1291.55 1439.14> 456.545 58.6777<335.905 444.91> 704.993 59.9268<699.082 918.814 991.228 1153.53> 719.973 58.6797<317.514 496.346>
VStem: 128.528 57.4277<354.519 569.238> 243.387 59.9268<280.918 422.816> 292.076 72.4141<-64.7642 26.2996> 480.599 57.4297<278.088 420.194> 626.669 72.4131<176.885 580.512> 640.404 58.6777<661.295 704.993> 918.814 72.4131<90.8949 704.993> 1149.78 57.4316<-62.5978 32.0625> 1375.76 58.6787<-107.607 -6.51409> 1524.33 59.9277<-112.647 94.2476>
LayerCount: 2
Fore
SplineSet
391.955078125 235.563476562 m 4x34d3c0
 416.924804688 235.563476562 435.653320312 248.048828125 453.130859375 270.520507812 c 4
 470.609375 294.2421875 480.598632812 322.95703125 480.598632812 355.41796875 c 4
 480.598632812 384.133789062 470.609375 406.60546875 453.130859375 426.580078125 c 4
 435.653320312 445.30859375 416.924804688 456.544921875 391.955078125 456.544921875 c 4
 366.987304688 456.544921875 345.76171875 447.8046875 328.284179688 426.580078125 c 4
 310.8046875 405.357421875 303.313476562 381.63671875 303.313476562 355.41796875 c 4
 303.313476562 322.95703125 310.8046875 294.2421875 328.284179688 270.520507812 c 4
 345.76171875 248.048828125 366.987304688 235.563476562 391.955078125 235.563476562 c 4x34d3c0
1239.67382812 32.0625 m 6
 1207.21386719 32.0625 l 5
 1207.21386719 27.068359375 l 6
 1207.21386719 -14.1318359375 1217.20019531 -50.3369140625 1239.67382812 -77.8056640625 c 4
 1262.14648438 -106.518554688 1292.11035156 -119.004882812 1325.81933594 -119.004882812 c 4x6493c0
 1339.55078125 -119.004882812 1353.28417969 -114.01171875 1363.2734375 -104.022460938 c 4
 1372.01367188 -94.03515625 1375.7578125 -81.548828125 1375.7578125 -67.81640625 c 4
 1375.7578125 -52.833984375 1372.01367188 -36.6044921875 1363.2734375 -19.125 c 4
 1353.28417969 -4.146484375 1342.046875 7.091796875 1328.31542969 17.080078125 c 4
 1310.8359375 27.068359375 1282.12109375 32.0625 1239.67382812 32.0625 c 6
570.487304688 -142.7265625 m 4xa4b3c0
 640.404296875 -142.7265625 699.08203125 -127.744140625 752.766601562 -94.03515625 c 4
 807.69921875 -61.57421875 847.650390625 -19.125 873.8671875 32.0625 c 5
 395.702148438 32.0625 l 6
 388.209960938 32.0625 380.719726562 28.31640625 374.475585938 23.322265625 c 4
 369.482421875 17.080078125 364.490234375 9.58984375 364.490234375 2.0966796875 c 4
 364.490234375 -39.1015625 384.465820312 -71.5625 424.415039062 -100.27734375 c 4
 465.616210938 -128.993164062 515.556640625 -142.7265625 570.487304688 -142.7265625 c 4xa4b3c0
918.814453125 176.884765625 m 5xacb7c0
 918.814453125 704.993164062 l 5
 699.08203125 704.993164062 l 5xaeb7c0
 699.08203125 176.884765625 l 5
 626.668945312 176.884765625 l 5xae9bc0
 626.668945312 470.27734375 l 6
 626.668945312 540.194335938 605.4453125 598.87109375 561.747070312 647.5625 c 4
 516.803710938 695.004882812 465.616210938 719.97265625 405.6875 719.97265625 c 4
 345.76171875 719.97265625 294.57421875 695.004882812 252.125 643.81640625 c 4
 209.678710938 591.379882812 185.956054688 530.205078125 185.956054688 456.544921875 c 4
 185.956054688 420.33984375 193.448242188 384.133789062 209.678710938 351.672851562 c 4
 224.66015625 319.211914062 245.883789062 290.497070312 273.3515625 266.77734375 c 5
 263.362304688 284.254882812 255.87109375 299.237304688 252.125 315.466796875 c 4
 248.380859375 330.44921875 243.38671875 344.181640625 243.38671875 355.41796875 c 4
 243.38671875 401.611328125 259.6171875 437.817382812 288.33203125 469.029296875 c 4
 317.046875 498.994140625 352.00390625 515.22265625 391.955078125 515.22265625 c 4
 431.907226562 515.22265625 465.616210938 498.994140625 494.330078125 469.029296875 c 4
 523.046875 437.817382812 538.028320312 399.115234375 538.028320312 355.41796875 c 4
 538.028320312 302.982421875 520.549804688 256.788085938 485.590820312 220.58203125 c 4
 451.8828125 184.375976562 410.681640625 164.400390625 360.744140625 164.400390625 c 4
 298.319335938 164.400390625 242.139648438 191.866210938 195.944335938 249.297851562 c 4
 149.75 306.728515625 128.528320312 376.641601562 128.528320312 456.544921875 c 4
 128.528320312 545.186523438 155.9921875 620.09375 209.678710938 683.767578125 c 4
 263.362304688 747.440429688 328.284179688 778.65234375 405.6875 778.65234375 c 4x35dbc0
 456.875976562 778.65234375 503.0703125 768.6640625 545.51953125 747.440429688 c 4
 587.966796875 726.216796875 619.178710938 697.5 640.404296875 661.294921875 c 5
 640.404296875 764.919921875 l 5
 1153.52734375 764.919921875 l 5
 1153.52734375 704.993164062 l 5
 991.227539062 704.993164062 l 5
 991.227539062 176.884765625 l 6
 991.227539062 148.170898438 986.232421875 119.455078125 976.244140625 89.4912109375 c 5
 1158.52246094 89.4912109375 l 5
 1171.0078125 123.200195312 1189.734375 149.419921875 1220.94726562 176.884765625 c 4
 1267.13867188 216.836914062 1314.58203125 235.563476562 1364.52148438 235.563476562 c 4x2ed7c0
 1421.95019531 235.563476562 1474.38867188 210.59375 1518.08398438 164.400390625 c 4x34d7c0
 1560.53125 123.200195312 1584.25390625 77.005859375 1584.25390625 28.31640625 c 5
 1584.25390625 -25.369140625 1578.00976562 -72.810546875 1563.03027344 -119.004882812 c 5
 1816.47167969 -119.004882812 l 5
 1816.47167969 -177.681640625 l 5
 1466.89550781 -177.681640625 l 5
 1491.86425781 -133.986328125 l 6
 1514.33984375 -95.283203125 1524.32617188 -42.8486328125 1524.32617188 27.068359375 c 4
 1524.32617188 59.52734375 1509.34375 91.98828125 1478.1328125 123.200195312 c 4
 1445.67382812 156.909179688 1406.96875 176.884765625 1364.52148438 176.884765625 c 4
 1329.56445312 176.884765625 1295.85644531 163.15234375 1260.8984375 131.940429688 c 4
 1245.91601562 119.455078125 1233.43066406 105.72265625 1224.69335938 89.4912109375 c 5
 1283.37011719 89.4912109375 1329.56445312 85.74609375 1360.77636719 67.01953125 c 4
 1381.99902344 52.037109375 1399.47851562 34.5595703125 1413.21191406 10.8359375 c 4
 1428.19433594 -14.1318359375 1434.43652344 -40.3515625 1434.43652344 -67.81640625 c 4
 1434.43652344 -97.78125 1424.44726562 -125.24609375 1403.22460938 -146.470703125 c 4
 1381.99902344 -167.6953125 1357.03125 -177.681640625 1325.81933594 -177.681640625 c 4x6cd7c0
 1272.13476562 -177.681640625 1228.43652344 -156.458984375 1193.47949219 -114.01171875 c 4
 1164.765625 -75.306640625 1149.78222656 -27.865234375 1149.78222656 27.068359375 c 6
 1149.78222656 32.0625 l 5
 947.529296875 32.0625 l 5
 915.0703125 -39.1015625 865.130859375 -96.5322265625 797.709960938 -138.979492188 c 4
 730.29296875 -181.428710938 655.383789062 -202.65234375 570.487304688 -202.65234375 c 4
 494.330078125 -202.65234375 426.9140625 -182.677734375 373.227539062 -142.7265625 c 4
 319.543945312 -102.774414062 292.076171875 -54.0830078125 292.076171875 2.0966796875 c 4
 292.076171875 27.068359375 303.313476562 48.2919921875 323.2890625 64.521484375 c 4
 342.015625 82 366.987304688 89.4912109375 395.702148438 89.4912109375 c 6
 905.081054688 89.4912109375 l 5
 915.0703125 119.455078125 918.814453125 146.922851562 918.814453125 176.884765625 c 5xacb7c0
EndSplineSet
Validated: 1
Comment: "Glyph representing Tamil Cevitu"
EndChar

StartChar: uni091C
Encoding: 2332 2332 23
Width: 1453
VWidth: 0
Flags: W
HStem: -200.61 58.2588<481.902 714.903> 27.6533 56.3525<397.264 882.179 980.552 1223.15> 154.682 70.6748<361.675 463.943> 439.298 56.3506<358.242 467.499> 680.936 57.3047<712.173 924.203 994.88 1150.56> 695.262 56.3486<341.595 518.114>
VStem: 157.271 58.2588<336.749 555.335> 271.879 56.3496<264.205 408.667> 317.724 70.6748<-66.0848 22.3816> 498.233 58.2627<263.296 406.942> 641.496 70.6768<169.008 559.412> 653.912 58.2607<638.912 680.936> 924.203 70.6768<85.3482 680.936> 1223.15 72.584<84.0059 738.24>
LayerCount: 2
Fore
SplineSet
413.232421875 225.356445312 m 4xf34c
 438.064453125 225.356445312 458.120117188 236.818359375 473.401367188 258.787109375 c 4
 489.638671875 280.752929688 498.233398438 308.450195312 498.233398438 339.96875 c 4
 498.233398438 366.7109375 489.638671875 391.54296875 473.401367188 410.645507812 c 4
 458.120117188 428.790039062 438.064453125 439.297851562 413.232421875 439.297851562 c 4
 388.3984375 439.297851562 368.341796875 430.701171875 352.107421875 410.645507812 c 4
 336.82421875 390.587890625 328.228515625 366.7109375 328.228515625 339.96875 c 4
 328.228515625 308.450195312 336.82421875 280.752929688 352.107421875 258.787109375 c 4
 368.341796875 236.818359375 388.3984375 225.356445312 413.232421875 225.356445312 c 4xf34c
586.1015625 -142.3515625 m 4
 652.95703125 -142.3515625 712.172851562 -128.024414062 763.748046875 -96.5078125 c 4
 816.278320312 -64.0341796875 856.390625 -22.96484375 882.178710938 27.6533203125 c 5
 418.005859375 27.6533203125 l 6
 410.366210938 27.6533203125 402.725585938 24.7900390625 396.994140625 19.05859375 c 4
 391.265625 13.3271484375 388.3984375 6.6435546875 388.3984375 -0.9970703125 c 4xf2cc
 388.3984375 -40.1552734375 407.5 -73.583984375 446.66015625 -100.327148438 c 4
 485.81640625 -128.024414062 531.661132812 -142.3515625 586.1015625 -142.3515625 c 4
924.203125 169.0078125 m 6
 924.203125 680.935546875 l 5
 712.172851562 680.935546875 l 5xfadc
 712.172851562 169.0078125 l 5
 641.49609375 169.0078125 l 5
 641.49609375 453.624023438 l 6
 641.49609375 520.481445312 619.529296875 576.828125 577.504882812 624.583984375 c 4
 535.481445312 671.3828125 486.7734375 695.26171875 427.55859375 695.26171875 c 4
 368.341796875 695.26171875 319.6328125 668.516601562 277.609375 619.807617188 c 4
 235.584960938 571.100585938 215.529296875 509.973632812 215.529296875 439.297851562 c 4
 215.529296875 403.004882812 222.213867188 368.620117188 237.495117188 337.103515625 c 4
 251.821289062 304.629882812 271.87890625 275.9765625 299.57421875 254.96484375 c 5
 290.024414062 270.247070312 283.33984375 286.483398438 278.564453125 300.810546875 c 4
 274.74609375 315.13671875 271.87890625 328.506835938 271.87890625 339.96875 c 4
 271.87890625 382.946289062 286.206054688 420.197265625 313.90234375 450.7578125 c 4
 340.643554688 481.321289062 374.072265625 495.6484375 413.232421875 495.6484375 c 4
 452.390625 495.6484375 485.81640625 481.321289062 512.560546875 450.7578125 c 4
 540.256835938 420.197265625 556.49609375 382.946289062 556.49609375 339.96875 c 4
 556.49609375 289.349609375 538.34765625 246.370117188 505.874023438 210.078125 c 4
 472.448242188 173.782226562 432.333007812 154.681640625 384.577148438 154.681640625 c 4
 322.498046875 154.681640625 269.013671875 184.2890625 224.122070312 238.729492188 c 4
 179.235351562 293.169921875 157.270507812 360.981445312 157.270507812 439.297851562 c 4
 157.270507812 526.209960938 184.965820312 599.752929688 237.495117188 659.922851562 c 4
 289.069335938 721.048828125 352.107421875 751.610351562 427.55859375 751.610351562 c 4xf76c
 478.177734375 751.610351562 523.065429688 741.104492188 563.181640625 721.048828125 c 4
 604.249023438 700.9921875 633.856445312 673.29296875 653.912109375 638.912109375 c 5
 653.912109375 738.240234375 l 5
 1150.55859375 738.240234375 l 5
 1150.55859375 680.935546875 l 5
 994.879882812 680.935546875 l 5
 994.879882812 169.0078125 l 6
 994.879882812 140.354492188 991.059570312 112.657226562 980.551757812 84.005859375 c 5
 1223.14550781 84.005859375 l 5
 1223.14550781 738.240234375 l 5
 1295.72949219 738.240234375 l 5xfb5c
 1295.72949219 27.6533203125 l 5
 952.856445312 27.6533203125 l 5
 921.338867188 -40.1552734375 872.627929688 -96.5078125 807.682617188 -138.529296875 c 4
 742.736328125 -179.599609375 669.194335938 -200.610351562 586.1015625 -200.610351562 c 4
 511.60546875 -200.610351562 447.614257812 -181.508789062 396.041015625 -142.3515625 c 4
 343.509765625 -103.192382812 317.723632812 -55.4384765625 317.723632812 -0.9970703125 c 4
 317.723632812 23.8349609375 328.228515625 43.8916015625 346.375 60.1279296875 c 4
 365.478515625 75.41015625 390.309570312 84.005859375 418.005859375 84.005859375 c 6
 910.83203125 84.005859375 l 5
 920.3828125 111.702148438 924.203125 140.354492188 924.203125 169.0078125 c 6
EndSplineSet
Validated: 1
Comment: "Glyph representing Tamil Alakku"
EndChar

StartChar: uni091D
Encoding: 2333 2333 24
Width: 1295
VWidth: 0
Flags: W
HStem: -13.8408 72.6006<586.651 1022.3> 126.613 66.0771<646.757 810.793> 424.157 61.8008<718.289 872.227 955.156 1080.58> 698.541 72.5996<718.289 872.227 955.156 1172.02> 713.151 71.4746<249.924 460.867>
VStem: 62.3066 69.0098<439.889 569.133> 464.565 89.4561<-185.279 -48.3372> 480.297 81.8057<272.131 402.423> 634.233 84.0557<563.069 703.941> 872.227 82.9297<248.69 418.758 491.357 698.541> 1145.49 87.2061<191.542 366.498>
LayerCount: 2
Fore
SplineSet
718.2890625 703.94140625 m 1xe4e0
 718.2890625 485.958007812 l 1
 872.2265625 485.958007812 l 1
 872.2265625 703.94140625 l 1
 718.2890625 703.94140625 l 1xe4e0
562.102539062 347.750976562 m 0xe5e0
 562.102539062 305.052734375 580.083007812 269.09765625 612.66796875 238.758789062 c 0
 646.375976562 208.419921875 685.704101562 192.690429688 732.897460938 192.690429688 c 0
 769.9765625 192.690429688 803.685546875 206.171875 831.775390625 229.76953125 c 0
 859.866210938 253.366210938 872.2265625 282.579101562 872.2265625 316.288085938 c 2
 872.2265625 424.157226562 l 1
 639.633789062 424.157226562 l 2
 617.162109375 424.157226562 599.18359375 416.291015625 584.577148438 402.809570312 c 0
 569.96875 388.200195312 562.102539062 369.099609375 562.102539062 347.750976562 c 0xe5e0
634.233398438 563.069335938 m 1
 634.233398438 765.741210938 l 1
 634.233398438 771.140625 l 1
 639.633789062 771.140625 l 1
 1166.6171875 771.140625 l 1
 1172.01757812 771.140625 l 1
 1172.01757812 765.741210938 l 1
 1172.01757812 703.94140625 l 1
 1172.01757812 698.541015625 l 1
 1166.6171875 698.541015625 l 1
 955.15625 698.541015625 l 1
 955.15625 491.357421875 l 1
 1010.43261719 491.357421875 l 2
 1072.22265625 491.357421875 1123.08007812 472.907226562 1166.7265625 436.15234375 c 0
 1210.40722656 399.369140625 1232.69335938 355.002929688 1232.69335938 301.682617188 c 0
 1232.69335938 215.030273438 1202.93066406 138.2578125 1144.68457031 77.724609375 c 0
 1087.61523438 17.2314453125 1017.45800781 -13.8408203125 934.026367188 -13.8408203125 c 2
 639.633789062 -13.8408203125 l 2
 614.336914062 -13.8408203125 595.848632812 -24.0244140625 579.6796875 -43.4248046875 c 0
 562.596679688 -62.646484375 554.021484375 -88.1474609375 554.021484375 -116.310546875 c 0
 554.021484375 -136.874023438 558.345703125 -156.125976562 568.967773438 -174.185546875 c 0
 579.836914062 -191.57421875 592.844726562 -206.756835938 612.458007812 -220.921875 c 2
 617.314453125 -224.430664062 l 1
 613.323242188 -228.899414062 l 1
 566.129882812 -281.711914062 l 1
 563.153320312 -285.041015625 l 1
 559.32421875 -282.743164062 l 2
 530.510742188 -265.453125 508.475585938 -243.40625 490.071289062 -213.499023438 c 0
 472.63671875 -184.442382812 464.565429688 -151.969726562 464.565429688 -116.310546875 c 0xf6e0
 464.565429688 -67.7958984375 482.123046875 -25.6962890625 516.711914062 7.7373046875 c 0
 550.163085938 42.3447265625 591.204101562 58.759765625 639.633789062 58.759765625 c 2
 934.026367188 58.759765625 l 2
 992.043945312 58.759765625 1042.13769531 81.5703125 1083.89648438 128.825195312 c 0
 1125.6640625 177.189453125 1145.48730469 235.373046875 1145.48730469 301.682617188 c 0
 1145.48730469 334.857421875 1131.74511719 361.434570312 1106.83789062 384.173828125 c 0
 1080.96972656 406.809570312 1048.58789062 418.7578125 1010.43261719 418.7578125 c 2
 955.15625 418.7578125 l 1
 955.15625 316.288085938 l 2
 955.15625 261.92578125 934.0390625 218.666015625 890.34375 180.721679688 c 0
 846.526367188 143.823242188 793.49609375 126.61328125 732.897460938 126.61328125 c 0
 663.245117188 126.61328125 604.521484375 147.287109375 554.056640625 190.87109375 c 0
 504.743164062 234.451171875 480.296875 285.529296875 480.296875 347.750976562 c 0
 480.296875 386.221679688 494.465820312 421.568359375 527.064453125 450.674804688 c 0
 544.641601562 466.0546875 564.389648438 475.57421875 582.513671875 481.943359375 c 1
 581.306640625 540.251953125 556.642578125 591.122070312 526.243164062 635.635742188 c 0
 488.116210938 686.833984375 433.818359375 713.151367188 355.35546875 713.151367188 c 0
 275.680664062 713.151367188 223.473632812 686.75390625 186.510742188 635.66015625 c 0
 150.219726562 582.872070312 131.31640625 516.513671875 131.31640625 439.888671875 c 2
 125.916992188 434.489257812 l 1
 120.516601562 434.489257812 l 1
 67.70703125 434.489257812 l 1
 62.306640625 434.489257812 l 1
 62.306640625 439.888671875 l 1
 62.306640625 442.13671875 l 2
 62.306640625 535.243164062 87.3134765625 617.345703125 136.413085938 683.57421875 c 0
 186.9375 751.32421875 259.6640625 784.625976562 355.35546875 784.625976562 c 0xede0
 451.036132812 784.625976562 523.801757812 751.321289062 573.197265625 683.54296875 c 0
 599.49609375 647.748046875 621.71875 607.424804688 634.233398438 563.069335938 c 1
EndSplineSet
Validated: 1
EndChar

StartChar: uni091E
Encoding: 2334 2334 25
Width: 1693
VWidth: 0
Flags: W
HStem: 2.37012 61.5518<956.965 1399.09> 143.512 60.4902<353.039 599.986 682.012 933.519 1020.26 1181.54> 438.529 61.5488<959.106 1013.11 1091.64 1246.58 1324.04 1466.65> 454.447 71.1006<476.946 616.34> 703.83 62.6113<167.326 353.039 432.629 650.176> 719.748 62.6104<1091.64 1246.58 1324.04 1541.59>
VStem: 87.7354 79.5908<143.512 703.83> 353.039 79.5898<267.672 414.558 477.794 703.83> 663.971 79.5918<266.584 408.626> 840.132 79.5918<-178.844 -36.8653> 856.051 79.5918<284.824 415.565> 1013.11 78.5293<500.078 719.748> 1246.58 77.4678<263.643 438.529 500.078 719.748> 1527.79 77.4707<204.391 381.98>
LayerCount: 2
Fore
SplineSet
1091.63964844 719.748046875 m 1xe79c
 1091.63964844 500.078125 l 1
 1246.57617188 500.078125 l 1
 1246.57617188 719.748046875 l 1
 1091.63964844 719.748046875 l 1xe79c
1105.43554688 204.001953125 m 0
 1143.63867188 204.001953125 1177.59667969 218.858398438 1205.1875 242.205078125 c 0
 1232.78027344 265.55078125 1246.57617188 295.264648438 1246.57617188 329.223632812 c 2
 1246.57617188 438.529296875 l 1
 1013.11035156 438.529296875 l 2
 990.823242188 438.529296875 971.721679688 430.0390625 957.926757812 416.243164062 c 0
 943.068359375 402.447265625 935.642578125 382.283203125 935.642578125 361.05859375 c 0xe3bc
 935.642578125 319.672851562 951.55859375 283.591796875 985.517578125 251.75390625 c 0
 1018.41503906 219.91796875 1058.74316406 204.001953125 1105.43554688 204.001953125 c 0
1105.43554688 143.51171875 m 2
 353.0390625 143.51171875 l 1
 353.0390625 204.001953125 l 1
 526.015625 204.001953125 l 2
 563.159179688 204.001953125 597.115234375 218.858398438 624.706054688 246.44921875 c 0
 652.298828125 274.040039062 663.970703125 305.876953125 663.970703125 345.142578125 c 0
 663.970703125 374.856445312 652.298828125 400.323242188 628.953125 422.610351562 c 0
 604.544921875 443.833984375 574.831054688 454.447265625 541.93359375 454.447265625 c 0xd3dc
 523.892578125 454.447265625 505.852539062 450.201171875 485.689453125 438.529296875 c 0xe3dc
 466.5859375 425.79296875 450.669921875 411.998046875 432.62890625 392.897460938 c 1
 432.62890625 267.671875 l 1
 353.0390625 267.671875 l 1
 353.0390625 703.830078125 l 1
 167.326171875 703.830078125 l 1
 167.326171875 143.51171875 l 1
 87.7353515625 143.51171875 l 1
 87.7353515625 766.44140625 l 1
 650.17578125 766.44140625 l 1
 650.17578125 703.830078125 l 1
 432.62890625 703.830078125 l 1
 432.62890625 477.793945312 l 1
 446.423828125 491.588867188 462.341796875 503.26171875 482.505859375 511.75 c 0
 501.607421875 519.1796875 521.771484375 525.547851562 541.93359375 525.547851562 c 0
 597.115234375 525.547851562 644.87109375 505.384765625 684.135742188 471.424804688 c 0
 723.399414062 438.529296875 743.5625 395.017578125 743.5625 345.142578125 c 0
 743.5625 317.55078125 739.318359375 292.08203125 727.643554688 267.671875 c 0
 715.971679688 244.328125 702.176757812 222.040039062 682.01171875 204.001953125 c 1
 933.518554688 204.001953125 l 1
 929.2734375 208.245117188 l 1
 880.459960938 249.631835938 856.05078125 301.631835938 856.05078125 361.05859375 c 0xdbbc
 856.05078125 398.202148438 869.845703125 432.16015625 901.682617188 459.751953125 c 0
 933.518554688 487.341796875 971.721679688 500.078125 1013.11035156 500.078125 c 1
 1013.11035156 782.358398438 l 1
 1541.59082031 782.358398438 l 1
 1541.59082031 719.748046875 l 1
 1324.04394531 719.748046875 l 1
 1324.04394531 500.078125 l 1
 1386.65429688 500.078125 l 2
 1446.08300781 500.078125 1495.95996094 482.038085938 1539.46972656 445.956054688 c 0
 1582.97851562 410.935546875 1605.26464844 365.305664062 1605.26464844 313.305664062 c 0
 1605.26464844 226.286132812 1575.55078125 155.185546875 1518.24414062 93.6357421875 c 0
 1460.94140625 32.0849609375 1390.89941406 2.3701171875 1310.24804688 2.3701171875 c 2
 1013.11035156 2.3701171875 l 2
 987.640625 2.3701171875 965.356445312 -7.1796875 947.314453125 -29.4638671875 c 0
 929.2734375 -50.689453125 919.723632812 -77.21875 919.723632812 -106.931640625 c 0xe7dc
 919.723632812 -128.158203125 926.091796875 -148.319335938 935.642578125 -167.421875 c 0
 945.19140625 -187.584960938 961.111328125 -201.380859375 981.2734375 -215.176757812 c 1
 935.642578125 -270.358398438 l 1xe7bc
 905.926757812 -253.379882812 883.641601562 -231.095703125 866.663085938 -201.380859375 c 0
 848.623046875 -171.666015625 840.131835938 -139.830078125 840.131835938 -106.931640625 c 0xe7dc
 840.131835938 -59.1806640625 858.171875 -18.8525390625 892.131835938 14.044921875 c 0
 926.091796875 48.00390625 965.356445312 63.921875 1013.11035156 63.921875 c 2
 1310.24804688 63.921875 l 2
 1369.67578125 63.921875 1418.4921875 87.2666015625 1462 137.143554688 c 0
 1505.50976562 187.022460938 1527.79394531 244.328125 1527.79394531 313.305664062 c 0
 1527.79394531 347.263671875 1514 379.100585938 1486.40820312 402.447265625 c 0
 1458.81738281 425.79296875 1426.98144531 438.529296875 1386.65429688 438.529296875 c 2
 1324.04394531 438.529296875 l 1
 1324.04394531 329.223632812 l 2
 1324.04394531 278.284179688 1303.88085938 232.654296875 1260.37109375 196.573242188 c 0
 1216.86132812 160.490234375 1164.86230469 143.51171875 1105.43554688 143.51171875 c 2
EndSplineSet
Validated: 1
EndChar

StartChar: uni091F
Encoding: 2335 2335 26
Width: 1024
VWidth: 0
Flags: W
HStem: 274.788 76.5537<300.894 723.106>
VStem: 211.958 88.9355<351.342 790.859> 723.106 88.9355<-117.858 274.788>
LayerCount: 2
Fore
SplineSet
211.958007812 289.1875 m 5
 211.958007812 776.458984375 l 5
 211.958007812 783.659179688 l 5
 211.958007812 790.859375 l 5
 219.158203125 790.859375 l 5
 226.357421875 790.859375 l 5
 286.494140625 790.859375 l 5
 293.693359375 790.859375 l 5
 300.893554688 790.859375 l 5
 300.893554688 783.659179688 l 5
 300.893554688 776.458984375 l 5
 300.893554688 351.341796875 l 5
 797.642578125 351.341796875 l 5
 804.841796875 351.341796875 l 5
 812.041992188 351.341796875 l 5
 812.041992188 344.141601562 l 5
 812.041992188 336.94140625 l 5
 812.041992188 -103.458007812 l 5
 812.041992188 -110.658203125 l 5
 812.041992188 -117.858398438 l 5
 804.841796875 -117.858398438 l 5
 797.642578125 -117.858398438 l 5
 737.505859375 -117.858398438 l 5
 730.306640625 -117.858398438 l 5
 723.106445312 -117.858398438 l 5
 723.106445312 -110.658203125 l 5
 723.106445312 -103.458007812 l 5
 723.106445312 274.788085938 l 5
 226.357421875 274.788085938 l 5
 219.158203125 274.788085938 l 5
 211.958007812 274.788085938 l 5
 211.958007812 281.98828125 l 5
 211.958007812 289.1875 l 5
EndSplineSet
Validated: 1
EndChar

StartChar: uni0920
Encoding: 2336 2336 27
Width: 1765
VWidth: 0
Flags: HW
LayerCount: 2
Fore
SplineSet
443.02734375 126.190429688 m 2
 447.212890625 111.541992188 453.870117188 100.205078125 463.890625 91.1875 c 2
 464.157226562 90.947265625 l 1
 464.44140625 90.7265625 l 2
 472.954101562 84.1064453125 485.323242188 78.8349609375 500.666992188 75.5478515625 c 0
 509.03515625 73.453125 526.759765625 71.18359375 547.990234375 71.18359375 c 2
 869.274414062 71.18359375 l 1
 873.782226562 71.18359375 l 1
 887.305664062 71.18359375 l 1
 880.14453125 82.6552734375 l 1
 877.756835938 86.4794921875 l 2
 859.254882812 116.116210938 852.05859375 142.767578125 852.05859375 175.98828125 c 0
 852.05859375 208.522460938 867.2890625 238.474609375 892.653320312 261.419921875 c 0
 913.295898438 281.032226562 942.388671875 291.043945312 968.0546875 293.806640625 c 2
 970.287109375 294.046875 l 1
 976.984375 294.767578125 l 1
 976.984375 301.50390625 l 1
 976.984375 303.749023438 l 1
 976.984375 511.795898438 l 1
 976.984375 520.458007812 l 1
 985.64453125 520.458007812 l 1
 1408.55761719 520.458007812 l 1
 1417.22070312 520.458007812 l 1
 1417.22070312 511.795898438 l 1
 1417.22070312 462.513671875 l 1
 1417.22070312 453.8515625 l 1
 1408.55761719 453.8515625 l 1
 1253.015625 453.8515625 l 1
 1250.515625 453.8515625 l 1
 1243.015625 453.8515625 l 1
 1243.015625 446.3515625 l 1
 1243.015625 443.8515625 l 1
 1243.015625 304.673828125 l 1
 1243.015625 302.173828125 l 1
 1243.015625 294.673828125 l 1
 1250.515625 294.673828125 l 1
 1253.015625 294.673828125 l 1
 1344.53222656 294.673828125 l 2
 1587.98339844 294.673828125 1541.8125 53.552734375 1509.00390625 -52.23828125 c 2
 1507.99804688 -55.478515625 l 1
 1504.98339844 -65.2001953125 l 1
 1515.16210938 -65.2001953125 l 1
 1518.5546875 -65.2001953125 l 1
 1598.64355469 -65.2001953125 l 1
 1601.14355469 -65.2001953125 l 1
 1608.64355469 -65.2001953125 l 1
 1608.64355469 -57.7001953125 l 1
 1608.64355469 -55.2001953125 l 1
 1608.64355469 500.3359375 l 1
 1608.64355469 508.998046875 l 1
 1617.30566406 508.998046875 l 1
 1680.34277344 508.998046875 l 1
 1689.00585938 508.998046875 l 1
 1689.00585938 500.3359375 l 1
 1689.00585938 -123.147460938 l 1
 1689.00585938 -131.809570312 l 1
 1680.34277344 -131.809570312 l 1
 1485.74414062 -131.809570312 l 1
 1484.36230469 -131.809570312 l 1
 1480.21875 -131.809570312 l 1
 1478.01367188 -135.318359375 l 1
 1477.27832031 -136.487304688 l 2
 1438.53710938 -198.114257812 1380.87792969 -243.416992188 1302.15625 -277.787109375 c 0
 1219.55957031 -313.850585938 1125.47949219 -332.37890625 1019.0390625 -332.37890625 c 0
 927.84375 -332.37890625 849.094726562 -321.998046875 782.759765625 -302.216796875 c 0
 716.505859375 -282.458007812 670.3359375 -250.696289062 647.411132812 -216.854492188 c 2
 646.844726562 -216.017578125 l 1
 646.122070312 -215.311523438 l 2
 632.2265625 -201.728515625 628.206054688 -193.798828125 622.018554688 -183.899414062 c 2
 621.791015625 -183.509765625 l 2
 615.34375 -171.903320312 612.681640625 -160.112304688 612.681640625 -149.508789062 c 0
 612.681640625 -125.474609375 621.791015625 -104.359375 641.248046875 -88.7900390625 c 0
 660.866210938 -74.0791015625 682.333984375 -65.2001953125 708.4453125 -65.2001953125 c 2
 1419.85839844 -65.2001953125 l 1
 1421.5859375 -65.2001953125 l 1
 1426.76953125 -65.2001953125 l 1
 1428.6015625 -60.3515625 l 1
 1429.21289062 -58.7353515625 l 2
 1465.515625 37.3359375 1506.98339844 228.067382812 1344.53222656 228.067382812 c 2
 1253.015625 228.067382812 l 1
 1250.515625 228.067382812 l 1
 1243.015625 228.067382812 l 1
 1243.015625 220.567382812 l 1
 1243.015625 218.067382812 l 1
 1243.015625 149.626953125 l 2
 1243.015625 105.76171875 1224.23730469 68.6083984375 1188.44140625 38.7763671875 c 0
 1153.70410156 7.6318359375 1109.8671875 -6.8837890625 1060.14550781 -6.8837890625 c 0
 1035.85839844 -6.8837890625 1003.47070312 -1.693359375 985.663085938 4.087890625 c 2
 984.158203125 4.5771484375 l 1
 982.575195312 4.5771484375 l 1
 547.990234375 4.5771484375 l 2
 522.203125 4.5771484375 501.619140625 6.736328125 486.805664062 10.4384765625 c 2
 486.530273438 10.5068359375 l 1
 486.252929688 10.5595703125 l 2
 461.020507812 15.3671875 440.331054688 25.1826171875 423.223632812 39.84375 c 0
 402.436523438 56.9638671875 387.670898438 80.4599609375 379.249023438 108.135742188 c 2
 379.1328125 108.559570312 l 2
 375.588867188 122.733398438 373.260742188 137.5390625 373.260742188 153.131835938 c 0
 373.260742188 163.646484375 374.345703125 174.65234375 376.768554688 185.803710938 c 0
 385.220703125 226.8515625 410.376953125 268.359375 446.546875 305.6953125 c 0
 457.623046875 317.876953125 472.119140625 334.725585938 493.103515625 352.215820312 c 0
 516.385742188 372.322265625 535.159179688 387.6328125 538.025390625 390.192382812 c 2
 538.551757812 390.662109375 l 1
 539.006835938 391.200195312 l 1
 539.546875 391.840820312 l 1
 539.903320312 392.163085938 l 2
 573.641601562 422.529296875 594.284179688 451.224609375 602.778320312 477.759765625 c 0
 602.991210938 478.422851562 603.067382812 478.538085938 603.067382812 478.538085938 c 2
 612.46484375 501.5078125 612.681640625 525.526367188 612.681640625 554.203125 c 0
 612.681640625 577.0859375 603.19140625 601.868164062 587.883789062 623.731445312 c 0
 587.510742188 624.264648438 587.486328125 624.353515625 587.486328125 624.353515625 c 2
 561.334960938 667.939453125 519.658203125 698.869140625 464.15234375 715.51953125 c 0
 436.278320312 723.793945312 409.411132812 727.954101562 383.580078125 727.954101562 c 0
 343.103515625 727.954101562 305.107421875 717.8203125 269.2421875 696.844726562 c 0
 237.099609375 678.234375 209.706054688 649.94140625 188.455078125 618.278320312 c 2
 185.958984375 614.55859375 l 1
 178.467773438 603.397460938 l 1
 191.899414062 602.884765625 l 1
 196.376953125 602.712890625 l 2
 201.458007812 602.51953125 202.508789062 602.418945312 206.266601562 601.791015625 c 2
 206.516601562 601.749023438 l 1
 206.768554688 601.720703125 l 2
 239.196289062 597.977539062 264.954101562 580.309570312 285.334960938 555.1328125 c 0
 304.8046875 532.012695312 314.827148438 504.416992188 314.827148438 472.828125 c 0
 314.827148438 446.065429688 312.5078125 421.354492188 300.088867188 397.762695312 c 0
 285.615234375 370.022460938 264.498046875 348.493164062 235.286132812 339.599609375 c 0
 224.438476562 336.4375 213.9140625 334.74609375 203.208984375 334.74609375 c 0
 184.643554688 334.74609375 166.509765625 339.8515625 147.092773438 350.723632812 c 0
 122.608398438 365.4140625 103.038085938 386.2265625 90.859375 413.0234375 c 0
 79.94921875 436.05859375 76.3037109375 459.536132812 76.3037109375 486.581054688 c 0
 76.3037109375 490.409179688 75.671875 499.283203125 76.2109375 503.833984375 c 0
 78.935546875 525.616210938 84.5009765625 542.293945312 90.4208984375 562.419921875 c 0
 116.189453125 646.762695312 165.713867188 712.990234375 236.51953125 753.109375 c 0
 283.569335938 780.166015625 334.466796875 794.37890625 389.830078125 794.37890625 c 0
 421.751953125 794.37890625 452.84765625 788.36328125 483.077148438 777.899414062 c 0
 554.053710938 755.791015625 609.23046875 718.819335938 644.728515625 659.66015625 c 0
 665.068359375 628.551757812 673.45703125 592.27734375 676.938476562 558.638671875 c 0
 678.133789062 549.362304688 678.751953125 539.8125 678.751953125 530.749023438 c 0
 678.751953125 504.459960938 673.841796875 479.952148438 664.97265625 456.006835938 c 0
 650.556640625 418.770507812 622.66796875 380.108398438 584.385742188 344.48046875 c 2
 584.000976562 344.123046875 l 1
 583.657226562 343.727539062 l 2
 576.822265625 335.877929688 561.025390625 322.41796875 537.756835938 301.365234375 c 0
 537.250976562 300.908203125 537.084960938 300.815429688 537.084960938 300.815429688 c 2
 518.745117188 286.790039062 505.013671875 270.899414062 494.6328125 260.516601562 c 0
 465.421875 229.060546875 447.172851562 201.647460938 441.90625 172.172851562 c 0
 441.798828125 171.573242188 441.750976562 171.46484375 441.750976562 171.46484375 c 2
 440.168945312 165.129882812 439.475585938 158.83203125 439.475585938 153.044921875 c 0
 439.475585938 144.282226562 440.838867188 136.298828125 442.864257812 126.842773438 c 2
 442.934570312 126.513671875 l 1
 443.02734375 126.190429688 l 2
952.84375 212.465820312 m 2
 938.532226562 201.22265625 932.418945312 189.869140625 932.418945312 175.98828125 c 0
 932.418945312 144.067382812 944.975585938 116.793945312 969.556640625 95.4208984375 c 2
 969.852539062 95.1494140625 l 2
 993.46875 72.6064453125 1024.47851562 59.7236328125 1060.14550781 59.7236328125 c 0
 1088.19042969 59.7236328125 1113.18164062 68.119140625 1133.35742188 87.234375 c 0
 1154.11425781 105.805664062 1164.9453125 125.1015625 1164.9453125 149.626953125 c 2
 1164.9453125 218.067382812 l 1
 1164.9453125 220.567382812 l 1
 1164.9453125 228.067382812 l 1
 1157.4453125 228.067382812 l 1
 1154.9453125 228.067382812 l 1
 1005.13378906 228.067382812 l 2
 984.9375 228.067382812 967.625 223.036132812 953.208984375 212.73828125 c 2
 953.0234375 212.606445312 l 1
 952.84375 212.465820312 l 2
719.03515625 -191.6171875 m 2
 753.629882812 -215.051757812 796.145507812 -234.109375 846.80078125 -245.364257812 c 0
 897.720703125 -257.813476562 954.162109375 -263.479492188 1019.0390625 -263.479492188 c 0
 1111.02246094 -263.479492188 1191.34960938 -249.845703125 1260.09960938 -223.924804688 c 0
 1313.47265625 -204.3515625 1352.2578125 -175.432617188 1377.94628906 -145.296875 c 2
 1381.45996094 -141.174804688 l 1
 1392.00097656 -128.809570312 l 1
 1375.75195312 -128.809570312 l 1
 1370.3359375 -128.809570312 l 1
 708.4453125 -128.809570312 l 1
 707.016601562 -128.809570312 l 1
 702.728515625 -128.809570312 l 1
 700.553710938 -132.50390625 l 1
 699.850585938 -133.697265625 l 1
 699.850585938 -133.697265625 698.866210938 -135.436523438 697.141601562 -136.62109375 c 2
 695.8671875 -137.495117188 l 1
 694.916992188 -138.713867188 l 2
 691.8125 -142.69140625 690.749023438 -146.59765625 690.749023438 -149.508789062 c 0
 690.749023438 -157.45703125 692.741210938 -165.797851562 697.157226562 -171.978515625 c 2
 698.44140625 -173.77734375 l 1
 698.951171875 -174.491210938 l 1
 699.577148438 -175.10546875 l 2
 705.256835938 -180.677734375 714.745117188 -188.3984375 716.813476562 -190.078125 c 2
 717.06640625 -190.283203125 l 1
 717.3359375 -190.465820312 l 1
 719.03515625 -191.6171875 l 2
143.03125 483.254882812 m 2
 144.086914062 459.810546875 146.615234375 454.396484375 151.182617188 441.315429688 c 2
 151.44921875 440.553710938 l 1
 151.833984375 439.844726562 l 2
 161.141601562 422.68359375 168.127929688 416.102539062 179.874023438 409.250976562 c 0
 188.1796875 404.405273438 197.42578125 402.006835938 206.1875 402.006835938 c 0
 209.877929688 402.006835938 214.676757812 402.829101562 214.7421875 402.838867188 c 2
 216.284179688 403.060546875 l 1
 217.684570312 403.741210938 l 2
 228.4296875 408.958984375 237.190429688 418.059570312 242.734375 426.375976562 c 2
 243.364257812 427.3203125 l 1
 243.765625 428.380859375 l 2
 249.47265625 443.448242188 250.510742188 452.462890625 250.510742188 468.243164062 c 0
 250.510742188 485.810546875 241.889648438 498.623046875 231.376953125 513.8046875 c 0
 223.180664062 526.098632812 210.89453125 532.639648438 197.883789062 535.057617188 c 2
 196.977539062 535.225585938 l 1
 196.056640625 535.225585938 l 1
 187.5234375 535.225585938 l 1
 186.4921875 535.225585938 l 1
 185.482421875 535.014648438 l 2
 171.080078125 532.01171875 165.287109375 529.438476562 159.857421875 524.008789062 c 0
 153.2109375 517.366210938 147.623046875 505.795898438 145.76953125 500.69921875 c 2
 145.270507812 499.327148438 l 1
 145.184570312 497.870117188 l 2
 144.498046875 486.25 145.081054688 491.901367188 143.463867188 486.646484375 c 2
 142.953125 484.98828125 l 1
 143.03125 483.254882812 l 2
1067.34570312 294.673828125 m 1
 1154.9453125 294.673828125 l 1
 1157.4453125 294.673828125 l 1
 1164.9453125 294.673828125 l 1
 1164.9453125 302.173828125 l 1
 1164.9453125 304.673828125 l 1
 1164.9453125 443.8515625 l 1
 1164.9453125 446.3515625 l 1
 1164.9453125 453.8515625 l 1
 1157.4453125 453.8515625 l 1
 1154.9453125 453.8515625 l 1
 1067.34570312 453.8515625 l 1
 1064.84570312 453.8515625 l 1
 1057.34570312 453.8515625 l 1
 1057.34570312 446.3515625 l 1
 1057.34570312 443.8515625 l 1
 1057.34570312 304.673828125 l 1
 1057.34570312 302.173828125 l 1
 1057.34570312 294.673828125 l 1
 1064.84570312 294.673828125 l 1
 1067.34570312 294.673828125 l 1
EndSplineSet
Validated: 33
Comment: "Glyph representing Tamil Patakku"
EndChar

StartChar: uni0921
Encoding: 2337 2337 28
Width: 1227
VWidth: 0
Flags: W
HStem: 1.72754 75.5801<891.744 1005.28> 299.024 72.7676<405.36 494.366 619.72 716.384> 519.008 72.7705<158.255 299.848 385.27 601.037> 862.692 75.5801<656.888 792.004>
VStem: 69.3223 88.9326<1.72754 519.008> 299.848 86.8271<1.72754 276.616 359.25 519.008> 513.51 87.5273<1.72754 276.552> 1082.1 75.5801<185.405 523.699>
LayerCount: 2
Fore
SplineSet
405.255859375 277.313476562 m 4
 393.659179688 262.495117188 386.674804688 244.142578125 386.674804688 220.495117188 c 6
 386.674804688 9.6474609375 l 5
 386.674804688 1.7275390625 l 5
 378.75390625 1.7275390625 l 5
 307.767578125 1.7275390625 l 5
 299.84765625 1.7275390625 l 5
 299.84765625 9.6474609375 l 5
 299.84765625 519.0078125 l 5
 158.254882812 519.0078125 l 5
 158.254882812 9.6474609375 l 5
 158.254882812 1.7275390625 l 5
 150.334960938 1.7275390625 l 5
 77.2421875 1.7275390625 l 5
 69.322265625 1.7275390625 l 5
 69.322265625 9.6474609375 l 5
 69.322265625 583.858398438 l 5
 69.322265625 591.778320312 l 5
 77.2421875 591.778320312 l 5
 593.118164062 591.778320312 l 5
 601.037109375 591.778320312 l 5
 601.037109375 583.858398438 l 5
 601.037109375 526.926757812 l 5
 601.037109375 519.0078125 l 5
 593.118164062 519.0078125 l 5
 385.26953125 519.0078125 l 5
 385.26953125 359.25 l 5
 408.28515625 369.186523438 427.145507812 371.791992188 450.444335938 371.791992188 c 4
 491.703125 371.791992188 526.975585938 357.54296875 556.477539062 328.779296875 c 6
 556.647460938 328.61328125 l 5
 556.807617188 328.436523438 l 6
 557.049804688 328.169921875 557.161132812 327.94140625 557.202148438 327.762695312 c 5
 557.255859375 327.846679688 557.325195312 327.944335938 557.4140625 328.0546875 c 6
 557.780273438 328.513671875 l 5
 558.209960938 328.912109375 l 6
 588.973632812 357.479492188 623.499023438 371.791992188 664.806640625 371.791992188 c 4
 707.844726562 371.791992188 744.455078125 354.520507812 775.349609375 322.155273438 c 4
 799.595703125 294.969726562 816.346679688 262.788085938 825.036132812 223.692382812 c 4
 835.34765625 181.067382812 851.142578125 145.571289062 873.419921875 117.892578125 c 4
 895.63671875 89.6162109375 919.209960938 77.3076171875 945.9375 77.3076171875 c 4
 987.040039062 77.3076171875 1021.23046875 103.37109375 1046.41796875 151.706054688 c 4
 1070.20117188 199.2734375 1082.09765625 260.654296875 1082.09765625 338.571289062 c 4
 1082.09765625 497.485351562 1041.72460938 625.46875 958.913085938 722.770507812 c 4
 877.270507812 817.557617188 780.627929688 862.692382812 664.806640625 862.692382812 c 6
 656.887695312 862.692382812 l 5
 656.887695312 870.612304688 l 5
 656.887695312 930.352539062 l 5
 656.887695312 938.272460938 l 5
 664.806640625 938.272460938 l 6
 802.110351562 938.272460938 918.32421875 881.47265625 1014.48046875 771.072265625 c 4
 1110.80664062 659.76171875 1157.67773438 516.361328125 1157.67773438 338.571289062 c 4
 1157.67773438 250.5390625 1142.83984375 174.874023438 1113.23828125 116.390625 c 4
 1075.79589844 43.666015625 1020.48046875 1.7275390625 948.749023438 1.7275390625 c 6
 945.9375 1.7275390625 l 6
 894.823242188 1.7275390625 851.569335938 25.125 816.051757812 70.064453125 c 4
 785.709960938 107.633789062 764.899414062 152.228515625 751.259765625 207.505859375 c 4
 745.750976562 234.350585938 736.426757812 255.869140625 721.547851562 272.04296875 c 4
 705.076171875 289.83203125 686.943359375 299.024414062 664.806640625 299.024414062 c 4
 646.947265625 299.024414062 631.54296875 291.118164062 619.55078125 277.234375 c 4
 607.581054688 262.743164062 601.037109375 244.284179688 601.037109375 220.495117188 c 6
 601.037109375 9.6474609375 l 5
 601.037109375 1.7275390625 l 5
 593.118164062 1.7275390625 l 5
 521.4296875 1.7275390625 l 5
 513.509765625 1.7275390625 l 5
 513.509765625 9.6474609375 l 5
 513.509765625 220.495117188 l 6
 513.509765625 244.326171875 507.048828125 262.643554688 494.918945312 277.330078125 c 4
 483.598632812 291.1640625 468.34375 299.024414062 450.444335938 299.024414062 c 4
 432.5625 299.024414062 417.360351562 291.327148438 405.255859375 277.313476562 c 4
EndSplineSet
Validated: 1
Comment: "Glyph representing Tamil Mukkuruni"
EndChar

StartChar: uni0922
Encoding: 2338 2338 29
Width: 1417
VWidth: 0
Flags: W
HStem: -7.00391 71.0879<261.43 438.305> 10.7676 69.3145<1125.26 1343.87> 325.34 69.3145<190.182 249.08 337.943 512.115 599.199 723.595 876.847 995.657> 639.916 71.0879<337.943 512.115 599.199 844.462>
VStem: 73.1328 88.8633<157.477 296.84> 249.08 88.8633<394.654 639.916> 512.115 87.084<131.558 325.34 394.654 639.916> 755.598 88.8643<10.7676 291.108> 1059.51 69.3145<80.9954 251.063>
LayerCount: 2
Fore
SplineSet
337.943359375 639.916015625 m 5x3f80
 337.943359375 394.654296875 l 5
 512.115234375 394.654296875 l 5
 512.115234375 639.916015625 l 5
 337.943359375 639.916015625 l 5x3f80
353.9375 64.083984375 m 4xbf80
 396.592773438 64.083984375 433.913085938 78.302734375 465.905273438 104.958984375 c 4
 497.897460938 131.62109375 512.115234375 165.389648438 512.115234375 202.709960938 c 6
 512.115234375 325.33984375 l 5
 249.080078125 325.33984375 l 6
 224.201171875 325.33984375 202.873046875 316.455078125 186.87890625 300.458984375 c 4
 170.880859375 284.465820312 161.99609375 263.137695312 161.99609375 238.25390625 c 4
 161.99609375 190.26953125 181.544921875 149.392578125 218.866210938 115.625976562 c 4
 256.189453125 81.8583984375 300.622070312 64.083984375 353.9375 64.083984375 c 4xbf80
668.513671875 325.33984375 m 6
 599.19921875 325.33984375 l 5
 599.19921875 202.709960938 l 6
 599.19921875 144.060546875 576.09375 96.0751953125 528.107421875 55.19921875 c 4
 480.124023438 14.3232421875 421.47265625 -7.00390625 353.9375 -7.00390625 c 4xbf80
 277.518554688 -7.00390625 211.7578125 17.876953125 156.6640625 65.8642578125 c 4
 101.568359375 113.849609375 73.1328125 170.720703125 73.1328125 238.25390625 c 4
 73.1328125 280.908203125 92.68359375 318.231445312 126.451171875 348.447265625 c 4
 160.219726562 378.66015625 201.095703125 394.654296875 249.080078125 394.654296875 c 5
 249.080078125 711.00390625 l 5
 844.461914062 711.00390625 l 5
 844.461914062 639.916015625 l 5
 599.19921875 639.916015625 l 5
 599.19921875 394.654296875 l 5
 668.513671875 394.654296875 l 6
 716.499023438 394.654296875 757.375 376.883789062 792.91796875 343.11328125 c 4
 796.474609375 339.560546875 798.249023438 337.783203125 800.030273438 334.229492188 c 5
 808.916015625 343.11328125 l 6
 842.681640625 376.883789062 881.780273438 394.654296875 929.766601562 394.654296875 c 4
 991.971679688 394.654296875 1043.51074219 366.216796875 1082.61035156 311.123046875 c 4
 1112.82519531 266.69140625 1128.8203125 218.706054688 1128.8203125 170.720703125 c 5
 1128.8203125 156.502929688 l 6
 1128.8203125 120.958007812 1128.8203125 94.298828125 1125.26464844 80.08203125 c 5
 1343.8671875 80.08203125 l 5
 1343.8671875 10.767578125 l 5
 1016.84960938 10.767578125 l 5x7f80
 1047.06445312 64.083984375 l 6xbf80
 1055.95019531 80.08203125 1059.50585938 110.295898438 1059.50585938 156.502929688 c 6
 1059.50585938 170.720703125 l 6
 1059.50585938 206.265625 1048.84277344 238.25390625 1025.73828125 270.248046875 c 4
 1000.85839844 307.568359375 968.8671875 325.33984375 929.766601562 325.33984375 c 4
 904.884765625 325.33984375 885.334960938 316.455078125 869.340820312 295.12890625 c 4
 853.345703125 273.799804688 844.461914062 250.698242188 844.461914062 220.482421875 c 6
 844.461914062 10.767578125 l 5
 755.59765625 10.767578125 l 5x7f80
 755.59765625 220.482421875 l 6
 755.59765625 250.698242188 746.712890625 275.578125 730.716796875 295.12890625 c 4
 714.720703125 314.677734375 693.39453125 325.33984375 668.513671875 325.33984375 c 6
EndSplineSet
Validated: 1
EndChar

StartChar: uni0923
Encoding: 2339 2339 30
Width: 1231
VWidth: 0
Flags: W
HStem: -0.461914 79.9629<306.193 469.928> 476.163 81.3086<640.972 1130.61>
VStem: 96.2002 81.3105<231.826 470.086> 591.676 79.9619<219.037 438.328>
LayerCount: 2
Fore
SplineSet
177.372070312 557.471679688 m 0
 190.3203125 557.471679688 202.642578125 550.122070312 210.096679688 538.943359375 c 2
 210.594726562 538.197265625 l 1
 210.997070312 537.39453125 l 2
 216.3125 526.76171875 219.059570312 512.36328125 212.375976562 499.002929688 c 0
 189.134765625 451.2265625 177.510742188 400.783203125 177.510742188 350.538085938 c 0
 177.510742188 319.876953125 182.684570312 287.294921875 191.750976562 254.9140625 c 0
 207.193359375 203.44140625 231.577148438 163.82421875 264.5625 132.109375 c 0
 301.41015625 97.8017578125 342.37109375 79.5009765625 386.611328125 79.5009765625 c 0
 428.927734375 79.5009765625 466.823242188 93.9619140625 502.615234375 124.641601562 c 0
 535.573242188 151.260742188 559.401367188 187.384765625 574.936523438 233.993164062 c 0
 586.614257812 267.724609375 591.67578125 299.515625 591.67578125 331.686523438 c 0
 591.67578125 387.852539062 573.956054688 442.747070312 538.890625 494.693359375 c 0
 530.23046875 507.68359375 530.783203125 523.474609375 538.369140625 536.75 c 0
 545.76171875 549.690429688 557.778320312 557.471679688 572.415039062 557.471679688 c 2
 1093.47167969 557.471679688 l 2
 1117.08691406 557.471679688 1134.79980469 542.850585938 1134.79980469 517.491210938 c 0
 1134.79980469 492.858398438 1118.10546875 476.163085938 1093.47167969 476.163085938 c 2
 640.971679688 476.163085938 l 1
 662.919921875 425.752929688 671.637695312 379.556640625 671.637695312 330.340820312 c 0
 671.637695312 289.625976562 664.591796875 248.971679688 650.703125 207.305664062 c 0
 631.125 148.56640625 598.64453125 98.96875 554.798828125 62.1953125 c 0
 505.268554688 19.7421875 447.70703125 -0.4619140625 386.611328125 -0.4619140625 c 0
 320.961914062 -0.4619140625 260.514648438 24.2080078125 208.473632812 73.43359375 c 0
 164.77734375 114.3125 132.341796875 168.14453125 114.294921875 232.000976562 c 0
 101.850585938 272.104492188 96.2001953125 312.961914062 96.2001953125 353.23046875 c 0
 96.2001953125 414.663085938 110.197265625 476.178710938 139.45703125 534.701171875 c 0
 146.359375 548.505859375 158.346679688 559.586914062 177.372070312 557.471679688 c 0
EndSplineSet
Validated: 33
EndChar

StartChar: uni0924
Encoding: 2340 2340 31
Width: 1174
VWidth: 0
Flags: W
HStem: 4.5498 85.1055<712.025 901.201> 428.055 86.3281<62.8037 443.05 823.067 962.774>
VStem: 707.852 85.1055<311.775 375.033> 1022.42 88.7764<196.668 365.531>
LayerCount: 2
Fore
SplineSet
312.211914062 514.3828125 m 6
 370.266601562 514.3828125 408.243164062 512.109375 429.10546875 507.934570312 c 4
 452.966796875 502.321289062 476.72265625 490.131835938 503.616210938 468.360351562 c 4
 544.413085938 435.723632812 575.440429688 374.0859375 600.270507812 285.938476562 c 4
 620.920898438 209.411132812 644.045898438 163.353515625 665.626953125 144.856445312 c 4
 707.909179688 107.270507812 750.741210938 89.6552734375 795.692382812 89.6552734375 c 4
 803.100585938 89.6552734375 808.1171875 89.6806640625 814.133789062 90.6826171875 c 6
 814.46484375 90.73828125 l 5
 814.796875 90.77734375 l 6
 914.485351562 102.645507812 977.185546875 142.822265625 1009.14453125 212.447265625 c 4
 1018.07324219 230.305664062 1022.41992188 249.547851562 1022.41992188 273.541992188 c 4
 1022.41992188 284.513671875 1023.49023438 293.705078125 1022.52246094 302.42578125 c 4
 1018.01953125 337.31640625 1004.41699219 364.3515625 987.92578125 384.143554688 c 4
 965.215820312 410.095703125 933.94140625 424.3828125 894.8359375 424.3828125 c 4
 880.423828125 424.3828125 864.09765625 422.103515625 847.72265625 418.59375 c 4
 830.80859375 414.834960938 814.274414062 402.47265625 799.659179688 376.6171875 c 6
 799.202148438 375.805664062 l 5
 798.674804688 375.103515625 l 6
 797.86328125 373.705078125 795.404296875 365.209960938 795.404296875 351.87890625 c 4
 795.404296875 340.833984375 792.95703125 330.654296875 792.95703125 326.17578125 c 6
 792.95703125 311.775390625 l 5
 778.556640625 311.775390625 l 5
 722.251953125 311.775390625 l 5
 707.8515625 311.775390625 l 5
 707.8515625 326.17578125 l 5
 707.8515625 357.998046875 l 6
 707.8515625 385.904296875 717.779296875 407.092773438 725.783203125 420.43359375 c 4
 751.630859375 464.374023438 785.66796875 492.258789062 829.389648438 501.821289062 c 4
 853.13671875 506.821289062 875.97265625 510.709960938 898.5078125 510.709960938 c 4
 962.256835938 510.709960938 1014.50097656 486.744140625 1053.90234375 440.77734375 c 4
 1084.01953125 405.421875 1102.19238281 362.321289062 1108.64746094 311.97265625 c 4
 1109.88476562 300.830078125 1111.19628906 290.627929688 1111.19628906 278.438476562 c 4
 1111.19628906 242.106445312 1103.29199219 207.897460938 1087.77734375 175.577148438 c 4
 1041.4140625 76.412109375 951.334960938 18.484375 824.291992188 4.6474609375 c 4
 812.423828125 3.1650390625 801.733398438 4.5498046875 793.243164062 4.5498046875 c 4
 727.015625 4.5498046875 665.790039062 29.6083984375 608.64453125 80.404296875 c 4
 571.8515625 113.109375 542.200195312 174.41015625 517.436523438 263.556640625 c 4
 496.90234375 337.237304688 472.58203125 382.2109375 450.03515625 400.66015625 c 4
 432.990234375 414.294921875 419.369140625 420.73046875 410.022460938 423.66015625 c 4
 397.818359375 426.548828125 365.0234375 428.0546875 312.211914062 428.0546875 c 6
 77.2041015625 428.0546875 l 5
 62.8037109375 428.0546875 l 5
 62.8037109375 442.455078125 l 5
 62.8037109375 499.982421875 l 5
 62.8037109375 514.3828125 l 5
 77.2041015625 514.3828125 l 5
 312.211914062 514.3828125 l 6
EndSplineSet
Validated: 1
EndChar

StartChar: uni0925
Encoding: 2341 2341 32
Width: 1406
VWidth: 0
Flags: W
HStem: 0.876953 70.5371<859.279 922.206 985.521 1342.13> 10.3008 70.5371<681.548 707.846> 37.2295 70.4258<351.448 397.194 397.57 426.499> 229.764 70.5391<784.813 878.593> 283.619 70.5381<578.872 684.357> 536.742 70.54<159.629 200.698> 725.238 71.8848<233.309 376.633>
VStem: 63.8691 71.8857<446.518 535.442> 209.282 70.5371<440.434 531.438> 271.217 70.5371<114.423 285.761> 417.975 71.8828<501.108 682.57> 602.43 70.54<82.652 175.032> 722.26 70.5371<87.8367 199.888> 922.266 69.8008<72.8072 184.874>
LayerCount: 2
Fore
SplineSet
397.56640625 36.9248046875 m 2x4f7c
 389.559570312 35.439453125 384.870117188 37.2294921875 383.90234375 37.2294921875 c 0
 367.50390625 37.2294921875 350.788085938 40.9033203125 337.147460938 48.1123046875 c 0
 313.51171875 58.7626953125 299.411132812 75.44140625 287.629882812 97.5283203125 c 0
 278.97265625 114.848632812 271.216796875 134.423828125 271.216796875 157.994140625 c 0x2f7c
 271.216796875 213.236328125 279.708984375 276.579101562 312.9609375 345.853515625 c 0
 319.913085938 361.149414062 333.643554688 387.194335938 355.2265625 424.966796875 c 0
 372.676757812 455.8359375 387.502929688 481.65234375 394.84765625 498.794921875 c 0
 411.620117188 540.077148438 417.974609375 575.983398438 417.974609375 609.037109375 c 0
 417.974609375 647.630859375 405.90234375 676.770507812 382.23046875 698.075195312 c 0
 362.260742188 716.869140625 336.870117188 725.23828125 305.811523438 725.23828125 c 0
 276.79296875 725.23828125 249.017578125 715.70703125 223.009765625 695.892578125 c 0
 195.96875 675.091796875 174.888671875 644.533203125 159.513671875 606.926757812 c 1
 166.467773438 607.310546875 171.953125 607.282226562 177.904296875 607.282226562 c 0
 210.09765625 607.282226562 235.129882812 586.775390625 252.451171875 564.166015625 c 0
 270.00390625 542.919921875 279.819335938 519.61328125 279.819335938 490.5546875 c 0x2fbc
 279.819335938 466.53515625 277.08984375 443.99609375 266.107421875 422.032226562 c 0
 252.3828125 396.10546875 232.458984375 379.443359375 206.44921875 371.794921875 c 0
 197.544921875 368.82421875 187.444335938 367.09765625 177.904296875 367.09765625 c 2
 175.76953125 367.09765625 l 1
 127.375976562 381.76171875 l 1
 125.6875 382.84765625 l 2
 104.783203125 396.283203125 87.837890625 414.678710938 77.173828125 439.055664062 c 0
 68.34765625 459.65234375 63.869140625 480.731445312 63.869140625 505.366210938 c 0
 63.869140625 523.822265625 68.1728515625 544.454101562 72.1962890625 565.915039062 c 2
 72.259765625 566.251953125 l 1
 72.3388671875 566.584960938 l 2
 91.6982421875 648.181640625 126.9296875 709.60546875 181.264648438 751.0703125 c 0
 217.938476562 779.28125 258.853515625 797.123046875 304.466796875 797.123046875 c 0
 353.05859375 797.123046875 396.36328125 782.420898438 430.118164062 750.133789062 c 0
 467.727539062 715.416992188 489.857421875 667.990234375 489.857421875 610.384765625 c 0
 489.857421875 567.67578125 479.967773438 521.564453125 459.081054688 471.434570312 c 0
 449.185546875 448.817382812 435.731445312 423.330078125 418.081054688 390.74609375 c 0
 396.483398438 351.603515625 381.547851562 325.59375 376.866210938 315.059570312 c 2
 376.732421875 314.76171875 l 1
 376.586914062 314.46875 l 2
 348.127929688 257.552734375 341.75390625 207.713867188 341.75390625 163.380859375 c 0
 341.75390625 150.546875 345.814453125 141.15625 351.005859375 130.774414062 c 2
 351.151367188 130.481445312 l 1
 351.28515625 130.182617188 l 2
 355.403320312 120.916015625 361.140625 115.68359375 368.418945312 111.8203125 c 0
 377.994140625 107.854492188 382.919921875 106.747070312 390.1953125 107.655273438 c 0
 397.405273438 108.557617188 406.50390625 112.780273438 414.443359375 118.451171875 c 0
 427.576171875 128.302734375 441.638671875 146.788085938 454.5 172.512695312 c 0
 457.880859375 179.274414062 462.2734375 190.715820312 470.1953125 209.1953125 c 0
 477.046875 227.01171875 484.177734375 240.2109375 487.556640625 249.21875 c 2
 487.78125 249.818359375 l 1
 488.427734375 251.163085938 l 2
 506.059570312 287.377929688 526.513671875 313.458984375 553.81640625 331.662109375 c 0
 577.798828125 346.651367188 603.110351562 354.157226562 628.948242188 354.157226562 c 0x2f7c
 645.596679688 354.157226562 661.84765625 351.15234375 679.399414062 345.30078125 c 0
 703.994140625 336.62109375 727.919921875 323.209960938 747.03125 302.626953125 c 0
 749.534179688 300.125 752.310546875 295.670898438 752.935546875 294.616210938 c 0
 766.26953125 298.118164062 775.6953125 300.302734375 789.169921875 300.302734375 c 0
 832.080078125 300.302734375 871.663085938 294.796875 908.796875 271.030273438 c 0
 934.673828125 253.780273438 955.661132812 232.858398438 970.283203125 203.614257812 c 0
 984.720703125 176.180664062 992.06640625 145.30078125 992.06640625 113.561523438 c 0
 992.06640625 98.6240234375 990.775390625 86.3564453125 985.521484375 71.4140625 c 1
 1342.13085938 71.4140625 l 1
 1342.13085938 0.876953125 l 1
 891.49609375 0.876953125 l 2
 869.96875 0.876953125 856.900390625 17.447265625 856.900390625 36.818359375 c 0
 856.900390625 57.0576171875 871.256835938 71.4140625 891.49609375 71.4140625 c 0
 900.172851562 71.4140625 905.298828125 73.6796875 910.93359375 79.3125 c 0
 916.40625 84.787109375 921.043945312 90.216796875 922.265625 93.8828125 c 0
 923.12109375 96.447265625 921.526367188 102.109375 921.526367188 114.91015625 c 0
 921.526367188 136.095703125 917.962890625 153.50390625 908.412109375 171.412109375 c 0
 898.6484375 189.719726562 887.106445312 202.36328125 870.294921875 213.169921875 c 0
 848.439453125 226.970703125 823.516601562 229.763671875 793.209960938 229.763671875 c 0x977c
 790.825195312 229.763671875 786.694335938 229.453125 784.645507812 229.229492188 c 1
 791.021484375 208.1328125 792.796875 191.057617188 792.796875 171.45703125 c 0
 792.796875 147.005859375 788.39453125 119.431640625 778.5234375 92.638671875 c 0
 771.759765625 72.34375 764.211914062 54.77734375 750.8828125 41.44921875 c 0
 742.890625 33.453125 733.809570312 23.7763671875 720.7890625 18.197265625 c 2
 720.484375 18.0654296875 l 1
 720.172851562 17.94921875 l 2
 708.858398438 13.70703125 697.416992188 10.30078125 684.149414062 10.30078125 c 0
 669.834960938 10.30078125 655.995117188 15.767578125 645.001953125 23.619140625 c 0
 636.456054688 29.31640625 626.26953125 38.205078125 619.34765625 49.46875 c 0
 607.786132812 66.6328125 602.4296875 85.7626953125 602.4296875 108.177734375 c 0
 602.4296875 135.828125 608.107421875 164.66796875 621.529296875 191.51171875 c 0
 634.651367188 216.30078125 652.03515625 238.077148438 675.508789062 255.68359375 c 2
 675.829101562 255.923828125 l 1
 676.16015625 256.14453125 l 2
 679.28515625 258.227539062 682.75 260.454101562 685.133789062 261.979492188 c 1
 676.111328125 270.215820312 667.680664062 275.315429688 656.455078125 279.057617188 c 0
 647.111328125 282.5625 638.504882812 283.619140625 630.294921875 283.619140625 c 0
 616.533203125 283.619140625 603.072265625 279.66015625 593.243164062 273.086914062 c 2
 592.427734375 272.515625 l 1
 592.064453125 272.29296875 l 2
 577.88671875 263.567382812 563.294921875 246.138671875 551.75 220.484375 c 0
 547.690429688 212.362304688 542.697265625 201.145507812 536.0234375 183.79296875 c 2
 535.854492188 183.35546875 l 1
 535.657226562 182.928710938 l 2
 527.670898438 165.625976562 522.573242188 152.836914062 518.236328125 142.716796875 c 0
 501.24609375 105.90234375 481.453125 78.388671875 455.331054688 59.94921875 c 0
 439.422851562 49.345703125 413.669921875 39.7392578125 404.537109375 38.216796875 c 0
 403.122070312 37.955078125 397.56640625 36.9248046875 397.56640625 36.9248046875 c 2x4f7c
164.044921875 536.7421875 m 2
 156.201171875 535.547851562 151.625 533.1640625 145.517578125 528.075195312 c 0
 138.655273438 522.0703125 135.754882812 514.798828125 135.754882812 502.673828125 c 0
 135.754882812 487.061523438 136.885742188 477.938476562 141.356445312 467.881835938 c 0
 145.772460938 456.841796875 152.76953125 449.034179688 162.008789062 443.90234375 c 0
 172.579101562 438.030273438 178.32421875 437.4765625 185.206054688 439.494140625 c 0
 193.842773438 442.978515625 197.70703125 446.255859375 203.013671875 455.810546875 c 2
 203.194335938 456.135742188 l 1
 203.392578125 456.451171875 l 2
 207.671875 463.296875 209.282226562 473.682617188 209.282226562 487.862304688 c 0x07bc
 209.282226562 499.9296875 204.198242188 511.771484375 196.158203125 522.106445312 c 0
 188.310546875 532.196289062 179.888671875 536.7421875 172.517578125 536.7421875 c 2
 164.044921875 536.7421875 l 2
720.0546875 200.385742188 m 1
 700.9609375 184.194335938 693.5703125 174.140625 684.697265625 159.208984375 c 0
 675.861328125 141.029296875 672.969726562 126.322265625 672.969726562 109.5234375 c 0
 672.969726562 99.548828125 674.969726562 93.3798828125 678.626953125 87.890625 c 0
 680.055664062 85.75 681.477539062 83.90234375 681.533203125 83.8359375 c 2
 682.455078125 83.52734375 l 1
 684.057617188 82.4599609375 l 2
 685.771484375 81.318359375 686.740234375 80.841796875 686.747070312 80.837890625 c 0x473c
 687.478515625 80.837890625 687.635742188 80.984375 693.063476562 82.7939453125 c 0
 694.344726562 83.220703125 696.61328125 84.455078125 699.548828125 87.390625 c 0
 703.081054688 90.923828125 708.24609375 100.90625 711.99609375 114.657226562 c 2
 712.171875 115.30078125 l 1
 712.40625 115.923828125 l 2
 719.7421875 135.491210938 722.259765625 155.310546875 722.259765625 172.8046875 c 0
 722.259765625 182.854492188 721.57421875 192.047851562 720.0546875 200.385742188 c 1
EndSplineSet
Validated: 1
EndChar

StartChar: uni0926
Encoding: 2342 2342 33
Width: 1336
VWidth: 0
Flags: W
HStem: -199.273 66.7402<404.255 739.597> 16.2764 65.0312<260.938 919.012 1040.78 1199.17> 151.423 65.0322<136.834 513.168> 635.557 78.7168<847.424 969.216> 649.242 65.0312<617.123 717.078>
VStem: 56.4053 80.4287<216.455 702.301> 176.154 78.7197<-45.7344 13.8632> 513.168 78.7188<216.455 623.234> 740.693 80.4287<151.423 611.102> 1038.36 78.7188<215.142 540.475> 1199.17 80.4287<81.3076 702.301>
LayerCount: 2
Fore
SplineSet
276.24609375 16.2763671875 m 2xe7e0
 270.372070312 16.2763671875 264.62109375 14.7294921875 260.755859375 12.150390625 c 0
 256.778320312 9.5009765625 254.874023438 5.8740234375 254.874023438 3.458984375 c 0
 254.874023438 -31.91015625 285.885742188 -64.7705078125 350.422851562 -91.943359375 c 0
 414.486328125 -118.91796875 492.3671875 -132.533203125 585.88671875 -132.533203125 c 0
 662.1640625 -132.533203125 731.388671875 -118.974609375 792.033203125 -90.337890625 c 0
 849.078125 -63.400390625 890.91796875 -27.015625 919.01171875 16.2763671875 c 1
 276.24609375 16.2763671875 l 2xe7e0
56.4052734375 157.422851562 m 1
 56.4052734375 696.30078125 l 1
 56.4052734375 699.30078125 l 1
 56.4052734375 702.30078125 l 1
 59.4052734375 702.30078125 l 1
 62.4052734375 702.30078125 l 1
 130.833984375 702.30078125 l 1
 133.833984375 702.30078125 l 1
 136.833984375 702.30078125 l 1
 136.833984375 699.30078125 l 1
 136.833984375 696.30078125 l 1
 136.833984375 216.455078125 l 1
 513.16796875 216.455078125 l 1
 513.16796875 561.151367188 l 2
 513.16796875 603.629882812 527.537109375 639.594726562 557.69140625 669.747070312 c 0
 587.918945312 699.9765625 625.5625 714.2734375 668 714.2734375 c 0xefe0
 696.107421875 714.2734375 721.201171875 708.993164062 742.875 696.349609375 c 0
 761.077148438 685.731445312 774.360351562 670.333007812 782.151367188 654.418945312 c 1
 795.870117188 673.142578125 811.819335938 685.959960938 832.966796875 696.53515625 c 0
 857.94921875 709.024414062 886.279296875 714.2734375 916.0546875 714.2734375 c 0
 973.219726562 714.2734375 1021.30273438 683.565429688 1059.65917969 624.287109375 c 0
 1098.1015625 564.875 1117.07617188 488.36328125 1117.07617188 393.502929688 c 0
 1117.07617188 328.076171875 1110.20117188 269.3984375 1096.33300781 219.123046875 c 0
 1083.37597656 172.157226562 1064.25097656 125.340820312 1040.77832031 81.3076171875 c 1
 1199.16601562 81.3076171875 l 1
 1199.16601562 696.30078125 l 1
 1199.16601562 699.30078125 l 1
 1199.16601562 702.30078125 l 1
 1202.16601562 702.30078125 l 1
 1205.16601562 702.30078125 l 1
 1273.59472656 702.30078125 l 1
 1276.59472656 702.30078125 l 1
 1279.59472656 702.30078125 l 1
 1279.59472656 699.30078125 l 1
 1279.59472656 696.30078125 l 1
 1279.59472656 22.2763671875 l 1
 1279.59472656 19.2763671875 l 1
 1279.59472656 16.2763671875 l 1
 1276.59472656 16.2763671875 l 1
 1273.59472656 16.2763671875 l 1
 1006.7109375 16.2763671875 l 1
 966.41015625 -50.6669921875 911.763671875 -101.200195312 836.719726562 -140.427734375 c 0
 760.5390625 -180.249023438 677.387695312 -199.2734375 585.88671875 -199.2734375 c 0
 473.955078125 -199.2734375 378.93359375 -178.6015625 299.31640625 -140.5234375 c 0
 219.923828125 -102.552734375 176.154296875 -54.77734375 176.154296875 3.458984375 c 0
 176.154296875 25.8486328125 185.842773438 44.97265625 205.998046875 59.6337890625 c 0
 225.903320312 74.1083984375 249.5 81.3076171875 276.24609375 81.3076171875 c 2
 958.705078125 81.3076171875 l 1
 983.888671875 127.115234375 1004.79003906 174.265625 1018.04492188 222.314453125 c 0
 1031.546875 271.263671875 1038.35742188 328.9140625 1038.35742188 393.502929688 c 0
 1038.35742188 468.181640625 1026.39550781 528.731445312 1001.52539062 571.838867188 c 0
 976.391601562 615.407226562 947.32421875 635.556640625 916.0546875 635.556640625 c 0xf7e0
 889.690429688 635.556640625 867.1640625 629.038085938 847.802734375 614.518554688 c 0
 828.80078125 600.266601562 821.122070312 581.775390625 821.122070312 561.151367188 c 2
 821.122070312 157.422851562 l 1
 821.122070312 154.422851562 l 1
 821.122070312 151.422851562 l 1
 818.122070312 151.422851562 l 1
 815.122070312 151.422851562 l 1
 746.693359375 151.422851562 l 1
 743.693359375 151.422851562 l 1
 740.693359375 151.422851562 l 1
 740.693359375 154.422851562 l 1
 740.693359375 157.422851562 l 1
 740.693359375 561.151367188 l 2
 740.693359375 585.735351562 734.240234375 606.4375 719.809570312 624.072265625 c 0
 705.439453125 641.634765625 688.571289062 649.2421875 668 649.2421875 c 0xefe0
 647.346679688 649.2421875 628.71484375 641.471679688 614.479492188 624.072265625 c 0
 599.87890625 606.227539062 591.88671875 585.430664062 591.88671875 561.151367188 c 2
 591.88671875 157.422851562 l 1
 591.88671875 154.422851562 l 1
 591.88671875 151.422851562 l 1
 588.88671875 151.422851562 l 1
 585.88671875 151.422851562 l 1
 62.4052734375 151.422851562 l 1
 59.4052734375 151.422851562 l 1
 56.4052734375 151.422851562 l 1
 56.4052734375 154.422851562 l 1
 56.4052734375 157.422851562 l 1
EndSplineSet
Validated: 1
EndChar

StartChar: uni0927
Encoding: 2343 2343 34
Width: 1598
VWidth: 0
Flags: W
HStem: -147.929 62.209<371.607 606.274> 125.096 60.4805<416.166 547.542> 135.464 60.4795<958.196 1025.21 1208.94 1523.03> 283.016 64.6445<968.242 1030.49 1101.39 1145.68> 330.729 60.4795<484.504 576.088 646.937 727.892> 527.72 60.4805<484.504 576.088 646.937 809.369> 743.72 62.209<404.53 765.884>
VStem: 74.9688 67.3906<180.99 482.644> 303.063 72.5771<224.896 324.863> 411.929 72.5752<391.208 527.72> 576.088 70.8486<214.442 330.729 391.208 527.72> 781.72 72.5762<83.5236 271.759> 881.943 70.8486<203.507 266.079> 1030.56 70.832<198.279 283.016 343.885 483.289> 1148.06 72.5742<196.335 277.757>
LayerCount: 2
Fore
SplineSet
484.50390625 391.208007812 m 1x8ffe
 576.087890625 391.208007812 l 1
 576.087890625 527.719726562 l 1
 484.50390625 527.719726562 l 1
 484.50390625 391.208007812 l 1x8ffe
1030.5625 283.015625 m 1xb7fe
 1018.52539062 281.537109375 1009.64355469 280.090820312 1002.00195312 277.543945312 c 0
 966.977539062 267.537109375 952.791992188 251.129882812 952.791992188 230.50390625 c 0
 952.791992188 218.107421875 955.450195312 212.416992188 960.62890625 207.237304688 c 0
 967.069335938 200.796875 978.178710938 195.943359375 999.448242188 195.943359375 c 0
 1005.68847656 195.943359375 1010.25292969 198.231445312 1014.07421875 202.052734375 c 0
 1020.07226562 208.05078125 1027.73242188 218.765625 1030.78320312 232.489257812 c 0
 1033.35742188 242.7890625 1030.85546875 260.827148438 1030.5625 283.015625 c 1xb7fe
486.231445312 185.576171875 m 0xcffe
 510.225585938 185.576171875 532.2109375 193.495117188 549.5390625 209.25 c 0
 567.356445312 225.446289062 576.087890625 241.887695312 576.087890625 263.3359375 c 2
 576.087890625 330.728515625 l 1
 420.568359375 330.728515625 l 2
 407.0546875 330.728515625 397.583984375 326.62890625 388.662109375 317.70703125 c 0
 379.739257812 308.78515625 375.640625 299.314453125 375.640625 285.799804688 c 0
 375.640625 258.837890625 386.658203125 233.552734375 407.419921875 214.389648438 c 0
 428.125 195.27734375 455.216796875 185.576171875 486.231445312 185.576171875 c 0xcffe
1128.9609375 277.911132812 m 0
 1125.07421875 279.465820312 1111.06054688 281.791992188 1101.39453125 283.022460938 c 1
 1101.23632812 256.689453125 1099.58496094 237.852539062 1096.04785156 220.168945312 c 2
 1096.0078125 219.967773438 l 1
 1095.95800781 219.768554688 l 2
 1090.58496094 198.276367188 1083.18457031 181.44921875 1072.0234375 166.568359375 c 2
 1071.79296875 166.259765625 l 1
 1071.53320312 165.97265625 l 2
 1054.30273438 146.825195312 1029.31640625 135.463867188 999.448242188 135.463867188 c 0
 958.333007812 135.463867188 926.0546875 146.346679688 905.078125 169.231445312 c 0
 889.640625 184.66796875 881.943359375 206.32421875 881.943359375 230.50390625 c 0
 881.943359375 251.696289062 889.756835938 272.8359375 906.655273438 291.612304688 c 0
 924.911132812 311.693359375 947.158203125 326.490234375 978.084960938 335.5859375 c 0
 993.841796875 339.8828125 1013.81054688 346.2265625 1030.49121094 347.66015625 c 1xb7fe
 1028.79296875 457.354492188 996.73828125 546.4296875 930.694335938 624.032226562 c 0
 862.212890625 702.534179688 747.594726562 743.719726562 584.728515625 743.719726562 c 0
 420.07421875 743.719726562 307.365234375 702.541992188 242.3203125 624.155273438 c 0
 176.272460938 544.55859375 142.359375 446.463867188 142.359375 334.18359375 c 0
 142.359375 216.642578125 176.305664062 116.82421875 242.377929688 35.50390625 c 0
 308.358398438 -45.7021484375 390.348632812 -85.7197265625 486.231445312 -85.7197265625 c 0
 569.083007812 -85.7197265625 637.47265625 -60.6025390625 694.583984375 -6.8525390625 c 0
 751.845703125 47.0419921875 781.719726562 111.985351562 781.719726562 187.303710938 c 0
 781.719726562 227.047851562 770.279296875 259.552734375 748.936523438 287.463867188 c 0
 727.66015625 315.288085938 700.712890625 330.728515625 671.12890625 330.728515625 c 2
 646.936523438 330.728515625 l 1
 646.936523438 263.3359375 l 2
 646.936523438 224.297851562 629.815429688 192.388671875 599.084960938 165.272460938 c 0
 567.98046875 137.827148438 529.403320312 125.095703125 486.231445312 125.095703125 c 0xcffe
 436.135742188 125.095703125 394.077148438 139.642578125 357.948242188 170.352539062 c 0
 321.600585938 201.248046875 303.063476562 241.817382812 303.063476562 285.799804688 c 0
 303.063476562 314.611328125 316.7109375 339.40625 338.698242188 359.560546875 c 0
 359.330078125 378.47265625 387.521484375 389.162109375 411.928710938 390.91015625 c 1
 411.928710938 579.559570312 l 1
 411.928710938 583.880859375 l 1
 411.928710938 588.200195312 l 1
 416.248046875 588.200195312 l 1
 420.568359375 588.200195312 l 1
 800.728515625 588.200195312 l 1
 805.047851562 588.200195312 l 1
 809.369140625 588.200195312 l 1
 809.369140625 583.880859375 l 1
 809.369140625 579.559570312 l 1
 809.369140625 536.359375 l 1
 809.369140625 532.040039062 l 1
 809.369140625 527.719726562 l 1
 805.047851562 527.719726562 l 1
 800.728515625 527.719726562 l 1
 646.936523438 527.719726562 l 1
 646.936523438 391.208007812 l 1
 671.12890625 391.208007812 l 2
 722.103515625 391.208007812 761.064453125 370.61328125 796.751953125 331.35546875 c 0
 832.533203125 291.997070312 854.295898438 243.197265625 854.295898438 187.303710938 c 0
 854.295898438 95.083984375 818.51953125 14.75 746.036132812 -50.662109375 c 0
 673.603515625 -116.029296875 586.611328125 -147.928710938 486.231445312 -147.928710938 c 0
 372.983398438 -147.928710938 277.095703125 -99.7841796875 196.315429688 -6.7119140625 c 0
 115.408203125 86.5078125 74.96875 201.076171875 74.96875 334.18359375 c 0
 74.96875 463.899414062 115.46875 575.046875 196.368164062 666.5 c 0
 278.03515625 758.819335938 407.064453125 805.928710938 584.728515625 805.928710938 c 0
 764.078125 805.928710938 896.541992188 758.890625 978.271484375 666.5 c 0
 1057.64648438 576.771484375 1097.77929688 468.80078125 1099.61328125 347.651367188 c 1
 1126.99609375 345.102539062 1142.78808594 336.171875 1160.41796875 328.158203125 c 0
 1196.7734375 309.981445312 1220.63085938 283.302734375 1220.63085938 246.056640625 c 0
 1220.63085938 230.322265625 1214.84375 212.166015625 1208.94335938 195.943359375 c 1
 1514.39257812 195.943359375 l 1
 1518.71191406 195.943359375 l 1
 1523.03125 195.943359375 l 1
 1523.03125 191.623046875 l 1
 1523.03125 187.303710938 l 1
 1523.03125 144.103515625 l 1
 1523.03125 139.783203125 l 1
 1523.03125 135.463867188 l 1
 1518.71191406 135.463867188 l 1
 1514.39257812 135.463867188 l 1
 1106.58300781 135.463867188 l 1
 1097.66894531 135.463867188 l 1
 1088.75585938 135.463867188 l 1xaffe
 1094.27832031 142.4609375 l 1
 1099.80273438 149.45703125 l 1
 1125.68847656 182.24609375 l 2
 1141.84179688 203.245117188 1148.05664062 223.607421875 1148.05664062 246.056640625 c 0
 1148.05664062 260.822265625 1143.33691406 270.723632812 1128.9609375 277.911132812 c 0
EndSplineSet
Validated: 33
EndChar

StartChar: uni0928
Encoding: 2344 2344 35
Width: 1480
VWidth: 0
Flags: W
HStem: -3.33984 62.209<244.33 326.326 523.224 633.704> 193.652 60.4785<243.296 327.277> 290.42 62.209<852.33 923.156 1136.61 1388> 411.381 60.4785<258.904 410.751> 684.404 63.9355<611.647 802.464>
VStem: 92 60.4805<117.412 303.93> 167.503 61.0088<117.582 180.058> 342.56 60.4805<74.3207 180.32> 439.328 72.5762<70.6318 383.042> 494.623 70.8486<519.972 640.499> 689.889 67.3916<120.527 295.571> 779.743 65.665<359.284 446.831> 931.808 69.1211<365.497 480.012> 1076.96 63.9365<356.588 459.543>
LayerCount: 2
Fore
SplineSet
892.063476562 352.62890625 m 0xff3c
 903.6796875 352.62890625 913.072265625 356.772460938 919.986328125 365.0703125 c 0
 927.557617188 374.154296875 931.807617188 384.037109375 931.807617188 397.556640625 c 0
 931.807617188 418.7890625 933.44140625 435.947265625 931.860351562 450.169921875 c 0
 930.657226562 461.009765625 927.153320312 472.409179688 924.501953125 480.388671875 c 1
 900.107421875 472.96484375 883.3671875 463.041015625 868.796875 448.471679688 c 0
 852.751953125 432.424804688 845.408203125 415.73046875 845.408203125 397.556640625 c 0
 845.408203125 384.79296875 850.79296875 375.014648438 860.157226562 365.649414062 c 0
 869.060546875 356.745117188 878.576171875 352.62890625 892.063476562 352.62890625 c 0xff3c
285.536132812 58.869140625 m 0
 302.923828125 58.869140625 315.166015625 63.146484375 325.372070312 76.267578125 c 0
 336.345703125 90.3779296875 342.559570312 107.47265625 342.559570312 126.259765625 c 0
 342.559570312 144.975585938 336.521484375 160.189453125 325.372070312 174.5234375 c 0
 314.868164062 188.028320312 302.283203125 193.65234375 285.536132812 193.65234375 c 0
 268.788085938 193.65234375 256.203125 188.028320312 245.701171875 174.5234375 c 0
 234.55078125 160.189453125 228.51171875 144.975585938 228.51171875 126.259765625 c 0
 228.51171875 107.47265625 234.7265625 90.3779296875 245.701171875 76.267578125 c 0
 255.905273438 63.146484375 268.1484375 58.869140625 285.536132812 58.869140625 c 0
1139.01171875 421.705078125 m 0
 1141.22167969 412.872070312 1140.89648438 401.135742188 1140.89648438 394.099609375 c 0
 1140.89648438 381.73046875 1139.11328125 366.796875 1136.61328125 356.083007812 c 1
 1379.359375 356.083007812 l 1
 1388 356.083007812 l 1
 1388 347.443359375 l 1
 1388 299.059570312 l 1
 1388 290.419921875 l 1
 1379.359375 290.419921875 l 1
 1033.75976562 290.419921875 l 1
 1016.48046875 290.419921875 l 1
 1026.84765625 304.243164062 l 1
 1058.03320312 345.823242188 l 2
 1070.93066406 361.946289062 1076.95996094 378.630859375 1076.95996094 399.283203125 c 0
 1076.95996094 406.069335938 1078.29492188 413.6171875 1077.21777344 417.923828125 c 2
 1077.09082031 418.430664062 l 1
 1077.02636719 418.948242188 l 2
 1073.97949219 443.31640625 1061.02441406 458.125 1036.70605469 471.094726562 c 0
 1021.29492188 478.80078125 1004.73144531 484.486328125 991.002929688 486.525390625 c 1
 994.142578125 476.37109375 996.225585938 468.005859375 997.419921875 457.26171875 c 0
 999.1640625 441.565429688 1000.92871094 422.154296875 1000.92871094 397.556640625 c 0
 1000.92871094 369.275390625 989.52734375 342.833007812 969.021484375 322.326171875 c 0
 948.489257812 301.793945312 921.94921875 290.419921875 892.063476562 290.419921875 c 0
 862.146484375 290.419921875 835.728515625 301.829101562 813.650390625 322.067382812 c 0
 791.228515625 342.619140625 779.743164062 369.255859375 779.743164062 397.556640625 c 0
 779.743164062 432.686523438 793.014648438 462.69921875 818.356445312 489.8515625 c 0
 841.778320312 514.947265625 868.7421875 529.154296875 901.8046875 537.125 c 1
 887.099609375 582.283203125 865.849609375 614.995117188 834.627929688 641.532226562 c 0
 802.143554688 669.143554688 754.303710938 684.404296875 688.16015625 684.404296875 c 0
 653.55078125 684.404296875 624.744140625 674.689453125 600.506835938 653.681640625 c 0
 576.135742188 632.560546875 565.471679688 609.249023438 565.471679688 582.452148438 c 0xff7c
 565.471679688 564.190429688 573.169921875 543.237304688 590.078125 516.18359375 c 0
 606.771484375 489.47265625 630.657226562 462.09375 661.34375 431.40625 c 0
 691.397460938 403.12109375 716.428710938 367.403320312 732.443359375 328.250976562 c 0
 748.337890625 289.403320312 757.280273438 250.169921875 757.280273438 207.4765625 c 0
 757.280273438 150.546875 741.119140625 99.8642578125 705.047851562 58.3837890625 c 0
 668.795898438 16.69140625 619.599609375 -3.33984375 568.928710938 -3.33984375 c 0
 533.991210938 -3.33984375 500.813476562 9.4951171875 476.666992188 31.7841796875 c 0
 452.663085938 53.94140625 439.328125 82.291015625 439.328125 114.1640625 c 2
 439.328125 331.892578125 l 2
 439.328125 353.4375 430.372070312 371.713867188 412.779296875 387.70703125 c 0
 395.28125 403.614257812 375.12109375 411.380859375 351.200195312 411.380859375 c 0
 296.34375 411.380859375 248.61328125 391.61328125 210.428710938 353.431640625 c 0
 172.24609375 315.247070312 152.48046875 267.516601562 152.48046875 212.66015625 c 0
 152.48046875 180.736328125 157.55078125 150.328125 164.244140625 126.905273438 c 0
 165.232421875 123.440429688 166.693359375 119.060546875 167.502929688 116.754882812 c 1
 167.810546875 124.994140625 168.03125 129.323242188 168.03125 136.62890625 c 0
 168.03125 168.48046875 181.290039062 196.665039062 203.39453125 218.768554688 c 0
 225.5 240.874023438 253.68359375 254.130859375 285.536132812 254.130859375 c 0
 317.772460938 254.130859375 345.96875 238.840820312 367.916015625 215.064453125 c 0
 389.943359375 191.201171875 403.040039062 161.310546875 403.040039062 126.259765625 c 0
 403.040039062 91.3251953125 390.205078125 58.1455078125 367.916015625 34 c 0
 345.758789062 9.99609375 317.409179688 -3.33984375 285.536132812 -3.33984375 c 0
 232.9140625 -3.33984375 185.5390625 18.6513671875 147.828125 59.9541015625 c 0
 109.952148438 101.4375 92 153.875976562 92 212.66015625 c 0
 92 284.221679688 120.83984375 345.301757812 170.5625 395.025390625 c 0
 220.315429688 444.779296875 279.756835938 471.859375 351.200195312 471.859375 c 0
 394.37109375 471.859375 432.9453125 459.130859375 464.052734375 431.681640625 c 0
 494.90625 404.458007812 511.904296875 370.845703125 511.904296875 331.892578125 c 2
 511.904296875 114.1640625 l 2xffbc
 511.904296875 97.462890625 517.529296875 86.197265625 528.381835938 75.345703125 c 0
 538.963867188 64.763671875 552.111328125 58.869140625 568.928710938 58.869140625 c 0
 602.7578125 58.869140625 629.3125 71.2119140625 653.874023438 100.6875 c 0
 678.364257812 130.075195312 689.888671875 165.899414062 689.888671875 207.4765625 c 0
 689.888671875 238.735351562 681.75390625 268.359375 664.87890625 302.109375 c 0
 647.94140625 335.985351562 626.177734375 367.794921875 595.73828125 396.541992188 c 0
 563.984375 428.297851562 539.42578125 459.828125 521.631835938 491.85546875 c 0
 503.838867188 523.883789062 494.623046875 554.610351562 494.623046875 582.452148438 c 0xff7c
 494.623046875 628.189453125 513.314453125 667.123046875 551.209960938 699.603515625 c 0
 589.143554688 732.119140625 636.240234375 748.33984375 688.16015625 748.33984375 c 0
 767.2890625 748.33984375 830.044921875 728.92578125 876.908203125 689.271484375 c 0
 921.439453125 651.592773438 952.458984375 603.85546875 969.275390625 546.923828125 c 1
 977.509765625 547.83984375 l 1
 977.985351562 547.892578125 l 1
 978.463867188 547.892578125 l 2
 1004.28808594 547.892578125 1031.64257812 540.49609375 1058.52246094 526.161132812 c 0
 1103.23632812 502.908203125 1131.63574219 471.495117188 1139.01171875 421.705078125 c 0
EndSplineSet
Validated: 33
EndChar

StartChar: uni0929
Encoding: 2345 2345 36
Width: 1228
VWidth: 0
Flags: W
HStem: -194.4 57.6006<531.257 742.189> 74.8809 56.1592<476.37 560.72 631.28 796.881 867.44 1080.56> 424.8 56.1602<396.134 538.441 653.96 796.881 867.44 979.76> 640.8 57.6006<147.44 302.96 372.08 585.2>
VStem: 75.4404 72<131.04 640.8> 302.96 70.5596<131.04 402.499 460.8 640.8> 383.6 72<-67.393 55.5087> 560.72 70.5605<131.04 402.499> 796.881 70.5596<-85.9067 74.8809 131.04 424.8> 1080.56 72<131.04 387.359>
LayerCount: 2
Fore
SplineSet
639.919921875 -136.799804688 m 0
 693.200195312 -136.799804688 732.080078125 -125.280273438 758 -103.680664062 c 0
 783.919921875 -82.080078125 796.880859375 -54.7197265625 796.880859375 -24.48046875 c 2
 796.880859375 74.880859375 l 1
 526.16015625 74.880859375 l 2
 506 74.880859375 488.719726562 67.6806640625 475.759765625 54.7197265625 c 0
 462.799804688 41.759765625 455.599609375 24.48046875 455.599609375 4.3193359375 c 0
 455.599609375 -34.5595703125 471.440429688 -67.6806640625 501.680664062 -95.0400390625 c 0
 531.919921875 -122.400390625 578 -136.799804688 639.919921875 -136.799804688 c 0
1080.55957031 131.040039062 m 1
 1080.55957031 387.359375 l 1
 1152.55957031 387.359375 l 1
 1152.55957031 74.880859375 l 1
 867.440429688 74.880859375 l 1
 867.440429688 -24.48046875 l 2
 867.440429688 -72 847.280273438 -110.880859375 808.400390625 -144 c 0
 769.51953125 -177.119140625 713.359375 -194.400390625 639.919921875 -194.400390625 c 0
 557.83984375 -194.400390625 495.919921875 -174.240234375 451.280273438 -135.359375 c 0
 406.640625 -96.48046875 383.599609375 -50.400390625 383.599609375 4.3193359375 c 0
 383.599609375 38.880859375 399.440429688 69.119140625 426.799804688 93.599609375 c 0
 454.16015625 118.080078125 487.280273438 131.040039062 526.16015625 131.040039062 c 2
 560.719726562 131.040039062 l 1
 560.719726562 339.83984375 l 2
 560.719726562 364.319335938 553.51953125 384.48046875 540.559570312 400.319335938 c 0
 527.599609375 416.16015625 503.119140625 424.799804688 467.119140625 424.799804688 c 0
 431.119140625 424.799804688 406.640625 416.16015625 393.680664062 400.319335938 c 0
 380.719726562 384.48046875 373.51953125 364.319335938 373.51953125 339.83984375 c 2
 373.51953125 131.040039062 l 1
 302.959960938 131.040039062 l 1
 302.959960938 640.799804688 l 1
 147.440429688 640.799804688 l 1
 147.440429688 131.040039062 l 1
 75.4404296875 131.040039062 l 1
 75.4404296875 698.400390625 l 1
 585.200195312 698.400390625 l 1
 585.200195312 640.799804688 l 1
 372.080078125 640.799804688 l 1
 372.080078125 460.799804688 l 1
 398 475.200195312 429.680664062 480.959960938 467.119140625 480.959960938 c 0
 520.400390625 480.959960938 562.16015625 466.559570312 590.959960938 439.200195312 c 0
 592.400390625 436.319335938 593.83984375 436.319335938 596.719726562 433.440429688 c 1
 602.48046875 439.200195312 l 2
 629.83984375 466.559570312 671.599609375 480.959960938 724.880859375 480.959960938 c 2
 979.759765625 480.959960938 l 1
 979.759765625 424.799804688 l 1
 867.440429688 424.799804688 l 1
 867.440429688 131.040039062 l 1
 1080.55957031 131.040039062 l 1
631.280273438 131.040039062 m 1
 796.880859375 131.040039062 l 1
 796.880859375 424.799804688 l 1
 724.880859375 424.799804688 l 2
 688.880859375 424.799804688 664.400390625 416.16015625 651.440429688 400.319335938 c 0
 638.48046875 384.48046875 631.280273438 364.319335938 631.280273438 339.83984375 c 2
 631.280273438 131.040039062 l 1
EndSplineSet
Validated: 1
EndChar

StartChar: uni092A
Encoding: 2346 2346 37
Width: 1284
VWidth: 0
Flags: W
HStem: -100.141 57.6006<383.353 485.033> -91.5 56.1602<678.507 763.408 938.641 1218> 105.78 56.1602<797.68 867.266> 125.94 59.04<571.44 651.488> 291.54 64.6406<133.6 502.4>
VStem: 66 67.5996<356.181 745.141> 316.56 57.6006<-28.8396 72.7054> 502.4 67.5996<356.181 745.141> 512.4 57.5996<-13.451 291.54> 611.76 56.1602<-25.5776 68.3133> 774.48 57.5996<-23.2598 68.6684> 896.881 57.5996<-34.3778 85.5401>
LayerCount: 2
Fore
SplineSet
66 291.540039062 m 1x0ef0
 66 745.140625 l 1
 133.599609375 745.140625 l 1
 133.599609375 356.180664062 l 1
 502.400390625 356.180664062 l 1
 502.400390625 745.140625 l 1
 570 745.140625 l 1x0f70
 570 110.099609375 l 1
 512.400390625 110.099609375 l 1
 512.400390625 291.540039062 l 1
 66 291.540039062 l 1x0ef0
541.200195312 184.98046875 m 0x9ef0
 591.599609375 184.98046875 653.51953125 173.459960938 724.080078125 151.859375 c 1
 747.119140625 159.059570312 771.599609375 161.940429688 798.959960938 161.940429688 c 0
 837.83984375 161.940429688 870.959960938 154.740234375 896.880859375 138.900390625 c 0
 934.319335938 117.299804688 954.48046875 84.1806640625 954.48046875 40.98046875 c 0
 954.48046875 17.9404296875 948.719726562 -6.5400390625 938.640625 -35.33984375 c 1
 1218 -35.33984375 l 1
 1218 -91.5 l 1
 842.16015625 -91.5 l 1
 870.959960938 -49.740234375 l 2
 888.240234375 -20.9404296875 896.880859375 9.2998046875 896.880859375 40.98046875 c 0
 896.880859375 62.580078125 886.799804688 79.859375 868.080078125 89.9404296875 c 0
 850.799804688 100.01953125 827.759765625 105.780273438 798.959960938 105.780273438 c 2
 797.51953125 105.780273438 l 1
 820.559570312 81.2998046875 832.080078125 52.5 832.080078125 20.8193359375 c 0
 832.080078125 -10.859375 823.440429688 -36.7802734375 804.719726562 -58.380859375 c 0
 784.559570312 -81.419921875 755.759765625 -91.5 721.200195312 -91.5 c 0x6ef0
 686.640625 -91.5 659.280273438 -79.98046875 637.680664062 -55.5 c 0
 620.400390625 -33.900390625 611.759765625 -9.419921875 611.759765625 22.259765625 c 0
 611.759765625 55.380859375 624.719726562 82.740234375 653.51953125 110.099609375 c 1
 623.280273438 117.299804688 595.919921875 125.940429688 571.440429688 125.940429688 c 1
 571.440429688 69.7802734375 567.119140625 29.4599609375 559.919921875 3.5400390625 c 0
 551.280273438 -25.259765625 538.319335938 -49.740234375 519.599609375 -67.01953125 c 0
 496.559570312 -88.619140625 467.759765625 -100.140625 433.200195312 -100.140625 c 0
 390 -100.140625 359.759765625 -85.740234375 338.16015625 -58.380859375 c 0
 323.759765625 -38.2197265625 316.559570312 -15.1806640625 316.559570312 13.619140625 c 0
 316.559570312 42.419921875 323.759765625 69.7802734375 341.040039062 95.7001953125 c 0
 358.319335938 123.059570312 384.240234375 144.66015625 415.919921875 160.5 c 1
 417.359375 160.5 l 1
 446.16015625 173.459960938 477.83984375 183.540039062 512.400390625 183.540039062 c 1
 518.16015625 183.540039062 l 1
 531.119140625 184.98046875 538.319335938 184.98046875 541.200195312 184.98046875 c 0x9ef0
512.400390625 125.940429688 m 1x9ef0
 486.48046875 123.059570312 462 114.419921875 440.400390625 105.780273438 c 0x2ef0
 418.799804688 95.7001953125 401.51953125 82.740234375 390 64.01953125 c 0
 379.919921875 48.1806640625 374.16015625 30.900390625 374.16015625 13.619140625 c 0
 374.16015625 -2.2197265625 377.040039062 -13.740234375 384.240234375 -23.8193359375 c 0
 392.880859375 -36.7802734375 408.719726562 -42.5400390625 433.200195312 -42.5400390625 c 0
 453.359375 -42.5400390625 469.200195312 -36.7802734375 480.719726562 -25.259765625 c 0
 490.799804688 -15.1806640625 499.440429688 -2.2197265625 505.200195312 17.9404296875 c 0
 510.959960938 39.5400390625 512.400390625 75.5400390625 512.400390625 125.940429688 c 1x9ef0
722.640625 91.380859375 m 1
 703.919921875 82.740234375 690.959960938 71.2197265625 680.880859375 56.8193359375 c 0
 672.240234375 45.2998046875 667.919921875 33.7802734375 667.919921875 22.259765625 c 0
 667.919921875 4.98046875 673.680664062 -7.98046875 682.319335938 -18.0595703125 c 0
 690.959960938 -29.580078125 703.919921875 -35.33984375 721.200195312 -35.33984375 c 0x4e70
 738.48046875 -35.33984375 752.880859375 -29.580078125 761.51953125 -19.5 c 0
 770.16015625 -10.859375 774.48046875 3.5400390625 774.48046875 20.8193359375 c 0
 774.48046875 33.7802734375 768.719726562 46.740234375 758.640625 61.140625 c 0
 748.559570312 74.099609375 737.040039062 84.1806640625 722.640625 91.380859375 c 1
EndSplineSet
Validated: 5
EndChar

StartChar: uni092B
Encoding: 2347 2347 38
Width: 1330
VWidth: 0
Flags: W
HStem: -195.2 61.9199<371.237 609.648> 300.16 59.04<621.294 734.507> 516.16 59.04<410.119 532.52 603.08 761.48> 641.44 57.5996<913.798 1092.7> 802.72 59.04<413.511 671.575>
VStem: 70.2803 59.0391<177.466 509.31> 339.56 70.5596<107.2 516.16> 532.52 69.1211<107.2 280.72 337.852 516.16> 783.08 59.0391<28.6075 247.96> 1200.68 59.0391<804.743 899.2>
LayerCount: 2
Fore
SplineSet
601.640625 253.631835938 m 1
 601.640625 114.400390625 l 1
 601.640625 107.200195312 l 1
 594.440429688 107.200195312 l 1
 539.719726562 107.200195312 l 1
 532.51953125 107.200195312 l 1
 532.51953125 114.400390625 l 1
 532.51953125 516.16015625 l 1
 410.119140625 516.16015625 l 1
 410.119140625 114.400390625 l 1
 410.119140625 107.200195312 l 1
 402.919921875 107.200195312 l 1
 346.759765625 107.200195312 l 1
 339.559570312 107.200195312 l 1
 339.559570312 114.400390625 l 1
 339.559570312 568 l 1
 339.559570312 575.200195312 l 1
 346.759765625 575.200195312 l 1
 754.280273438 575.200195312 l 1
 761.48046875 575.200195312 l 1
 761.48046875 568 l 1
 761.48046875 523.359375 l 1
 761.48046875 516.16015625 l 1
 754.280273438 516.16015625 l 1
 603.080078125 516.16015625 l 1
 603.080078125 337.8515625 l 1
 625.362304688 352.157226562 649.79296875 359.200195312 676.51953125 359.200195312 c 0
 682.193359375 359.200195312 688.860351562 359.178710938 696.5390625 357.642578125 c 0
 723.33203125 353.177734375 749.056640625 342.6484375 771.833007812 324.42578125 c 0
 792.775390625 306.474609375 809.170898438 287.185546875 821.328125 261.3515625 c 0
 834.771484375 229.983398438 842.119140625 196.044921875 842.119140625 157.599609375 c 0
 842.119140625 142.224609375 839.240234375 127.9140625 839.240234375 112.959960938 c 0
 839.240234375 6.150390625 775.338867188 -76.5 693.609375 -133.418945312 c 0
 634.916015625 -174.50390625 571.379882812 -195.200195312 499.400390625 -195.200195312 c 0
 488.485351562 -195.200195312 475.11328125 -196.706054688 461.193359375 -195.159179688 c 0
 379.020507812 -186.354492188 305.540039062 -152.510742188 241.17578125 -95.4619140625 c 0
 148.825195312 -13.37109375 94.955078125 106.62109375 76.09765625 258.931640625 c 0
 71.734375 292.37890625 70.2802734375 324.426757812 70.2802734375 354.880859375 c 0
 70.2802734375 471.220703125 97.9814453125 572.154296875 156.48046875 658.440429688 c 0
 214.952148438 744.685546875 295.66015625 804.822265625 397.852539062 836.939453125 c 0
 447.353515625 852.954101562 497.126953125 861.759765625 546.919921875 861.759765625 c 0
 610.181640625 861.759765625 674.5 844.141601562 735.647460938 816.479492188 c 2
 736.184570312 816.237304688 l 1
 736.673828125 815.911132812 l 2
 739.706054688 813.889648438 781.08984375 793.018554688 858.671875 748.479492188 c 0
 905.696289062 721.405273438 946.59765625 706.016601562 979.875976562 701.856445312 c 0
 990.102539062 700.396484375 999.724609375 699.040039062 1009.16015625 699.040039062 c 0
 1054.6640625 699.040039062 1094.80175781 716.8828125 1132.72460938 747.783203125 c 0
 1177.25683594 785.357421875 1200.68066406 833.607421875 1200.68066406 892 c 2
 1200.68066406 899.200195312 l 1
 1207.88085938 899.200195312 l 1
 1252.51953125 899.200195312 l 1
 1259.71972656 899.200195312 l 1
 1259.71972656 892 l 2
 1259.71972656 815.049804688 1228.39160156 750.940429688 1170.76269531 702.177734375 c 0
 1123.5625 662.352539062 1069.95214844 641.440429688 1010.59960938 641.440429688 c 0
 999.594726562 641.440429688 986.49609375 639.9140625 972.252929688 641.49609375 c 0
 930.170898438 647.5078125 882.272460938 668.015625 829.958007812 697.080078125 c 0
 755.469726562 739.244140625 715.456054688 762.576171875 711.59765625 764.23828125 c 2
 711.3046875 764.3359375 l 1
 710.943359375 764.501953125 l 2
 655.736328125 789.982421875 596.24609375 802.719726562 539.719726562 802.719726562 c 0
 497.3046875 802.719726562 457.9453125 795.711914062 415.227539062 781.473632812 c 0
 325.866210938 753.104492188 256.829101562 700.948242188 205.8359375 625.874023438 c 0
 154.90625 550.895507812 129.319335938 460.275390625 129.319335938 354.880859375 c 0
 129.319335938 326.290039062 130.740234375 296.477539062 135.020507812 265.083984375 c 0
 152.170898438 125.025390625 200.510742188 20.4228515625 281.000976562 -51.59375 c 0
 334.939453125 -99.85546875 398.15234375 -133.280273438 466.280273438 -133.280273438 c 0
 539.252929688 -133.280273438 602.10546875 -124.728515625 659.428710938 -84.18359375 c 0
 729.049804688 -35.8740234375 783.080078125 31.2626953125 783.080078125 118.719726562 c 2
 783.080078125 160.48046875 l 2
 783.080078125 188.633789062 778.91796875 213.185546875 767.950195312 235.12109375 c 0
 759.700195312 252.995117188 747.560546875 267.801757812 733.911132812 278.72265625 c 0
 718.928710938 290.981445312 703.72265625 297.479492188 688.887695312 300.16015625 c 2
 676.51953125 300.16015625 l 2
 659.265625 300.16015625 643.767578125 295.059570312 628.795898438 284.170898438 c 0
 617.404296875 276.576171875 608.025390625 264.564453125 601.640625 253.631835938 c 1
EndSplineSet
Validated: 33
EndChar

StartChar: uni092C
Encoding: 2348 2348 39
Width: 1388
VWidth: 0
Flags: W
HStem: -201.225 59.7656<623.687 836.046> -5.27148 58.2119<554.469 967.007 1066.58 1264.42> 153.36 59.7666<314.983 644.698> 374.199 58.209<123.68 820.46 907.951 1006.26> 472.177 59.7666<535.77 643.834> 680.573 70.6514<538.434 696.634>
VStem: 52.9229 70.6533<323.296 374.104> 455.72 59.7666<551.118 656.715> 483.714 70.6523<-83.4106 -5.36572> 664.116 59.7676<551.498 657.11> 847.67 70.6133<432.933 587.023> 1006.26 72.207<53.9818 374.199 432.408 738.784> 1264.42 70.6533<52.9404 617.479>
LayerCount: 2
Fore
SplineSet
589.80078125 531.943359375 m 4xff78
 610.604492188 531.943359375 627.881835938 537.770507812 642.443359375 550.876953125 c 4
 657.055664062 564.02734375 664.116210938 579.637695312 664.116210938 598.481445312 c 4
 664.116210938 620.69140625 656.755859375 641.192382812 642.087890625 657.325195312 c 4
 627.4296875 673.451171875 610.3046875 680.573242188 589.80078125 680.573242188 c 4
 569.297851562 680.573242188 552.172851562 673.451171875 537.513671875 657.325195312 c 4
 522.846679688 641.19140625 515.486328125 620.69140625 515.486328125 598.481445312 c 4
 515.486328125 579.635742188 522.548828125 564.026367188 537.159179688 550.876953125 c 4
 551.814453125 537.686523438 567.416992188 531.943359375 589.80078125 531.943359375 c 4xff78
720.439453125 -141.458984375 m 4
 777.162109375 -141.458984375 827.549804688 -127.6953125 871.875 -101.709960938 c 4
 913.643554688 -77.224609375 944.944335938 -43.7197265625 967.006835938 -5.271484375 c 5
 574.249023438 -5.271484375 l 6
 569.696289062 -5.271484375 564.603515625 -7.65625 560.677734375 -11.58203125 c 4
 556.751953125 -15.5087890625 554.366210938 -20.6005859375 554.366210938 -25.1533203125 c 4xfef8
 554.366210938 -56.060546875 568.828125 -83.974609375 601.94921875 -106.557617188 c 4
 635.3125 -129.306640625 674.681640625 -141.458984375 720.439453125 -141.458984375 c 4
146.994140625 322.080078125 m 4
 182.140625 286.935546875 228.037109375 259.345703125 286.48828125 240.887695312 c 4
 344.965820312 222.420898438 414.477539062 213.126953125 488.713867188 213.126953125 c 4
 572.08203125 213.126953125 642.787109375 228.545898438 704.205078125 259.25390625 c 4
 763.002929688 288.65234375 801.286132812 327.71875 820.459960938 374.19921875 c 5
 143.458984375 374.19921875 l 6
 138.908203125 374.19921875 133.813476562 371.8125 129.887695312 367.887695312 c 4
 125.961914062 363.9609375 123.576171875 358.8671875 123.576171875 354.31640625 c 4
 123.576171875 351.103515625 124.19140625 349.458984375 128.796875 343.318359375 c 4
 133.380859375 337.206054688 139.453125 329.622070312 146.994140625 322.080078125 c 4
1006.26074219 122.591796875 m 6
 1006.26074219 374.19921875 l 5
 893.408203125 374.19921875 l 5
 867.442382812 307.134765625 818.888671875 254.85546875 746.186523438 214.637695312 c 4
 672.231445312 173.725585938 584.283203125 153.360351562 488.713867188 153.360351562 c 4
 424.543945312 153.360351562 364.935546875 161.19921875 303.842773438 178.430664062 c 4
 242.759765625 195.659179688 183.37890625 220.658203125 128.490234375 252.022460938 c 4
 104.485351562 266.42578125 88.4990234375 282.4375 74.2705078125 299.827148438 c 4
 59.6953125 317.642578125 52.9228515625 335.936523438 52.9228515625 354.31640625 c 4
 52.9228515625 375.857421875 61.353515625 396.098632812 79.640625 411.0625 c 4
 97.7294921875 425.861328125 119.233398438 432.408203125 143.458984375 432.408203125 c 6
 836.909179688 432.408203125 l 5
 841.838867188 443.616210938 846.372070312 453.421875 847.669921875 463.798828125 c 4
 849.12109375 475.415039062 847.630859375 487.66796875 847.630859375 502.059570312 c 4
 847.630859375 547.55078125 832.60546875 588.186523438 799.178710938 624.65234375 c 4
 769.540039062 656.984375 732.993164062 678.701171875 691.771484375 689.310546875 c 5
 700.349609375 679.55078125 707.124023438 668.471679688 712.547851562 656.537109375 c 4
 720.690429688 638.626953125 723.883789062 619.204101562 723.883789062 598.481445312 c 4
 723.883789062 564.323242188 709.12890625 533.349609375 681.754882812 509.1953125 c 4
 654.485351562 485.134765625 622.0703125 472.176757812 583.580078125 472.176757812 c 4
 549.580078125 472.176757812 518.587890625 485.28125 492.846679688 512.62890625 c 4
 466.999023438 540.094726562 455.719726562 574.169921875 455.719726562 612.478515625 c 4xff78
 455.719726562 651.361328125 472.221679688 684.095703125 507.428710938 711.30078125 c 4
 542.595703125 738.4765625 584.266601562 751.224609375 633.346679688 751.224609375 c 4
 712.13671875 751.224609375 778.803710938 727.469726562 834.172851562 678.4296875 c 4
 889.442382812 629.475585938 918.283203125 571.984375 918.283203125 502.059570312 c 4
 918.283203125 487.688476562 916.688476562 474.99609375 915.133789062 462.55859375 c 4
 913.8359375 452.176757812 910.932617188 441.157226562 907.951171875 432.408203125 c 5
 1006.26074219 432.408203125 l 5
 1006.26074219 733.784179688 l 5
 1006.26074219 738.784179688 l 5
 1011.26074219 738.784179688 l 5
 1073.46777344 738.784179688 l 5
 1078.46777344 738.784179688 l 5
 1078.46777344 733.784179688 l 5
 1078.46777344 122.591796875 l 6
 1078.46777344 99.3154296875 1074.08496094 74.9970703125 1066.57519531 52.9404296875 c 5
 1264.42382812 52.9404296875 l 5
 1264.42382812 612.478515625 l 5
 1264.42382812 617.478515625 l 5
 1269.42382812 617.478515625 l 5
 1330.07714844 617.478515625 l 5
 1335.07714844 617.478515625 l 5
 1335.07714844 612.478515625 l 5
 1335.07714844 -0.271484375 l 5
 1335.07714844 -5.271484375 l 5
 1330.07714844 -5.271484375 l 5
 1039.36816406 -5.271484375 l 5
 1011.69042969 -65.1025390625 968.69140625 -111.895507812 912.865234375 -147.561523438 c 4
 856.016601562 -183.881835938 791.241210938 -201.224609375 720.439453125 -201.224609375 c 4
 655.876953125 -201.224609375 598.70703125 -185.447265625 552.565429688 -150.442382812 c 4
 506.54296875 -115.528320312 483.713867188 -73.5400390625 483.713867188 -25.1533203125 c 4
 483.713867188 -3.611328125 492.141601562 16.630859375 510.430664062 31.59375 c 4
 528.518554688 46.392578125 550.022460938 52.9404296875 574.249023438 52.9404296875 c 6
 996.73046875 52.9404296875 l 5
 1003.5703125 75.125 1006.26074219 99.2802734375 1006.26074219 122.591796875 c 6
EndSplineSet
Validated: 33
EndChar

StartChar: uni092D
Encoding: 2349 2349 40
Width: 1684
VWidth: 0
Flags: W
HStem: -95.915 76.2051<1031.46 1103.85 1302.41 1595.75> 130.683 76.7539<775.933 840.939 919.068 978.096> 238.626 64.7998<274.699 380.714> 251.932 64.7998<601.817 840.964> 478.126 64.7998<273.555 381.035> 692.916 66.7012<264.174 453.314>
VStem: 88.2451 64.7998<391.614 581.737> 182.505 65.5811<377.08 451.113> 411.383 64.7998<334.095 448.265> 565.349 78.1025<362.441 580.324> 637.578 78.1055<-20.6952 82.0603> 840.964 78.1045<-0.849914 130.683 208.217 251.932 316.731 746.312> 943.606 76.2061<-7.01288 77.8809> 1112.78 76.2041<-8.99744 75.6736> 1238.23 76.2051<-18.9886 93.83>
LayerCount: 2
Fore
SplineSet
779.0703125 110.151367188 m 0xcfbe
 756.499023438 98.865234375 739.521484375 88.189453125 729.733398438 71.873046875 c 0
 720.834960938 55.8544921875 715.68359375 39.9638671875 715.68359375 24.87109375 c 0
 715.68359375 8.1416015625 717.802734375 -2.7822265625 723.293945312 -9.646484375 c 2
 723.44140625 -9.830078125 l 1
 723.578125 -10.0234375 l 2
 730.654296875 -19.927734375 744.166015625 -25.4111328125 767.868164062 -25.4111328125 c 0
 787.297851562 -25.4111328125 801.893554688 -20.123046875 811.180664062 -10.8369140625 c 0
 819.484375 -2.53125 828.323242188 11.361328125 833.663085938 30.9462890625 c 0
 838.4609375 48.533203125 840.662109375 83.9306640625 840.939453125 130.682617188 c 1
 816.63671875 126.000976562 799.330078125 118.591796875 779.0703125 110.151367188 c 0xcfbe
323.08203125 303.42578125 m 0xef9e
 347.526367188 303.42578125 367.888671875 311.895507812 385.400390625 329.408203125 c 0
 402.912109375 346.91796875 411.3828125 367.283203125 411.3828125 391.725585938 c 0
 411.3828125 416.08203125 403.108398438 434.438476562 385.400390625 452.145507812 c 0
 367.888671875 469.655273438 347.526367188 478.125976562 323.08203125 478.125976562 c 0
 302.921875 478.125976562 286.473632812 470.135742188 270.578125 452.474609375 c 0
 254.836914062 434.983398438 248.0859375 416.58984375 248.0859375 391.725585938 c 0
 248.0859375 366.793945312 255.01171875 346.375 270.578125 329.077148438 c 0
 286.474609375 311.416015625 302.921875 303.42578125 323.08203125 303.42578125 c 0xef9e
1068.10644531 94.958984375 m 1
 1049.84179688 85.296875 1037.55273438 76.251953125 1029.83496094 63.90234375 c 0
 1023.05273438 53.7314453125 1019.8125 42.0732421875 1019.8125 32.4755859375 c 0
 1019.8125 17.400390625 1024.58007812 6.310546875 1033.015625 -3.8115234375 c 0
 1040.73828125 -13.078125 1051.16601562 -17.8095703125 1066.29492188 -17.8095703125 c 0
 1083.5390625 -17.8095703125 1094.2578125 -12.880859375 1102.00292969 -5.134765625 c 0
 1109.01367188 1.8779296875 1112.77832031 14.5224609375 1112.77832031 30.57421875 c 0
 1112.77832031 41.310546875 1108.30371094 52.6669921875 1097.33886719 67.2890625 c 0
 1089.08496094 78.841796875 1078.37109375 88.98046875 1068.10644531 94.958984375 c 1
919.0390625 131.9140625 m 1
 918.645507812 76.294921875 914.99609375 36.015625 907.37109375 9.3310546875 c 0
 899.416015625 -22.486328125 883.098632812 -46.9892578125 863.31640625 -66.7734375 c 0
 838.500976562 -91.587890625 805.453125 -101.6171875 767.868164062 -101.6171875 c 0
 720.599609375 -101.6171875 684.991210938 -87.5380859375 662.041015625 -56.2421875 c 0
 645.681640625 -33.751953125 637.578125 -6.99609375 637.578125 24.87109375 c 0
 637.578125 57.2001953125 647.784179688 85.5244140625 665.598632812 113.240234375 c 0
 685.58203125 143.21484375 713.37890625 166.9921875 747.083007812 182.854492188 c 2
 747.400390625 183.002929688 l 1
 747.727539062 183.125 l 2
 776.376953125 193.869140625 807.4296875 202.95703125 840.963867188 207.436523438 c 1
 840.963867188 251.931640625 l 1
 515.0625 251.931640625 l 1
 506.421875 251.931640625 l 1xdfbe
 506.421875 260.572265625 l 1
 506.421875 294.786132812 l 1
 506.421875 297.9140625 l 1
 508.424804688 300.317382812 l 2
 526.479492188 321.984375 541.272460938 351.416015625 550.491210938 382.759765625 c 0
 559.79296875 414.3828125 565.348632812 447.67578125 565.348632812 486.765625 c 0
 565.348632812 543.560546875 545.419921875 592.453125 505.151367188 632.720703125 c 0
 464.813476562 673.060546875 417.912109375 692.916015625 359.197265625 692.916015625 c 0
 302.40234375 692.916015625 253.509765625 672.98828125 213.2421875 632.720703125 c 0
 172.975585938 592.453125 153.044921875 543.560546875 153.044921875 486.765625 c 0
 153.044921875 461.3984375 158.486328125 435.770507812 167.748046875 409.837890625 c 0
 171.685546875 398.818359375 176.76171875 387.711914062 182.504882812 376.965820312 c 1
 182.927734375 385.857421875 183.28515625 387.646484375 183.28515625 391.725585938 c 0
 183.28515625 433.682617188 197.541015625 468.2734375 223.413085938 498.126953125 c 0
 249.791015625 528.5625 284.768554688 542.92578125 323.08203125 542.92578125 c 0
 365.188476562 542.92578125 396.427734375 528.282226562 426.130859375 498.577148438 c 0
 455.543945312 469.163085938 476.182617188 434.630859375 476.182617188 391.725585938 c 0
 476.182617188 349.796875 461.938476562 313.079101562 431.833007812 282.974609375 c 0
 401.732421875 252.873046875 365.012695312 238.625976562 323.08203125 238.625976562 c 0xefde
 258.169921875 238.625976562 200.478515625 262.482421875 155.154296875 311.74609375 c 0
 110.02734375 360.797851562 88.2451171875 418.333007812 88.2451171875 486.765625 c 0
 88.2451171875 561.046875 113.895507812 626.241210938 166.80859375 679.154296875 c 0
 219.62109375 731.965820312 284.744140625 759.6171875 359.197265625 759.6171875 c 0
 437.337890625 759.6171875 504.346679688 732.038085938 559.075195312 679.262695312 c 0
 613.764648438 626.529296875 643.451171875 561.395507812 643.451171875 486.765625 c 0
 643.451171875 453.42578125 637.572265625 422.263671875 629.889648438 391.53125 c 0
 623.334960938 365.315429688 613.4609375 339.537109375 601.817382812 316.731445312 c 1
 840.963867188 316.731445312 l 1xdfde
 840.963867188 737.671875 l 1
 840.963867188 746.311523438 l 1
 849.603515625 746.311523438 l 1
 910.427734375 746.311523438 l 1
 919.068359375 746.311523438 l 1
 919.068359375 737.671875 l 1
 919.068359375 208.216796875 l 1
 964.442382812 206.390625 1014.96289062 191.751953125 1070.12402344 174.57421875 c 1
 1095.78125 182.286132812 1119.19335938 187.4765625 1148.02832031 187.4765625 c 0
 1189.04882812 187.4765625 1221.35546875 179.510742188 1251.31640625 161.53515625 c 0
 1291.59960938 137.36328125 1314.43554688 100.11328125 1314.43554688 51.4833984375 c 0
 1314.43554688 28.90625 1309.66015625 4.62109375 1302.40625 -19.7099609375 c 1
 1587.11425781 -19.7099609375 l 1
 1595.75488281 -19.7099609375 l 1
 1595.75488281 -28.3505859375 l 1
 1595.75488281 -87.275390625 l 1
 1595.75488281 -95.9150390625 l 1
 1587.11425781 -95.9150390625 l 1
 1191.74804688 -95.9150390625 l 1
 1176.15917969 -95.9150390625 l 1
 1184.42089844 -82.6962890625 l 1
 1212.93359375 -37.076171875 l 2
 1231.08984375 -8.0263671875 1238.23046875 20.560546875 1238.23046875 51.4833984375 c 0
 1238.23046875 71.630859375 1230.46875 85.462890625 1213.91210938 95.39453125 c 0
 1199.953125 103.772460938 1181.85449219 107.826171875 1162.25 109.00390625 c 1
 1179.27734375 84.9580078125 1188.98242188 59.34375 1188.98242188 30.57421875 c 0
 1188.98242188 -3.41015625 1178.97070312 -34.1513671875 1158.20019531 -56.9990234375 c 0
 1135.484375 -81.7783203125 1104.26367188 -94.013671875 1066.29492188 -94.013671875 c 0
 1028.30859375 -94.013671875 996.915039062 -81.7294921875 974.140625 -54.81640625 c 0
 953.81640625 -30.42578125 943.606445312 -1.603515625 943.606445312 32.4755859375 c 0
 943.606445312 64.892578125 956.44921875 94.888671875 979.233398438 120.897460938 c 1
 954.888671875 126.921875 936.125 130.831054688 919.0390625 131.9140625 c 1
EndSplineSet
Validated: 1
EndChar

StartChar: uni092E
Encoding: 2350 2350 41
Width: 1404
VWidth: 0
Flags: W
HStem: 0.542969 74.1309<1061.25 1336.87> 388.306 76.0322<496.598 610.731 774.275 904.566> 675.326 74.1309<162.171 367.46 458.697 740.017>
VStem: 67.1318 95.0391<0.542969 675.326> 367.46 93.1377<0.542969 349.961 437.726 675.326> 646.876 93.1406<0.542969 349.961> 992.822 83.6348<76.6396 283.017>
LayerCount: 2
Fore
SplineSet
367.459960938 675.326171875 m 5
 162.170898438 675.326171875 l 5
 162.170898438 0.54296875 l 5
 67.1318359375 0.54296875 l 5
 67.1318359375 749.45703125 l 5
 740.016601562 749.45703125 l 5
 740.016601562 675.326171875 l 5
 458.697265625 675.326171875 l 5
 458.697265625 437.725585938 l 5
 487.208984375 454.833984375 519.5234375 464.337890625 553.73828125 464.337890625 c 4
 605.060546875 464.337890625 648.778320312 445.329101562 686.793945312 409.213867188 c 4
 690.595703125 405.411132812 692.49609375 403.51171875 694.396484375 399.709960938 c 5
 702 409.213867188 l 6
 738.115234375 445.329101562 781.833984375 464.337890625 833.155273438 464.337890625 c 4
 911.087890625 464.337890625 971.9140625 430.124023438 1019.43359375 361.694335938 c 4
 1055.54785156 308.471679688 1076.45703125 253.34765625 1076.45703125 196.32421875 c 4
 1076.45703125 143.102539062 1070.75488281 103.185546875 1061.25195312 74.673828125 c 5
 1336.86816406 74.673828125 l 5
 1336.86816406 0.54296875 l 5
 943.40234375 0.54296875 l 5
 977.6171875 53.7646484375 992.822265625 108.888671875 992.822265625 165.912109375 c 4
 992.822265625 175.416992188 992.822265625 186.8203125 992.822265625 196.32421875 c 4
 992.822265625 240.04296875 975.71484375 281.859375 947.203125 321.778320312 c 4
 916.791015625 367.396484375 878.7734375 388.305664062 833.155273438 388.305664062 c 4
 806.54296875 388.305664062 783.733398438 380.702148438 766.62890625 357.891601562 c 4
 749.51953125 335.083984375 740.016601562 308.471679688 740.016601562 276.157226562 c 6
 740.016601562 0.54296875 l 5
 646.875976562 0.54296875 l 5
 646.875976562 276.157226562 l 6
 646.875976562 308.471679688 637.37109375 335.083984375 620.266601562 355.9921875 c 4
 603.157226562 376.899414062 580.34765625 388.305664062 553.73828125 388.305664062 c 4
 527.125976562 388.305664062 504.31640625 376.899414062 487.208984375 355.9921875 c 4
 470.102539062 335.083984375 460.59765625 308.471679688 460.59765625 276.157226562 c 6
 460.59765625 0.54296875 l 5
 367.459960938 0.54296875 l 5
 367.459960938 675.326171875 l 5
EndSplineSet
Validated: 1
EndChar

StartChar: uni092F
Encoding: 2351 2351 42
Width: 1272
VWidth: 0
Flags: W
HStem: -311.163 62.208<314.434 558.016> -66.9961 62.209<219.5 743.309 849.062 1110.34> 404.229 60.6543<433.261 532.69 662.107 762.303> 637.509 60.6543<161.664 329.625 405.831 636>
VStem: 85.459 76.2051<86.9678 637.509> 135.225 74.6504<-163.454 -72.9364> 329.625 77.7598<86.9678 376.987 443.108 637.509> 558.239 77.7607<86.9678 376.987> 788.408 76.207<-3.33026 376.987> 1110.34 76.2051<-4.78711 698.163>
LayerCount: 2
Fore
SplineSet
424.493164062 -248.955078125 m 0xf7c0
 496.032226562 -248.955078125 559.794921875 -233.40234375 615.782226562 -199.1875 c 0
 671.768554688 -164.973632812 715.31640625 -121.427734375 743.30859375 -66.99609375 c 1
 240.979492188 -66.99609375 l 2
 233.203125 -66.99609375 225.426757812 -70.1064453125 219.20703125 -76.3271484375 c 0
 212.985351562 -82.5478515625 209.875 -90.3232421875 209.875 -98.099609375 c 0
 209.875 -140.091796875 231.647460938 -174.3046875 273.639648438 -203.853515625 c 0
 315.627929688 -233.40234375 365.395507812 -248.955078125 424.493164062 -248.955078125 c 0xf7c0
864.615234375 86.9677734375 m 2
 864.615234375 55.8642578125 859.948242188 26.31640625 849.0625 -4.787109375 c 1
 1110.3359375 -4.787109375 l 1
 1110.3359375 698.163085938 l 1
 1186.54101562 698.163085938 l 1
 1186.54101562 -66.99609375 l 1
 819.513671875 -66.99609375 l 1
 785.299804688 -140.091796875 732.422851562 -199.1875 662.439453125 -244.288085938 c 0
 592.455078125 -289.388671875 513.139648438 -311.163085938 424.493164062 -311.163085938 c 0
 343.623046875 -311.163085938 275.193359375 -290.944335938 219.20703125 -248.955078125 c 0
 163.219726562 -206.963867188 135.224609375 -157.197265625 135.224609375 -98.099609375 c 0xf7c0
 135.224609375 -71.6611328125 146.112304688 -49.888671875 166.328125 -32.78125 c 0
 186.546875 -15.67578125 211.430664062 -4.787109375 240.979492188 -4.787109375 c 2
 774.413085938 -4.787109375 l 1
 783.744140625 24.7607421875 788.408203125 55.8642578125 788.408203125 86.9677734375 c 1
 788.408203125 312.47265625 l 2
 788.408203125 338.911132812 780.633789062 360.68359375 766.63671875 377.791992188 c 0
 752.639648438 394.8984375 733.9765625 404.228515625 712.205078125 404.228515625 c 0
 690.432617188 404.228515625 671.768554688 394.8984375 657.7734375 377.791992188 c 0
 643.776367188 360.68359375 636 338.911132812 636 312.47265625 c 2
 636 86.9677734375 l 1
 558.239257812 86.9677734375 l 1
 558.239257812 312.47265625 l 2
 558.239257812 338.911132812 550.463867188 360.68359375 536.467773438 377.791992188 c 0
 522.471679688 394.8984375 505.36328125 404.228515625 483.591796875 404.228515625 c 0
 461.817382812 404.228515625 443.155273438 394.8984375 429.159179688 377.791992188 c 0
 415.161132812 360.68359375 407.384765625 338.911132812 407.384765625 312.47265625 c 2
 407.384765625 86.9677734375 l 1
 329.625 86.9677734375 l 1
 329.625 637.508789062 l 1
 161.6640625 637.508789062 l 1
 161.6640625 86.9677734375 l 1
 85.458984375 86.9677734375 l 1
 85.458984375 698.163085938 l 1xfbc0
 636 698.163085938 l 1
 636 637.508789062 l 1
 405.831054688 637.508789062 l 1
 405.831054688 443.108398438 l 1
 429.159179688 457.106445312 455.596679688 464.8828125 483.591796875 464.8828125 c 0
 525.580078125 464.8828125 559.794921875 449.331054688 590.899414062 419.78125 c 0
 594.008789062 416.671875 595.564453125 415.116210938 597.120117188 412.004882812 c 1
 604.896484375 419.78125 l 2
 634.444335938 449.331054688 670.21484375 464.8828125 712.205078125 464.8828125 c 0
 754.1953125 464.8828125 789.963867188 449.331054688 819.513671875 419.78125 c 0
 849.0625 390.232421875 864.615234375 354.462890625 864.615234375 312.47265625 c 2
 864.615234375 86.9677734375 l 2
EndSplineSet
Validated: 1
EndChar

StartChar: uni0930
Encoding: 2352 2352 43
Width: 1972
VWidth: 0
Flags: W
HStem: -92.5381 63.6377<275.79 443.295> 213.34 63.6387<211.616 267.498 347.561 509.737 589.797 784.819> 504.846 67.7461<347.561 493.314 591.212 784.819 1558.75 1866.68> 572.592 65.6895<1165.5 1246.71> 876.415 65.6895<1280.82 1419.46> 972.9 63.6377<552.954 750.398 912.47 1083.05>
VStem: 105.32 82.1133<56.4713 190.068> 267.498 80.0625<276.979 504.846> 394.775 80.0605<707.995 901.446> 509.737 80.0596<32.934 213.34 276.979 504.846> 793.028 82.1172<755.296 934.269> 1080.43 69.7969<650.528 784.548> 1265.19 69.7979<654.168 784.692> 1507.43 75.9551<579.79 788.16>
LayerCount: 2
Fore
SplineSet
347.560546875 276.978515625 m 1xeffc
 509.737304688 276.978515625 l 1
 509.737304688 504.845703125 l 1
 347.560546875 504.845703125 l 1
 347.560546875 276.978515625 l 1xeffc
1217.97363281 829.200195312 m 1
 1201.55078125 820.986328125 1185.12695312 804.564453125 1170.7578125 781.979492188 c 0
 1156.38671875 759.400390625 1150.22851562 738.872070312 1150.22851562 720.397460938 c 0
 1150.22851562 701.920898438 1154.33496094 683.443359375 1162.546875 664.971679688 c 0
 1170.7578125 646.494140625 1185.12695312 638.28125 1203.60351562 638.28125 c 0xdffc
 1215.92089844 638.28125 1230.29296875 642.38671875 1244.66015625 654.706054688 c 0
 1259.03027344 667.021484375 1265.18847656 685.497070312 1265.18847656 714.239257812 c 0
 1265.18847656 740.922851562 1248.765625 779.928710938 1217.97363281 829.200195312 c 1
363.981445312 -28.900390625 m 0
 402.985351562 -28.900390625 437.884765625 -14.5283203125 466.626953125 10.10546875 c 0
 495.365234375 34.740234375 509.737304688 65.533203125 509.737304688 100.432617188 c 2
 509.737304688 213.33984375 l 1
 267.498046875 213.33984375 l 2
 244.91796875 213.33984375 224.387695312 205.127929688 210.018554688 190.7578125 c 0
 195.645507812 176.38671875 187.43359375 155.858398438 187.43359375 133.27734375 c 0
 187.43359375 90.16796875 203.860351562 53.216796875 238.755859375 20.37109375 c 0
 273.65625 -12.474609375 314.712890625 -28.900390625 363.981445312 -28.900390625 c 0
653.435546875 972.900390625 m 0
 602.11328125 972.900390625 561.056640625 960.58203125 526.15625 933.89453125 c 0
 491.259765625 907.206054688 474.8359375 866.149414062 474.8359375 810.72265625 c 0
 474.8359375 767.61328125 487.15234375 724.5 509.737304688 681.392578125 c 0
 532.31640625 638.28125 565.163085938 603.383789062 606.219726562 572.591796875 c 1
 784.819335938 572.591796875 l 1
 784.819335938 504.845703125 l 1
 589.796875 504.845703125 l 1xeffc
 589.796875 276.978515625 l 1
 784.819335938 276.978515625 l 1
 784.819335938 213.33984375 l 1
 589.796875 213.33984375 l 1
 589.796875 100.432617188 l 2
 589.796875 47.056640625 569.26953125 1.8955078125 524.10546875 -35.05859375 c 0
 478.94140625 -72.0078125 425.569335938 -92.5380859375 363.981445312 -92.5380859375 c 0
 292.1328125 -92.5380859375 232.599609375 -72.0078125 181.275390625 -26.84765625 c 0
 129.955078125 18.31640625 105.3203125 71.69140625 105.3203125 133.27734375 c 0
 105.3203125 172.28125 119.69140625 207.180664062 152.538085938 235.920898438 c 0
 185.384765625 264.662109375 224.387695312 276.978515625 267.498046875 276.978515625 c 1
 267.498046875 572.591796875 l 1xdffc
 493.314453125 572.591796875 l 1
 468.676757812 599.278320312 446.095703125 630.0703125 425.569335938 673.180664062 c 0
 405.038085938 716.29296875 394.775390625 763.5078125 394.775390625 810.72265625 c 0
 394.775390625 882.571289062 417.35546875 933.89453125 462.518554688 972.900390625 c 0
 507.68359375 1011.90429688 569.26953125 1036.53808594 653.435546875 1036.53808594 c 0
 723.234375 1036.53808594 778.662109375 1020.11523438 817.665039062 989.323242188 c 0
 823.82421875 983.1640625 827.9296875 979.05859375 832.03515625 972.900390625 c 1
 836.141601562 979.05859375 842.299804688 983.1640625 848.458984375 989.323242188 c 0
 883.356445312 1020.11523438 934.677734375 1036.53808594 1000.36914062 1036.53808594 c 0
 1086.59179688 1036.53808594 1166.65234375 997.53125 1236.45117188 919.525390625 c 1
 1271.34960938 933.89453125 1306.24511719 942.104492188 1345.25195312 942.104492188 c 0
 1408.88867188 942.104492188 1466.37011719 913.365234375 1515.63867188 864.09765625 c 0
 1558.74902344 818.934570312 1583.3828125 771.71875 1583.3828125 722.451171875 c 1
 1583.3828125 720.397460938 l 2
 1583.3828125 671.126953125 1575.171875 619.806640625 1558.74902344 566.431640625 c 1
 1866.6796875 566.431640625 l 1
 1866.6796875 504.845703125 l 1
 1443.78808594 504.845703125 l 1xeffc
 1470.47460938 547.956054688 l 2
 1495.109375 589.012695312 1507.42773438 648.546875 1507.42773438 720.397460938 c 0
 1507.42773438 757.349609375 1488.95117188 792.245117188 1456.10449219 825.092773438 c 0
 1421.20605469 859.991210938 1384.25683594 876.415039062 1343.20019531 876.415039062 c 0
 1324.72265625 876.415039062 1304.19433594 874.361328125 1279.56054688 868.203125 c 1
 1316.51074219 802.510742188 1334.98632812 751.188476562 1334.98632812 714.239257812 c 0
 1334.98632812 675.236328125 1322.66992188 640.334960938 1300.08691406 613.649414062 c 0
 1277.5078125 586.959960938 1244.66015625 572.591796875 1203.60351562 572.591796875 c 0
 1162.546875 572.591796875 1129.70019531 589.012695312 1109.171875 617.751953125 c 0
 1088.64355469 646.494140625 1080.43164062 681.392578125 1080.43164062 720.397460938 c 0
 1080.43164062 753.2421875 1088.64355469 781.979492188 1105.06738281 810.72265625 c 0
 1121.49023438 839.462890625 1144.0703125 864.09765625 1174.86425781 884.624023438 c 1
 1111.22460938 944.16015625 1051.69140625 972.900390625 1000.36914062 972.900390625 c 0
 955.208984375 972.900390625 924.413085938 962.634765625 903.88671875 944.16015625 c 0
 883.356445312 925.68359375 875.145507812 903.102539062 875.145507812 876.415039062 c 2
 875.145507812 755.295898438 l 1
 793.028320312 755.295898438 l 1
 793.028320312 876.415039062 l 2
 793.028320312 903.102539062 782.763671875 925.68359375 760.184570312 944.16015625 c 0
 737.602539062 962.634765625 702.704101562 972.900390625 653.435546875 972.900390625 c 0
EndSplineSet
Validated: 1
EndChar

StartChar: uni0931
Encoding: 2353 2353 44
Width: 1624
VWidth: 0
Flags: W
HStem: 1.51758 64.2832<181.626 785.043> 490.889 66.3535<686.624 785.043> 741.792 66.3564<1131.33 1523.25> 785.338 64.2812<733.804 836.156> 1046.61 80.8711<733.943 892.819> 1061.13 66.3535<907.386 1069.13>
VStem: 100.755 80.8711<65.8008 654.703> 459.488 80.8691<710.284 933.496> 623.303 80.8682<879.33 1016.94> 785.043 82.9453<65.8008 490.889 557.242 654.703> 867.988 80.8691<882.416 1014.07> 1114.75 80.8711<881.793 1021.75>
LayerCount: 2
Fore
SplineSet
785.04296875 849.619140625 m 0xdbd0
 807.8515625 849.619140625 826.514648438 859.98828125 843.103515625 878.650390625 c 0
 859.69140625 897.311523438 867.98828125 920.122070312 867.98828125 947.080078125 c 0xdbb0
 867.98828125 974.036132812 859.69140625 998.919921875 843.103515625 1017.58203125 c 0
 826.514648438 1036.24316406 807.8515625 1046.61132812 785.04296875 1046.61132812 c 0
 762.234375 1046.61132812 741.498046875 1036.24316406 726.982421875 1017.58203125 c 0
 712.467773438 998.919921875 704.170898438 974.036132812 704.170898438 947.080078125 c 0
 704.170898438 920.122070312 710.393554688 897.311523438 726.982421875 878.650390625 c 0
 743.572265625 859.98828125 762.234375 849.619140625 785.04296875 849.619140625 c 0xdbd0
907.385742188 1061.12890625 m 1xc7b0
 934.342773438 1030.0234375 948.857421875 990.624023438 948.857421875 947.080078125 c 0xc7b0
 948.857421875 903.534179688 932.268554688 866.208984375 901.1640625 833.03125 c 0
 870.059570312 799.854492188 830.662109375 785.337890625 785.04296875 785.337890625 c 0
 741.498046875 785.337890625 702.100585938 799.854492188 670.995117188 833.03125 c 0
 639.891601562 866.208984375 623.302734375 903.534179688 623.302734375 947.080078125 c 0
 623.302734375 965.743164062 625.376953125 984.404296875 631.596679688 1000.9921875 c 0
 637.817382812 1017.58203125 644.037109375 1034.17089844 654.40625 1046.61132812 c 1
 619.155273438 1025.87695312 592.197265625 994.771484375 571.461914062 953.299804688 c 0
 550.725585938 911.828125 540.357421875 868.283203125 540.357421875 818.516601562 c 0
 540.357421875 745.940429688 565.243164062 685.805664062 612.93359375 633.966796875 c 0
 660.62890625 582.125976562 718.688476562 557.2421875 785.04296875 557.2421875 c 1
 785.04296875 654.703125 l 1
 867.98828125 654.703125 l 1xdbd0
 867.98828125 1.517578125 l 1xdbb0
 100.754882812 1.517578125 l 1
 100.754882812 654.703125 l 1
 181.625976562 654.703125 l 1
 181.625976562 65.80078125 l 1
 785.04296875 65.80078125 l 1
 785.04296875 490.888671875 l 1
 693.8046875 490.888671875 619.155273438 521.991210938 554.874023438 586.271484375 c 0
 490.591796875 650.5546875 459.48828125 727.278320312 459.48828125 818.516601562 c 0
 459.48828125 903.534179688 486.4453125 976.109375 544.505859375 1036.24316406 c 0
 602.56640625 1096.37792969 673.068359375 1127.48242188 753.940429688 1127.48242188 c 0xdbd0
 770.528320312 1127.48242188 787.116210938 1125.40820312 801.630859375 1123.3359375 c 1
 832.736328125 1127.48242188 867.98828125 1127.48242188 909.459960938 1127.48242188 c 0
 921.899414062 1127.48242188 934.342773438 1127.48242188 948.857421875 1127.48242188 c 2
 957.15234375 1127.48242188 l 2
 1006.91796875 1127.48242188 1052.53808594 1119.18847656 1091.93652344 1104.67089844 c 0
 1149.99707031 1079.79003906 1183.17382812 1040.39160156 1191.46875 990.624023438 c 0
 1193.54296875 978.18359375 1195.6171875 965.743164062 1195.6171875 953.299804688 c 0
 1195.6171875 915.975585938 1185.24804688 880.723632812 1164.51171875 849.619140625 c 0xd7b0
 1156.21679688 837.177734375 1145.84960938 824.736328125 1131.33398438 808.1484375 c 1
 1523.24511719 808.1484375 l 1
 1523.24511719 741.791992188 l 1
 984.108398438 741.791992188 l 1
 1052.53808594 820.58984375 1089.86230469 866.208984375 1091.93652344 880.723632812 c 1
 1108.52441406 903.534179688 1114.74609375 926.34375 1114.74609375 953.299804688 c 0
 1114.74609375 963.668945312 1116.8203125 971.961914062 1114.74609375 982.331054688 c 0
 1110.59765625 1011.359375 1087.78808594 1032.09667969 1054.61230469 1046.61132812 c 0xebb0
 1025.58007812 1056.98046875 992.403320312 1061.12890625 955.078125 1061.12890625 c 2
 950.931640625 1061.12890625 l 2
 936.416992188 1061.12890625 921.899414062 1061.12890625 907.385742188 1061.12890625 c 1xc7b0
EndSplineSet
Validated: 1
EndChar

StartChar: uni0932
Encoding: 2354 2354 45
Width: 1868
VWidth: 0
Flags: W
HStem: -67.9785 68.9268<898.483 997.264> -62.2754 68.9248<1210.38 1288.17 1478.84 1775.35> 142.883 67.1523<1338.04 1396.37> 165.021 69.1963<957.832 1025.93 1096.77 1166.19> 200.035 59.4219<350.095 672.479> 416.726 57.5195<163.986 844.83 931.243 1025.94> 511.766 57.5195<564.239 671.289> 715.152 70.8262<568.322 724.982>
VStem: 92.6484 70.8262<363.971 416.3> 488.014 57.5195<587.817 691.865> 691.4 57.5195<589.301 692.121> 822.555 70.8252<6.93565 114.238> 872.045 68.8545<474.814 624.44> 1025.94 70.8262<27.6031 165.021 234.688 416.726 474.245 772.672> 1128.58 68.9258<20.3775 107.927> 1297.75 68.9258<18.9121 107.077> 1423.21 70.8262<7.75083 125.211>
LayerCount: 2
Fore
SplineSet
618.467773438 569.28515625 m 4x07e780
 638.138671875 569.28515625 655.940429688 576.396484375 670.298828125 588.958007812 c 4
 684.328125 601.233398438 691.400390625 618.8203125 691.400390625 636.516601562 c 4
 691.400390625 658.143554688 684.353515625 675.806640625 669.854492188 692.12109375 c 4
 655.588867188 708.166015625 638.111328125 715.15234375 618.467773438 715.15234375 c 4
 598.822265625 715.15234375 581.34375 708.1640625 567.080078125 692.122070312 c 4
 552.580078125 675.805664062 545.533203125 658.142578125 545.533203125 636.516601562 c 4
 545.533203125 616.892578125 552.48046875 601.34375 566.634765625 588.958007812 c 4
 581.115234375 576.290039062 596.854492188 569.28515625 618.467773438 569.28515625 c 4x07e780
1249.5078125 129.084960938 m 5
 1231.04980469 119.459960938 1218.60644531 109.624023438 1210.015625 95.87890625 c 4
 1202.64550781 84.822265625 1197.50878906 72.3173828125 1197.50878906 62.4755859375 c 4
 1197.50878906 46.5458984375 1202.67285156 34.5205078125 1211.55566406 23.8583984375 c 4
 1220.02929688 13.6904296875 1231.66894531 8.55078125 1247.63085938 8.55078125 c 4
 1265.62011719 8.55078125 1277.42675781 13.8046875 1285.9140625 22.29296875 c 4
 1293.97753906 30.353515625 1297.75488281 44.0771484375 1297.75488281 60.57421875 c 4
 1297.75488281 72.3935546875 1292.76269531 84.5712890625 1281.61328125 99.439453125 c 4
 1272.80664062 111.765625 1261.91601562 122.303710938 1249.5078125 129.084960938 c 5
958.891601562 143.462890625 m 4
 936.2109375 132.12109375 918.397460938 121.161132812 907.918945312 103.692382812 c 4
 898.764648438 87.2158203125 893.379882812 70.8125 893.379882812 54.87109375 c 4
 893.379882812 37.984375 895.408203125 26.0556640625 901.7890625 18.078125 c 6
 901.874023438 17.9716796875 l 5
 901.953125 17.861328125 l 6
 910.051757812 6.521484375 925.073242188 0.9482421875 949.206054688 0.9482421875 c 4
 969.259765625 0.9482421875 984.912109375 6.4111328125 995.09375 16.5908203125 c 4
 1003.90136719 25.3974609375 1013.02050781 39.845703125 1018.51367188 59.9892578125 c 4
 1023.70703125 79.0302734375 1025.76757812 115.318359375 1025.93164062 165.021484375 c 5x97f780
 999.541015625 160.591796875 980.392578125 152.419921875 958.891601562 143.462890625 c 4
184.819335938 364.434570312 m 4
 218.3671875 330.88671875 263.223632812 304.650390625 321.578125 285.827148438 c 4
 379.82421875 267.037109375 445.838867188 259.45703125 517.724609375 259.45703125 c 4x0fe780
 598.84765625 259.45703125 670.280273438 274.547851562 730.278320312 304.547851562 c 4
 787.600585938 333.208984375 825.557617188 372.288085938 844.830078125 416.725585938 c 5
 181.283203125 416.725585938 l 6
 177.040039062 416.725585938 174.939453125 415.916015625 169.612304688 410.588867188 c 4
 164.748046875 405.72265625 163.474609375 401.508789062 163.474609375 397.016601562 c 4
 163.474609375 394.72265625 164.939453125 389.678710938 168.336914062 384.583984375 c 4
 171.997070312 379.094726562 177.510742188 371.745117188 184.819335938 364.434570312 c 4
1025.93945312 234.217773438 m 5x97f780
 1025.93945312 416.725585938 l 5
 914.609375 416.725585938 l 5
 888.82421875 351.862304688 841.076171875 299.328125 771.098632812 259.611328125 c 4
 699.896484375 219.200195312 617.241210938 200.03515625 523.428710938 200.03515625 c 4x0ff780
 462.188476562 200.03515625 399.01171875 207.681640625 339.556640625 224.944335938 c 4
 280.240234375 242.1640625 221.008789062 267 167.377929688 297.646484375 c 4
 144.108398438 311.220703125 128.302734375 325.021484375 114.609375 342.625 c 4
 100.911132812 360.240234375 92.6484375 378.377929688 92.6484375 397.016601562 c 4
 92.6484375 419.232421875 100.997070312 438.055664062 119.288085938 452.28515625 c 4
 137.1015625 466.138671875 157.3046875 474.245117188 181.283203125 474.245117188 c 6
 860.161132812 474.245117188 l 5
 865.001953125 486.436523438 870.51171875 495.083007812 872.044921875 504.280273438 c 4
 873.758789062 514.575195312 871.9765625 527.696289062 871.9765625 541.4765625 c 4
 871.9765625 585.795898438 855.4375 626.3671875 823.828125 661.694335938 c 4
 796.142578125 692.638671875 758.650390625 712.436523438 718.4296875 722.784179688 c 5
 726.9453125 713.458984375 733.658203125 703.75390625 738.986328125 691.770507812 c 4
 746.978515625 673.783203125 748.919921875 655.836914062 748.919921875 636.516601562 c 4
 748.919921875 602.7578125 734.897460938 572.83984375 709.295898438 549.208007812 c 4
 683.69140625 525.573242188 650.130859375 511.765625 612.764648438 511.765625 c 4
 579.053710938 511.765625 547.272460938 525.694335938 523.5546875 551.391601562 c 4
 499.8046875 577.120117188 488.013671875 610.752929688 488.013671875 647.921875 c 4
 488.013671875 685.672851562 505.971679688 721.373046875 539.3984375 746.934570312 c 4
 572.564453125 772.296875 611.802734375 785.978515625 660.28515625 785.978515625 c 4
 737.326171875 785.978515625 805.180664062 762.786132812 859.3984375 714.377929688 c 4
 913.4765625 666.09375 940.899414062 609.461914062 940.899414062 541.4765625 c 4
 940.899414062 527.700195312 938.948242188 514.139648438 937.032226562 502.635742188 c 4
 935.5078125 493.502929688 933.619140625 482.9375 931.243164062 474.245117188 c 5
 1025.93945312 474.245117188 l 5
 1025.93945312 767.671875 l 5
 1025.93945312 772.671875 l 5
 1030.93945312 772.671875 l 5
 1091.765625 772.671875 l 5
 1096.765625 772.671875 l 5
 1096.765625 767.671875 l 5
 1096.765625 234.6875 l 5
 1142.16503906 233.609375 1193.87597656 218.72265625 1251.45507812 200.762695312 c 5
 1277.23828125 208.396484375 1301.03222656 210.03515625 1329.36621094 210.03515625 c 4
 1369.53222656 210.03515625 1401.11816406 206.211914062 1430.78027344 188.413085938 c 4
 1469.98730469 164.888671875 1494.03417969 128.97265625 1494.03417969 81.4833984375 c 4
 1494.03417969 57.7041015625 1487.19335938 32.419921875 1478.83789062 6.6494140625 c 5
 1770.3515625 6.6494140625 l 5
 1775.3515625 6.6494140625 l 5
 1775.3515625 1.6494140625 l 5
 1775.3515625 -57.275390625 l 5
 1775.3515625 -62.275390625 l 5
 1770.3515625 -62.275390625 l 5
 1373.08496094 -62.275390625 l 5
 1364.06347656 -62.275390625 l 5
 1368.84472656 -54.625 l 5
 1397.35644531 -9.0078125 l 6
 1415.87207031 20.619140625 1423.20800781 49.9736328125 1423.20800781 81.4833984375 c 4
 1423.20800781 102.750976562 1414.70800781 117.966796875 1397.12402344 128.517578125 c 4
 1381.13183594 138.112304688 1360.8046875 142.16015625 1338.03710938 142.8828125 c 5x67ef80
 1357.87890625 116.403320312 1366.68066406 90.765625 1366.68066406 60.57421875 c 4
 1366.68066406 27.2919921875 1356.88378906 -2.5078125 1336.85449219 -24.5390625 c 4
 1314.90039062 -48.4873046875 1284.8203125 -60.3740234375 1247.63085938 -60.3740234375 c 4
 1210.43359375 -60.3740234375 1180.25390625 -48.4580078125 1158.26660156 -22.4755859375 c 4
 1138.49707031 1.2490234375 1128.58300781 29.1396484375 1128.58300781 62.4755859375 c 4
 1128.58300781 95.6845703125 1142.66601562 127.02734375 1167.44335938 152.931640625 c 5
 1140.66699219 159.640625 1118.11523438 164.926757812 1096.75585938 165.731445312 c 5
 1096.52539062 108.611328125 1092.8125 66.943359375 1085.19238281 40.2724609375 c 4
 1077.43554688 9.25390625 1063.57226562 -14.6064453125 1043.98046875 -34.19921875 c 4
 1019.93457031 -58.2470703125 986.141601562 -67.978515625 949.206054688 -67.978515625 c 4
 902.630859375 -67.978515625 868.416992188 -54.23046875 846.3203125 -24.1015625 c 4
 830.448242188 -2.27734375 822.5546875 23.6181640625 822.5546875 54.87109375 c 4
 822.5546875 86.39453125 832.466796875 113.99609375 849.982421875 141.24609375 c 4
 869.5546875 170.604492188 896.852539062 193.973632812 929.971679688 209.559570312 c 6
 930.155273438 209.645507812 l 5
 930.344726562 209.716796875 l 6
 959.732421875 220.73828125 991.377929688 230.009765625 1025.93945312 234.217773438 c 5x97f780
EndSplineSet
Validated: 33
EndChar

StartChar: uni0933
Encoding: 2355 2355 46
Width: 1290
VWidth: 0
Flags: W
HStem: -208.08 54.6396<771.347 906.305> 6.48047 54.6387<738.244 769.6 835.76 939.52 1005.68 1167.04> 199.44 56.0791<226.003 333.584> 210.96 54.6396<533.879 769.6 835.76 939.52 1005.68 1096.4> 426.96 54.6396<226.317 332.075> 630 56.0801<217.028 403.365>
VStem: 55.3594 56.0811<337.657 524.412> 145.804 54.916<315.863 401.827> 362.08 54.6396<283.804 397.201> 508.96 66.1592<309.594 525.573> 655.84 67.6006<-107.375 -4.94832> 769.6 66.1602<61.1191 210.96 265.6 674.56> 939.52 66.1611<-120.795 6.48047 61.1191 210.96> 1167.04 67.6006<61.1191 265.6>
LayerCount: 2
Fore
SplineSet
274.919921875 255.51953125 m 0xeffc
 298.22265625 255.51953125 319.916992188 263.708007812 336.184570312 279.975585938 c 0
 352.58203125 296.373046875 362.080078125 318.15234375 362.080078125 341.240234375 c 0
 362.080078125 364.286132812 352.670898438 384.577148438 336.18359375 401.064453125 c 0
 319.787109375 417.462890625 298.008789062 426.959960938 274.919921875 426.959960938 c 0
 254.989257812 426.959960938 237.624023438 417.780273438 222.4453125 401.220703125 c 0
 207.544921875 384.965820312 200.719726562 364.731445312 200.719726562 341.240234375 c 0
 200.719726562 317.93359375 208.9375 296.125 223.885742188 279.819335938 c 0
 239.03125 263.296875 254.807617188 255.51953125 274.919921875 255.51953125 c 0xeffc
842.280273438 -153.440429688 m 0
 868.375 -153.440429688 891.659179688 -143.881835938 911.026367188 -127.284179688 c 0
 930.203125 -110.846679688 939.51953125 -90.724609375 939.51953125 -67.7197265625 c 2
 939.51953125 6.48046875 l 1
 774.599609375 6.48046875 l 2
 759.963867188 6.48046875 746.875 1.1640625 737.81640625 -7.89453125 c 0
 728.754882812 -16.9560546875 723.440429688 -30.0439453125 723.440429688 -44.6806640625 c 0
 723.440429688 -73.5419921875 734.221679688 -97.984375 757.8671875 -120.240234375 c 0
 781.481445312 -142.46484375 808.890625 -153.440429688 842.280273438 -153.440429688 c 0
835.759765625 61.119140625 m 1
 939.51953125 61.119140625 l 1
 939.51953125 210.959960938 l 1
 835.759765625 210.959960938 l 1xdffc
 835.759765625 61.119140625 l 1
769.599609375 210.959960938 m 1
 456.359375 210.959960938 l 1
 451.359375 210.959960938 l 1xdffc
 451.359375 215.959960938 l 1
 451.359375 250.51953125 l 1
 451.359375 252.384765625 l 1
 452.581054688 253.793945312 l 2
 470.764648438 274.774414062 484.900390625 301.551757812 494.81640625 331.30078125 c 0
 504.670898438 360.86328125 508.959960938 394.8984375 508.959960938 431.959960938 c 0
 508.959960938 486.946289062 490.806640625 533.002929688 451.384765625 572.424804688 c 0
 411.96875 611.83984375 365.934570312 630 309.48046875 630 c 0
 254.4921875 630 208.4375 611.846679688 169.015625 572.424804688 c 0
 129.59375 533.00390625 111.440429688 486.946289062 111.440429688 431.959960938 c 0
 111.440429688 406.59765625 115.655273438 381.325195312 125.5 356.012695312 c 0
 131.009765625 341.84375 138.014648438 328.349609375 145.803710938 315.79296875 c 1
 144.791015625 327.40234375 146.080078125 333.447265625 146.080078125 341.240234375 c 0
 146.080078125 379.772460938 158.123046875 411.415039062 183.353515625 439.614257812 c 0
 208.663085938 467.901367188 239.00390625 481.599609375 274.919921875 481.599609375 c 0
 313.581054688 481.599609375 346.643554688 468.061523438 374.838867188 441.349609375 c 0
 403.224609375 414.45703125 416.719726562 379.869140625 416.719726562 341.240234375 c 0
 416.719726562 302.6171875 403.252929688 268.102539062 376.375 241.224609375 c 0
 349.526367188 214.375976562 313.658203125 199.440429688 274.919921875 199.440429688 c 0xeffc
 214.494140625 199.440429688 162.647460938 223.189453125 120.068359375 268.703125 c 0
 77.5380859375 314.16796875 55.359375 367.393554688 55.359375 431.959960938 c 0
 55.359375 502.336914062 80.4619140625 561.374023438 130.264648438 611.17578125 c 0
 180.06640625 660.977539062 239.102539062 686.080078125 309.48046875 686.080078125 c 0
 382.657226562 686.080078125 445.970703125 661.073242188 497.284179688 611.2265625 c 0
 548.541992188 561.43359375 575.119140625 500.98828125 575.119140625 431.959960938 c 0
 575.119140625 401.244140625 570.735351562 370.609375 563.450195312 341.467773438 c 0
 556.831054688 314.990234375 546.231445312 289.055664062 533.87890625 265.599609375 c 1
 769.599609375 265.599609375 l 1
 769.599609375 669.559570312 l 1
 769.599609375 674.559570312 l 1
 774.599609375 674.559570312 l 1
 830.759765625 674.559570312 l 1
 835.759765625 674.559570312 l 1
 835.759765625 669.559570312 l 1
 835.759765625 265.599609375 l 1
 1091.40039062 265.599609375 l 1
 1096.40039062 265.599609375 l 1
 1096.40039062 260.599609375 l 1
 1096.40039062 215.959960938 l 1
 1096.40039062 210.959960938 l 1
 1091.40039062 210.959960938 l 1
 1005.68066406 210.959960938 l 1
 1005.68066406 61.119140625 l 1
 1167.04003906 61.119140625 l 1
 1167.04003906 260.599609375 l 1
 1167.04003906 265.599609375 l 1
 1172.04003906 265.599609375 l 1
 1229.640625 265.599609375 l 1
 1234.640625 265.599609375 l 1
 1234.640625 260.599609375 l 1
 1234.640625 11.48046875 l 1
 1234.640625 6.48046875 l 1
 1229.640625 6.48046875 l 1
 1005.68066406 6.48046875 l 1
 1005.68066406 -67.7197265625 l 2
 1005.68066406 -106.521484375 990.567382812 -141.233398438 957.765625 -168.0703125 c 0
 925.190429688 -194.721679688 886.505859375 -208.080078125 842.280273438 -208.080078125 c 0
 790.89453125 -208.080078125 747.750976562 -193.2578125 710.81640625 -160.75390625 c 0
 673.900390625 -128.266601562 655.83984375 -89.3212890625 655.83984375 -44.6806640625 c 0
 655.83984375 -16.0166015625 666.59375 10.0185546875 690.666992188 31.08203125 c 0
 713.510742188 51.0712890625 741.665039062 60.13671875 769.599609375 61.0419921875 c 1
 769.599609375 210.959960938 l 1
EndSplineSet
Validated: 1
EndChar

StartChar: uni0934
Encoding: 2356 2356 47
Width: 1420
VWidth: 0
Flags: W
HStem: -199.562 59.4229<328.631 501.623> 157.788 57.5205<391.963 608.158 686.488 883.285> 600.676 57.5195<702.594 817.996> 830.672 55.6191<1054.14 1140.52> 920.01 57.5195<462.967 765.604>
VStem: 83.5352 70.8262<97.7773 501.007> 321.137 70.8262<215.309 646.791> 608.158 70.8262<215.309 577.813> 615.557 70.9316<110.345 157.788> 919.889 68.9258<255.516 466.787>
LayerCount: 2
Fore
SplineSet
678.984375 521.663085938 m 2xff40
 678.984375 215.30859375 l 1
 841.25390625 215.30859375 l 2
 861.59375 215.30859375 879.26953125 228.807617188 896.068359375 253.072265625 c 0
 912.451171875 276.737304688 919.888671875 306.028320312 919.888671875 341.463867188 c 0
 919.888671875 412.821289062 901.115234375 476.456054688 867.505859375 526.870117188 c 0
 833.939453125 577.217773438 793.740234375 600.67578125 746.21484375 600.67578125 c 0
 730.619140625 600.67578125 714.8984375 593.790039062 702.45703125 579.573242188 c 0
 690.0625 565.409179688 682.71875 545.140625 678.984375 521.663085938 c 2xff40
615.556640625 157.788085938 m 1xfec0
 326.13671875 157.788085938 l 1
 321.13671875 157.788085938 l 1
 321.13671875 162.788085938 l 1
 321.13671875 641.791015625 l 1
 321.13671875 646.791015625 l 1
 326.13671875 646.791015625 l 1
 386.962890625 646.791015625 l 1
 391.962890625 646.791015625 l 1
 391.962890625 641.791015625 l 1
 391.962890625 215.30859375 l 1
 608.158203125 215.30859375 l 1
 608.158203125 522.040039062 l 2xff40
 608.158203125 559.41015625 621.99609375 593.073242188 647.638671875 618.71484375 c 0
 673.357421875 644.43359375 708.87890625 658.1953125 746.21484375 658.1953125 c 0
 814.44921875 658.1953125 871.126953125 626.728515625 919.32421875 565.03515625 c 0
 967.65625 503.172851562 988.814453125 427.8046875 988.814453125 341.463867188 c 0
 988.814453125 291.140625 975.181640625 248.026367188 945.8359375 212.810546875 c 0
 916.72265625 177.873046875 882.94140625 157.788085938 841.25390625 157.788085938 c 2
 686.48828125 157.788085938 l 1
 685.875 141.65234375 682.783203125 126.194335938 682.783203125 109.56640625 c 0
 682.783203125 49.5576171875 663.447265625 -0.5703125 648.171875 -36.849609375 c 0
 625.08203125 -90.724609375 594.02734375 -131.619140625 551.259765625 -158.833984375 c 0
 510.666015625 -185.8984375 465.86328125 -199.5625 419.27734375 -199.5625 c 0
 397.732421875 -199.5625 374.671875 -195.692382812 351.46484375 -189.890625 c 0
 289.515625 -172.467773438 235.48828125 -137.705078125 191.08984375 -83.6533203125 c 0
 154.49609375 -37.4296875 125.693359375 18.298828125 108.419921875 83.5576171875 c 0
 95.048828125 133.21875 83.53515625 190.756835938 83.53515625 261.630859375 c 0
 83.53515625 394.870117188 91.099609375 507.50390625 123.7109375 607.256835938 c 0
 165.7890625 733.4921875 234.9453125 831.59375 332.8515625 894.946289062 c 0
 395.87109375 938.869140625 469.19140625 973.728515625 552.33203125 973.728515625 c 0
 572.611328125 973.728515625 591.619140625 977.529296875 613.158203125 977.529296875 c 0
 666.900390625 977.529296875 724.19921875 969.888671875 781.791015625 954.53125 c 0
 801.275390625 948.685546875 825.806640625 939.231445312 854.201171875 929.765625 c 0
 890.212890625 918.393554688 916.705078125 910.860351562 926.74609375 906.842773438 c 1
 924.873046875 902.1640625 1054.14257812 886.291015625 1054.14257812 886.291015625 c 1
 1100.29882812 886.291015625 1142.88867188 904.686523438 1182.3125 934.72265625 c 0
 1223.47070312 964.654296875 1251.2109375 1001.66113281 1268.01171875 1050.19824219 c 2
 1269.43945312 1054.32128906 l 1
 1273.71679688 1053.46582031 l 1
 1330.74023438 1042.05957031 l 1
 1336.46484375 1040.9140625 l 1
 1334.45507812 1035.43457031 l 2
 1313.28710938 977.708007812 1280.31445312 929.180664062 1230.1171875 892.497070312 c 0
 1180.09375 854.017578125 1121.8984375 830.671875 1057.9453125 830.671875 c 0
 1012.03320312 830.671875 958.25390625 834.495117188 898.62109375 853.731445312 c 0
 886.91796875 857.631835938 862.431640625 867.0625 828.265625 878.44921875 c 0
 799.720703125 887.963867188 777.109375 895.494140625 760.2265625 899.2421875 c 0
 710.939453125 912.513671875 660.21484375 920.009765625 613.158203125 920.009765625 c 2
 561.8359375 920.009765625 l 2
 493.166015625 920.009765625 431.3203125 886.482421875 376.4140625 850.509765625 c 0
 291.931640625 794.190429688 229.857421875 709.688476562 192.130859375 594.620117188 c 0
 162.0078125 502.3671875 154.361328125 390.705078125 154.361328125 261.630859375 c 0
 154.361328125 195.53515625 163.763671875 141.045898438 176.994140625 95.6845703125 c 0
 192.08203125 37.220703125 216.45703125 -11.4365234375 248.271484375 -50.7373046875 c 0
 283.828125 -93.7763671875 326.75 -123.495117188 372.880859375 -134.565429688 c 0
 389.62890625 -138.288085938 404.517578125 -140.139648438 419.27734375 -140.139648438 c 0
 450.556640625 -140.139648438 480.150390625 -130.916015625 507.869140625 -114.28515625 c 0
 539.015625 -94.1318359375 563.173828125 -62.783203125 581.953125 -17.7109375 c 0
 596.765625 15.6162109375 602.48046875 58.7421875 608.185546875 113.90234375 c 0
 609.919921875 129.517578125 614.65234375 146.2890625 615.556640625 157.788085938 c 1xfec0
EndSplineSet
Validated: 33
EndChar

